<?xml version="1.0" standalone="no"?>
<!DOCTYPE svg PUBLIC "-//W3C//DTD SVG 1.1//EN" "http://www.w3.org/Graphics/SVG/1.1/DTD/svg11.dtd" >
<svg>
<metadata>
Created by FontForge 20120731 at Tue Jul  2 04:13:51 2019
 By www
Copyright 1990 as an unpublished work by Bitstream Inc.  All rights reserved.  Confidential.
</metadata>
<defs>
<font id="AmerTypewriterITCbyBT-Light" horiz-adv-x="500" >
  <font-face 
    font-family="ITC American Typewriter"
    font-weight="300"
    font-stretch="normal"
    units-per-em="1000"
    panose-1="0 0 0 0 0 0 0 0 0 0"
    ascent="800"
    descent="-200"
    x-height="476"
    cap-height="667"
    bbox="-160 -236 1187 928"
    underline-thickness="29"
    underline-position="-79"
    stemh="23"
    stemv="26"
    unicode-range="U+0020-FB02"
  />
<missing-glyph horiz-adv-x="313" 
 />
    <glyph glyph-name=".notdef" horiz-adv-x="313" 
 />
    <glyph glyph-name="space" unicode=" " horiz-adv-x="313" 
 />
    <glyph glyph-name="exclam" unicode="!" horiz-adv-x="312" 
d="M142 158l-2 487c0 18 4 23 16 23c13 0 17 -3 17 -23l-2 -487v-5c0 -17 -3 -26 -13 -26s-16 7 -16 18v13zM109 32c0 27 21 47 48 47c26 0 46 -20 46 -47c0 -25 -20 -46 -46 -46s-48 21 -48 46z" />
    <glyph glyph-name="quotedbl" unicode="&#x22;" horiz-adv-x="259" 
d="M50 700h34v-270h-34v270zM175 700h34v-270h-34v270z" />
    <glyph glyph-name="numbersign" unicode="#" horiz-adv-x="769" 
d="M400 709h47l-88 -248h134l88 248h46l-87 -248h159l-11 -36h-162l-50 -142h174l-11 -36h-175l-87 -246h-47l88 246h-135l-88 -246h-46l87 246h-166l11 36h167l52 142h-182l11 36h183zM346 425l-49 -142h133l49 142h-133z" />
    <glyph glyph-name="dollar" unicode="$" horiz-adv-x="625" 
d="M288 -58c0 -9 -5 -14 -10 -14s-9 5 -9 14v88c-107 16 -171 82 -171 154c0 37 17 58 46 58c20 0 34 -13 34 -32c0 -45 -50 -18 -50 -45c0 -38 57 -99 141 -112v297c-95 21 -140 62 -140 137c0 76 48 129 140 152v98c0 9 4 14 9 14s10 -5 10 -14v-96c14 1 26 2 35 2
c11 0 23 0 38 -1v95c0 9 4 14 9 14s10 -5 10 -14v-98c87 -17 137 -67 137 -127c0 -35 -18 -56 -46 -56c-20 0 -33 11 -33 27c0 40 43 24 43 56c0 27 -34 63 -101 78v-262c100 -23 146 -70 146 -152c0 -85 -49 -142 -146 -170v-91c0 -9 -4 -14 -9 -14s-10 5 -10 14v88
c-22 -2 -36 -3 -42 -3c-9 0 -20 0 -31 1v-86zM288 345v-295c11 -1 22 -2 32 -2c5 0 19 1 41 4v277zM380 57c76 25 114 73 114 144c0 68 -38 106 -114 124v-268zM288 375l73 -16v261c-16 2 -28 2 -38 2c-11 0 -24 0 -35 -1v-246zM269 379v239c-68 -17 -107 -64 -107 -126
c0 -66 33 -100 107 -113z" />
    <glyph glyph-name="percent" unicode="%" horiz-adv-x="882" 
d="M241 6l316 596c-34 -28 -67 -42 -104 -42c-26 0 -51 9 -78 23c10 -36 17 -70 17 -103c0 -116 -64 -193 -156 -193c-99 0 -156 71 -156 198c0 125 61 198 156 198c38 0 65 -13 96 -35c39 -28 69 -61 124 -61c41 0 79 20 117 59c24 25 31 47 49 47c6 0 9 -5 9 -14
c0 -11 -9 -22 -17 -38l-345 -651c-5 -10 -10 -14 -19 -14c-7 0 -14 6 -14 15c0 4 2 9 5 15zM112 486c0 -114 47 -177 124 -177c72 0 123 64 123 177c0 112 -48 176 -123 176s-124 -64 -124 -176zM480 184c0 125 60 199 156 199c95 0 155 -73 155 -199s-63 -198 -155 -198
c-99 0 -156 71 -156 198zM512 185c0 -114 47 -177 124 -177c72 0 123 64 123 177c0 112 -48 176 -123 176c-76 0 -124 -65 -124 -176z" />
    <glyph glyph-name="ampersand" unicode="&#x26;" horiz-adv-x="778" 
d="M228 463c-41 20 -59 50 -59 94c0 70 51 122 132 122c72 0 116 -35 116 -88c0 -37 -21 -61 -56 -61c-25 0 -40 14 -40 32c0 15 8 24 23 24c12 0 18 -8 18 -18v-7c0 -2 4 -5 8 -5c11 0 21 12 21 34c0 40 -33 67 -87 67c-66 0 -106 -44 -106 -98c0 -57 35 -87 92 -87
c7 0 15 2 25 2c11 0 17 -5 17 -11s-7 -11 -22 -11h-14c-136 0 -217 -79 -217 -215c0 -149 86 -229 250 -229s262 97 262 232c0 105 -55 164 -144 164c-80 0 -128 -49 -128 -125c0 -51 25 -81 63 -81c28 0 49 18 49 35c0 5 -3 8 -4 8c-4 0 -9 -2 -13 -2c-9 0 -18 10 -18 20
c0 20 10 31 30 31c22 0 36 -17 36 -43c0 -40 -30 -70 -81 -70c-56 0 -92 40 -92 108c0 88 62 142 182 142c40 0 85 -4 135 -4c96 0 144 40 144 118c0 71 -47 121 -108 121c-66 0 -102 -35 -102 -91c0 -35 18 -55 47 -55c21 0 35 12 35 22c0 5 -20 4 -20 25c0 13 11 21 22 21
c18 0 30 -12 30 -33c0 -35 -28 -58 -64 -58c-49 0 -78 31 -78 82c0 61 49 108 126 108c84 0 141 -55 141 -137c0 -99 -60 -144 -182 -144c-14 0 -32 1 -55 2c57 -34 85 -87 85 -162c0 -151 -114 -257 -308 -257c-174 0 -275 96 -275 248c0 125 67 209 184 230z" />
    <glyph glyph-name="quoteright" unicode="&#x2019;" horiz-adv-x="312" 
d="M160 592c-5 0 -13 -3 -24 -3c-23 0 -37 19 -37 40c0 32 19 52 51 52c40 0 63 -30 63 -85c0 -94 -63 -193 -87 -193c-6 0 -10 5 -10 12c0 13 65 69 65 155c0 15 -7 22 -21 22z" />
    <glyph glyph-name="parenleft" unicode="(" horiz-adv-x="375" 
d="M341 689c0 -16 -41 -22 -77 -49c-111 -83 -179 -220 -179 -369c0 -139 58 -267 159 -352c52 -44 97 -49 97 -66c0 -3 -5 -5 -10 -5c-14 0 -69 21 -128 74c-101 91 -154 210 -154 349c0 128 47 244 132 329c68 68 133 95 150 95c5 0 10 -3 10 -6z" />
    <glyph glyph-name="parenright" unicode=")" horiz-adv-x="375" 
d="M34 -147c0 16 41 23 77 50c111 83 178 219 178 368c0 139 -57 267 -158 352c-52 44 -97 49 -97 66c0 3 4 6 9 6c14 0 70 -22 129 -75c101 -91 153 -210 153 -349c0 -128 -47 -243 -132 -328c-68 -68 -133 -95 -150 -95c-5 0 -9 2 -9 5z" />
    <glyph glyph-name="asterisk" unicode="*" 
d="M234 545c4 0 8 8 8 17c0 15 -8 44 -8 87c0 21 10 32 19 32c10 0 20 -12 20 -30c0 -45 -11 -78 -11 -94c0 -10 4 -15 11 -15c21 0 68 62 102 62c12 0 19 -5 19 -13c0 -20 -18 -26 -45 -39c-40 -20 -71 -22 -71 -35c0 -7 17 -14 46 -26c45 -18 69 -29 69 -48
c0 -9 -8 -14 -22 -14c-7 0 -25 10 -54 30c-25 18 -39 36 -52 36c-4 0 -6 -5 -6 -14c0 -23 11 -58 11 -100c0 -13 -9 -25 -18 -25c-10 0 -20 11 -20 32c0 44 7 75 7 93c0 9 -2 15 -6 15c-23 0 -78 -62 -108 -62c-12 0 -19 5 -19 14c0 19 18 25 46 38c40 19 70 21 70 34
c0 9 -22 15 -55 30c-40 18 -60 27 -60 45c0 9 8 14 22 14c24 0 85 -64 105 -64z" />
    <glyph glyph-name="plus" unicode="+" horiz-adv-x="833" 
d="M402 596h30v-283h277v-30h-277v-283h-30v283h-278v30h278v283z" />
    <glyph glyph-name="comma" unicode="," horiz-adv-x="312" 
d="M153 -12c-5 0 -13 -2 -24 -2c-23 0 -37 19 -37 40c0 32 20 51 52 51c40 0 62 -29 62 -84c0 -94 -63 -193 -87 -193c-6 0 -10 5 -10 12c0 13 65 68 65 154c0 15 -7 22 -21 22z" />
    <glyph glyph-name="hyphen" unicode="-" horiz-adv-x="328" 
d="M75 223c-20 0 -29 5 -29 15c0 12 10 17 29 17h179c20 0 29 -5 29 -15c0 -12 -9 -17 -29 -17h-179z" />
    <glyph glyph-name="period" unicode="." horiz-adv-x="312" 
d="M109 32c0 27 21 47 48 47c26 0 46 -20 46 -47c0 -25 -20 -46 -46 -46s-48 21 -48 46z" />
    <glyph glyph-name="slash" unicode="/" horiz-adv-x="273" 
d="M292 661l-308 -735c-6 -14 -9 -19 -21 -19c-10 0 -15 2 -15 9c0 3 1 7 3 11l308 735c6 14 10 19 22 19c10 0 15 -3 15 -10c0 -3 -2 -6 -4 -10z" />
    <glyph glyph-name="zero" unicode="0" horiz-adv-x="625" 
d="M522 334c0 204 -84 323 -209 323c-127 0 -210 -117 -210 -323c0 -202 81 -322 209 -322s210 120 210 322zM68 334c0 218 95 344 244 344c148 0 245 -127 245 -344c0 -213 -95 -343 -246 -343c-150 0 -243 128 -243 343z" />
    <glyph glyph-name="one" unicode="1" horiz-adv-x="625" 
d="M299 541v8c0 73 -1 94 -54 94c-31 0 -50 -2 -56 -2c-14 0 -22 6 -22 13s7 14 19 14c11 0 26 -4 48 -4c31 0 55 5 69 5c26 0 28 -9 28 -42v-501v-14c0 -66 2 -88 52 -88c35 0 56 3 63 3c14 0 22 -7 22 -14s-7 -13 -19 -13c-29 0 -73 8 -132 8c-63 0 -108 -8 -134 -8
c-12 0 -19 6 -19 13s8 14 22 14c9 0 29 -3 61 -3c51 0 52 24 52 94v8v415z" />
    <glyph glyph-name="two" unicode="2" horiz-adv-x="625" 
d="M109 74c30 47 66 69 113 69c43 0 79 -18 117 -54c39 -37 68 -73 123 -73c45 0 84 45 84 100c0 35 -10 54 -17 54c-3 0 -10 -16 -26 -16c-14 0 -23 9 -23 25c0 18 12 29 36 29c32 0 55 -30 55 -88c0 -82 -47 -136 -111 -136c-54 0 -89 34 -134 77c-35 33 -66 52 -110 52
c-46 0 -88 -31 -96 -67h1c3 0 6 2 10 2c11 0 23 -11 23 -25c0 -17 -11 -28 -32 -28c-24 0 -40 28 -40 83c0 103 58 177 171 218c93 34 168 45 207 76c35 27 50 65 50 119c0 99 -68 165 -187 165c-127 0 -198 -76 -198 -150c0 -10 2 -15 6 -15c5 0 12 4 22 4
c18 0 30 -11 30 -30c0 -22 -17 -37 -38 -37c-35 0 -53 24 -53 69c0 97 87 179 230 179c134 0 222 -74 222 -184c0 -56 -21 -101 -58 -133c-47 -40 -122 -50 -207 -79c-111 -38 -166 -102 -170 -206z" />
    <glyph glyph-name="three" unicode="3" horiz-adv-x="625" 
d="M262 400l246 241h-333c-42 0 -47 -5 -47 -41c0 -63 6 -103 6 -119c0 -12 -5 -18 -13 -18s-13 6 -13 18s4 30 4 52c0 56 -3 92 -3 108c0 25 5 27 60 27h25h293c31 0 47 -8 47 -21c0 -11 -5 -22 -15 -32l-204 -201c22 2 40 4 55 4c109 0 187 -72 187 -190
c0 -144 -99 -239 -256 -239c-140 0 -228 78 -228 177c0 49 30 82 65 82c24 0 37 -12 37 -35c0 -17 -11 -27 -28 -27c-11 0 -18 7 -25 7c-10 0 -22 -14 -22 -40c0 -74 78 -143 204 -143c135 0 221 87 221 216c0 106 -65 171 -163 171c-61 0 -89 -24 -103 -24
c-8 0 -11 2 -11 8c0 7 6 12 14 19z" />
    <glyph glyph-name="four" unicode="4" horiz-adv-x="625" 
d="M403 236l3 400l-316 -400h313zM436 126v-14c0 -65 1 -88 50 -88c23 0 39 3 48 3c14 0 22 -7 22 -14s-6 -13 -18 -13c-14 0 -53 8 -119 8c-64 0 -102 -8 -117 -8c-12 0 -19 6 -19 13s8 14 22 14c9 0 25 -3 48 -3c48 0 50 24 50 87v15v81h-291c-35 0 -54 3 -54 20
c0 12 6 22 16 34l307 386c14 18 23 29 34 29c15 0 21 -8 21 -23v-22v-395h27c51 0 79 2 85 2c20 0 30 -6 30 -16c0 -12 -8 -16 -22 -16c-5 0 -28 2 -71 2c-14 0 -30 0 -49 -1v-81z" />
    <glyph glyph-name="five" unicode="5" horiz-adv-x="625" 
d="M110 360l30 271c3 31 9 37 39 37h273h21c20 0 25 -6 29 -28c9 -49 13 -77 13 -77c0 -9 -4 -15 -10 -15c-18 0 -12 24 -21 65c-4 20 -18 29 -44 29h-240h-1c-25 0 -26 -6 -29 -27l-32 -261c51 59 114 86 194 86c141 0 230 -81 230 -208c0 -143 -100 -241 -258 -241
c-140 0 -227 78 -227 177c0 49 30 82 65 82c24 0 37 -12 37 -35c0 -17 -11 -27 -28 -27c-11 0 -19 7 -26 7c-10 0 -21 -14 -21 -40c0 -74 78 -143 204 -143c134 0 222 86 222 217c0 116 -78 191 -198 191c-59 0 -110 -19 -150 -55c-26 -23 -40 -42 -55 -42
c-11 0 -18 9 -18 26c0 4 1 7 1 11z" />
    <glyph glyph-name="six" unicode="6" horiz-adv-x="625" 
d="M138 211c0 -111 86 -199 202 -199c115 0 195 81 195 199c0 126 -77 203 -195 203s-202 -83 -202 -203zM116 244c17 120 101 192 223 192c140 0 231 -83 231 -214c0 -139 -91 -231 -237 -231c-155 0 -251 118 -251 325c0 221 118 362 280 362c115 0 192 -62 192 -143
c0 -37 -20 -63 -50 -63c-25 0 -40 13 -40 34c0 16 11 28 27 28c13 0 21 -4 23 -4c4 0 7 9 7 25c0 48 -66 103 -157 103c-146 0 -251 -132 -251 -361c0 -18 2 -35 3 -53z" />
    <glyph glyph-name="seven" unicode="7" horiz-adv-x="625" 
d="M127 581c25 52 61 97 128 97c44 0 74 -20 108 -58c27 -30 49 -49 84 -49c44 0 67 33 67 49c0 7 -22 4 -22 29c0 15 11 26 27 26c23 0 33 -18 33 -55c0 -102 -81 -162 -156 -252c-76 -90 -100 -173 -100 -286c0 -19 1 -38 1 -57c0 -17 -5 -25 -18 -25c-15 0 -19 8 -19 25
c0 111 4 197 67 294c49 76 112 129 157 183c24 28 36 57 38 91c-24 -34 -51 -51 -83 -51c-37 0 -63 22 -98 59c-29 31 -50 51 -90 51c-66 0 -125 -66 -125 -174c0 -16 3 -32 3 -46c0 -9 -8 -20 -15 -20c-6 0 -13 9 -13 19c0 15 8 64 8 145c0 41 -6 65 -6 76c0 10 8 19 14 19
s13 -8 13 -19c0 -9 -3 -25 -3 -48v-23z" />
    <glyph glyph-name="eight" unicode="8" horiz-adv-x="625" 
d="M102 197c0 -110 83 -185 208 -185c130 0 213 79 213 179c0 117 -79 188 -211 188c-129 0 -210 -74 -210 -182zM228 392c-82 27 -119 68 -119 135c0 86 76 147 199 147c133 0 207 -59 207 -150c0 -59 -39 -105 -115 -132c105 -34 156 -96 156 -192
c0 -124 -93 -209 -244 -209c-152 0 -243 83 -243 214c0 91 54 156 159 187zM142 531c0 -73 62 -125 168 -125c107 0 172 55 172 121c0 78 -64 126 -171 126c-106 0 -169 -51 -169 -122z" />
    <glyph glyph-name="nine" unicode="9" horiz-adv-x="625" 
d="M531 424c-17 -120 -102 -192 -224 -192c-140 0 -230 83 -230 214c0 139 90 231 236 231c155 0 251 -118 251 -325c0 -221 -118 -362 -280 -362c-115 0 -192 62 -192 143c0 37 21 63 51 63c25 0 40 -13 40 -34c0 -16 -12 -28 -28 -28c-13 0 -20 4 -22 4c-4 0 -8 -9 -8 -25
c0 -48 67 -102 158 -102c146 0 250 131 250 360c0 18 -1 35 -2 53zM508 457c0 111 -86 199 -202 199c-115 0 -194 -81 -194 -199c0 -126 76 -203 194 -203s202 83 202 203z" />
    <glyph glyph-name="colon" unicode=":" horiz-adv-x="312" 
d="M109 32c0 27 21 47 48 47c26 0 46 -20 46 -47c0 -25 -20 -46 -46 -46s-48 21 -48 46zM109 312c0 27 21 48 48 48c26 0 46 -21 46 -48c0 -25 -20 -45 -46 -45s-48 20 -48 45z" />
    <glyph glyph-name="semicolon" unicode=";" horiz-adv-x="312" 
d="M106 312c0 27 20 48 47 48c26 0 46 -21 46 -48c0 -25 -20 -45 -46 -45s-47 20 -47 45zM159 -12c-5 0 -13 -2 -24 -2c-23 0 -37 19 -37 40c0 32 20 51 52 51c40 0 62 -29 62 -84c0 -94 -62 -193 -86 -193c-6 0 -10 5 -10 12c0 13 64 68 64 154c0 15 -7 22 -21 22z" />
    <glyph glyph-name="less" unicode="&#x3c;" horiz-adv-x="833" 
d="M704 543v-34l-522 -211l522 -211v-34l-575 235v20z" />
    <glyph glyph-name="equal" unicode="=" horiz-adv-x="833" 
d="M124 400h585v-30h-585v30zM124 227h585v-30h-585v30z" />
    <glyph glyph-name="greater" unicode="&#x3e;" horiz-adv-x="833" 
d="M129 543l575 -235v-20l-575 -235v34l521 211l-521 211v34z" />
    <glyph glyph-name="question" unicode="?" horiz-adv-x="549" 
d="M521 498c0 -121 -87 -144 -202 -200c-55 -26 -60 -65 -60 -133v-14c0 -14 -4 -21 -14 -21c-11 0 -14 8 -14 26v30c0 80 14 103 91 144c94 50 166 68 166 163c0 94 -74 151 -191 151c-132 0 -207 -66 -207 -147c0 -40 20 -65 53 -65c7 0 10 1 10 6s-3 12 -3 20
c0 18 14 31 32 31c22 0 35 -12 35 -32c0 -34 -26 -53 -70 -53c-51 0 -87 37 -87 93c0 97 89 169 236 169c136 0 225 -66 225 -168zM198 31c0 26 19 45 45 45c25 0 45 -18 45 -45c0 -25 -20 -44 -45 -44c-26 0 -45 21 -45 44z" />
    <glyph glyph-name="at" unicode="@" horiz-adv-x="1000" 
d="M631 353c-15 66 -56 102 -119 102c-102 0 -179 -103 -179 -237c0 -79 41 -124 109 -124c75 0 136 52 157 133zM583 155c-31 -58 -85 -92 -141 -92c-101 0 -154 55 -154 158c0 150 103 265 225 265c64 0 106 -29 126 -86l30 66h32l-67 -267c-7 -28 -12 -48 -12 -59
c0 -29 22 -46 61 -46c45 0 94 22 131 61c51 54 84 137 84 225c0 173 -142 296 -358 296c-109 0 -203 -32 -277 -92c-103 -83 -157 -199 -157 -336c0 -212 156 -353 398 -353c107 0 218 34 308 94l11 -17c-94 -70 -200 -105 -314 -105c-123 0 -224 29 -301 88
c-98 75 -146 174 -146 301c0 105 33 199 96 276c92 112 225 173 386 173c107 0 204 -32 268 -81c83 -64 126 -148 126 -245c0 -110 -43 -202 -117 -261c-45 -35 -97 -54 -148 -54c-61 0 -92 23 -92 69c0 6 1 14 2 22z" />
    <glyph glyph-name="A" unicode="A" horiz-adv-x="658" 
d="M478 255c-50 1 -99 1 -148 1s-97 0 -145 -1l-71 -186c-3 -9 -5 -15 -5 -19c0 -19 14 -26 47 -26c24 0 42 2 54 2c16 0 24 -6 24 -15c0 -6 -7 -14 -16 -14c-10 0 -57 10 -142 10c-60 0 -94 -7 -104 -7c-9 0 -17 8 -17 15c0 9 9 15 27 15c8 0 17 -2 26 -2c41 0 59 7 74 46
l229 588c5 14 8 16 24 16c14 0 21 -5 26 -19l212 -584c14 -40 35 -46 75 -46c9 0 17 1 25 1c18 0 27 -6 27 -14c0 -6 -10 -15 -20 -15c-7 0 -40 7 -105 7c-84 0 -127 -10 -135 -10c-11 0 -19 8 -19 14c0 9 8 15 24 15c10 0 28 -2 54 -2c32 0 47 7 47 26c0 7 0 13 -2 19z
M194 279c59 -1 104 -2 134 -2c33 0 80 1 140 2l-134 365z" />
    <glyph glyph-name="B" unicode="B" horiz-adv-x="662" 
d="M226 375h159c119 0 177 46 177 135c0 95 -66 136 -206 136h-68c-90 0 -102 -3 -102 -43v-175c0 -44 0 -53 40 -53zM153 126v415c0 83 -1 101 -56 101c-18 0 -35 -2 -49 -2c-13 0 -22 7 -22 13c0 9 8 14 22 14c19 0 57 -7 112 -7c67 0 133 8 199 8c158 0 237 -52 237 -153
c0 -79 -42 -128 -127 -149c103 -19 155 -80 155 -178c0 -128 -78 -190 -236 -190c-55 0 -125 10 -211 10c-62 0 -106 -8 -129 -8c-14 0 -22 5 -22 14c0 7 9 13 28 13c8 0 22 -2 43 -2c55 0 56 18 56 101zM186 88c0 -31 2 -48 15 -53c18 -8 75 -14 168 -14
c149 0 220 50 220 169c0 110 -65 167 -190 167h-157c-44 0 -56 -4 -56 -51v-218z" />
    <glyph glyph-name="C" unicode="C" horiz-adv-x="601" 
d="M519 564v18c0 34 -4 54 -4 62c0 14 7 23 13 23c8 0 15 -7 15 -21c0 -4 -3 -31 -3 -87c0 -99 4 -147 4 -154c0 -11 -6 -20 -13 -20s-15 7 -15 21c0 6 2 19 2 37c0 144 -78 217 -193 217c-146 0 -242 -120 -242 -330c0 -204 98 -323 247 -323c138 0 206 73 206 218
c0 14 4 21 11 21c10 0 14 -10 14 -30c0 -145 -87 -230 -232 -230c-179 0 -280 121 -280 346c0 223 108 349 274 349c92 0 156 -37 196 -117z" />
    <glyph glyph-name="D" unicode="D" horiz-adv-x="718" 
d="M186 126v-17c0 -29 1 -51 10 -68c11 -18 51 -20 136 -20c205 0 302 102 302 324c0 221 -96 301 -296 301c-67 0 -111 -1 -133 -10c-19 -7 -19 -37 -19 -94v-416zM153 126v415c0 83 -1 101 -56 101c-18 0 -35 -2 -49 -2c-13 0 -22 7 -22 13c0 8 7 14 20 14
c25 0 66 -10 119 -10c48 0 113 9 193 9c208 0 309 -104 309 -328c0 -221 -109 -338 -321 -338c-77 0 -138 9 -181 9c-53 0 -94 -9 -119 -9c-13 0 -20 6 -20 14c0 7 9 13 28 13c8 0 22 -2 43 -2c55 0 56 18 56 101z" />
    <glyph glyph-name="E" unicode="E" horiz-adv-x="680" 
d="M153 126v415c0 83 -1 101 -56 101c-18 0 -35 -2 -49 -2c-13 0 -22 7 -22 13c0 8 7 14 20 14c8 0 47 -5 121 -5c119 0 228 4 325 4c64 0 81 -3 81 -48c0 -7 -3 -41 -3 -100c0 -48 6 -77 6 -88c0 -10 -9 -20 -15 -20c-5 0 -12 9 -12 24c0 5 2 33 2 91c0 112 -4 113 -88 114
l-210 4h-5c-58 0 -62 -19 -62 -81v-169c0 -26 4 -26 33 -26h83h36c62 0 65 18 65 65c0 35 -3 57 -3 63c0 14 5 21 14 21s15 -8 15 -24c0 -20 -10 -65 -10 -134c0 -84 11 -137 11 -156c0 -18 -8 -27 -16 -27s-14 8 -14 24c0 6 3 35 3 91c0 57 -20 58 -93 58h-8h-84
c-30 0 -32 -6 -32 -30v-192v-35c0 -62 14 -63 70 -63h212c87 0 91 6 91 116c0 50 -2 74 -2 79c0 15 7 24 13 24c9 0 14 -8 14 -24c0 -15 -4 -52 -4 -110c0 -36 2 -58 2 -66c0 -44 -23 -46 -70 -46h-19c-128 0 -236 7 -324 7c-62 0 -103 -8 -123 -8c-13 0 -20 6 -20 14
c0 7 9 13 28 13c8 0 22 -2 43 -2c55 0 56 18 56 101z" />
    <glyph glyph-name="F" unicode="F" horiz-adv-x="620" 
d="M186 126v-39c0 -54 16 -62 56 -62c18 0 35 2 49 2c13 0 21 -7 21 -13c0 -8 -6 -14 -19 -14c-19 0 -62 8 -124 8s-104 -8 -123 -8c-13 0 -20 6 -20 14c0 7 9 13 28 13c8 0 22 -2 43 -2c55 0 56 18 56 101v415c0 83 -1 101 -56 101c-18 0 -35 -2 -49 -2c-13 0 -22 7 -22 13
c0 8 7 14 20 14c8 0 48 -5 121 -5h52c75 0 157 4 245 4c64 0 81 -3 81 -48c0 -7 -3 -41 -3 -100c0 -48 6 -77 6 -88c0 -10 -9 -20 -15 -20c-5 0 -13 9 -13 24c0 5 3 33 3 91c0 112 -5 112 -88 114l-181 4h-5c-58 0 -63 -20 -63 -81v-184c0 -26 4 -27 33 -27h84h35
c62 0 66 19 66 66c0 35 -4 56 -4 62c0 14 6 22 15 22s14 -9 14 -25c0 -20 -9 -64 -9 -133c0 -84 10 -137 10 -156c0 -18 -7 -28 -15 -28s-14 9 -14 25c0 6 3 35 3 91c0 57 -20 58 -93 58h-8h-85c-30 0 -32 -6 -32 -30v-177z" />
    <glyph glyph-name="G" unicode="G" horiz-adv-x="714" 
d="M564 101c-46 -79 -117 -115 -223 -115c-181 0 -293 128 -293 347c0 217 114 348 293 348c109 0 184 -40 224 -128c-2 54 -7 85 -7 92c0 15 6 22 14 22c9 0 16 -8 16 -22c0 -4 -3 -31 -3 -86c0 -98 5 -146 5 -153c0 -11 -7 -21 -15 -21s-16 8 -16 22c0 7 2 17 2 29
c0 147 -82 224 -220 224c-155 0 -256 -123 -256 -323c0 -210 100 -330 261 -330c131 0 214 76 214 164v21c0 83 -1 101 -56 101c-18 0 -35 -2 -49 -2c-13 0 -22 7 -22 13c0 8 7 14 20 14c22 0 63 -10 123 -10c56 0 97 10 120 10c13 0 20 -6 20 -14c0 -7 -9 -13 -28 -13
c-8 0 -22 2 -43 2c-56 0 -56 -19 -56 -101v-84v-5c0 -26 3 -51 3 -72c0 -15 -5 -22 -14 -22c-11 0 -16 6 -16 19c0 4 2 23 2 55v18z" />
    <glyph glyph-name="H" unicode="H" horiz-adv-x="769" 
d="M186 126v-17c0 -70 6 -84 56 -84c18 0 35 2 49 2c13 0 21 -7 21 -13c0 -8 -6 -14 -19 -14c-21 0 -63 9 -124 9s-102 -9 -123 -9c-13 0 -20 6 -20 14c0 7 9 13 28 13c8 0 22 -2 43 -2c55 0 56 18 56 101v415c0 83 -1 101 -56 101c-18 0 -35 -2 -49 -2c-13 0 -22 7 -22 13
c0 8 7 14 20 14c21 0 62 -10 123 -10s103 10 124 10c13 0 19 -6 19 -14c0 -7 -8 -13 -27 -13c-8 0 -22 2 -43 2c-56 0 -56 -19 -56 -101v-173c72 -1 138 -2 198 -2c63 0 129 1 199 2v173c0 83 -2 101 -57 101c-18 0 -34 -2 -48 -2c-13 0 -22 7 -22 13c0 8 6 14 19 14
c21 0 63 -10 124 -10s102 10 123 10c13 0 20 -6 20 -14c0 -7 -9 -13 -28 -13c-8 0 -21 2 -42 2c-56 0 -56 -18 -56 -101v-415v-17c0 -70 6 -84 56 -84c18 0 34 2 48 2c13 0 22 -7 22 -13c0 -8 -7 -14 -20 -14c-21 0 -62 9 -123 9s-103 -9 -124 -9c-13 0 -19 6 -19 14
c0 7 9 13 28 13c8 0 21 -2 42 -2c55 0 57 18 57 101v215c-84 2 -151 3 -199 3s-114 -1 -198 -3v-215z" />
    <glyph glyph-name="I" unicode="I" horiz-adv-x="337" 
d="M185 126v-17c0 -70 6 -84 56 -84c18 0 35 2 49 2c13 0 22 -7 22 -13c0 -8 -7 -14 -20 -14c-21 0 -62 9 -123 9s-103 -9 -124 -9c-13 0 -20 6 -20 14c0 7 9 13 28 13c8 0 22 -2 43 -2c55 0 56 18 56 101v415c0 83 -1 101 -56 101c-18 0 -35 -2 -49 -2c-13 0 -22 7 -22 13
c0 8 7 14 20 14c21 0 63 -10 124 -10s102 10 123 10c13 0 20 -6 20 -14c0 -7 -9 -13 -28 -13c-8 0 -22 2 -43 2c-56 0 -56 -19 -56 -101v-415z" />
    <glyph glyph-name="J" unicode="J" horiz-adv-x="608" 
d="M444 252v289c0 83 -2 101 -57 101c-18 0 -34 -2 -48 -2c-13 0 -22 7 -22 13c0 8 6 14 19 14c21 0 63 -10 124 -10s102 10 123 10c13 0 20 -6 20 -14c0 -7 -9 -13 -28 -13c-8 0 -22 2 -43 2c-54 0 -55 -18 -55 -93v-8v-302c0 -170 -71 -253 -243 -253
c-128 0 -203 64 -203 163c0 76 48 129 106 129c42 0 64 -17 64 -45c0 -22 -15 -39 -36 -39c-19 0 -30 9 -30 26c0 12 11 21 11 24c0 6 -7 12 -19 12c-33 0 -65 -39 -65 -106c0 -87 69 -143 185 -143c62 0 110 17 144 51c48 48 53 107 53 194z" />
    <glyph glyph-name="K" unicode="K" horiz-adv-x="725" 
d="M186 126v-17c0 -70 6 -84 56 -84c18 0 35 2 49 2c13 0 21 -7 21 -13c0 -8 -6 -14 -19 -14c-21 0 -63 9 -124 9s-102 -9 -123 -9c-13 0 -20 6 -20 14c0 7 9 13 28 13c8 0 22 -2 43 -2c55 0 56 18 56 101v415c0 83 -1 101 -56 101c-18 0 -35 -2 -49 -2c-13 0 -22 7 -22 13
c0 8 7 14 20 14c21 0 62 -10 123 -10s103 10 124 10c13 0 19 -6 19 -14c0 -7 -8 -13 -27 -13c-8 0 -22 2 -43 2c-56 0 -56 -19 -56 -101v-259l348 318c16 14 24 21 24 31c0 11 -8 12 -25 12h-9c-22 0 -42 -3 -59 -3s-26 7 -26 13c0 8 7 14 20 14c25 0 64 -10 117 -10
c51 0 90 10 115 10c13 0 20 -6 20 -14c0 -7 -9 -13 -28 -13c-16 0 -29 3 -39 3c-29 0 -52 -25 -87 -57l-191 -175l236 -333c22 -30 36 -54 72 -54c17 0 31 3 44 3c18 0 27 -6 27 -13c0 -8 -7 -14 -20 -14c-21 0 -62 9 -123 9c-41 0 -79 -9 -108 -9c-13 0 -20 6 -20 14
c0 6 9 13 26 13c21 0 46 -5 71 -5c13 0 19 5 19 13c0 6 -6 18 -18 35l-229 318l-157 -140v-122z" />
    <glyph glyph-name="L" unicode="L" horiz-adv-x="607" 
d="M186 126v-36c0 -62 16 -62 70 -62h169c87 0 91 6 91 116c0 50 -3 74 -3 79c0 15 7 24 13 24c9 0 14 -8 14 -24c0 -15 -4 -52 -4 -110c0 -36 2 -58 2 -66c0 -46 -25 -46 -77 -46c-103 0 -196 7 -277 7c-77 0 -123 -8 -138 -8c-13 0 -20 6 -20 14c0 7 9 13 28 13
c8 0 22 -2 43 -2c55 0 56 18 56 101v415c0 83 -1 101 -56 101c-18 0 -35 -2 -49 -2c-13 0 -22 7 -22 13c0 8 7 14 20 14c21 0 62 -10 123 -10s103 10 124 10c13 0 19 -6 19 -14c0 -7 -8 -13 -27 -13c-8 0 -22 2 -43 2c-56 0 -56 -19 -56 -101v-415z" />
    <glyph glyph-name="M" unicode="M" horiz-adv-x="896" 
d="M742 126v-17c0 -70 7 -84 57 -84c18 0 34 2 48 2c13 0 22 -7 22 -13c0 -8 -7 -14 -20 -14c-23 0 -64 9 -120 9c-60 0 -101 -9 -123 -9c-13 0 -20 6 -20 14c0 7 9 13 28 13c8 0 22 -2 43 -2c55 0 56 18 56 101v512l-237 -605c-9 -23 -11 -24 -27 -24s-18 5 -26 25
l-241 606v-514v-17c0 -70 7 -84 57 -84c18 0 34 2 48 2c13 0 22 -7 22 -13c0 -8 -7 -14 -20 -14c-22 0 -63 9 -123 9c-56 0 -97 -9 -120 -9c-13 0 -20 6 -20 14c0 7 9 13 28 13c8 0 22 -2 43 -2c55 0 56 18 56 101v415c0 83 -1 101 -56 101c-18 0 -35 -2 -49 -2
c-13 0 -22 7 -22 13c0 8 7 14 20 14c12 0 38 -5 76 -5c24 0 42 2 55 2c21 0 33 -6 39 -21l233 -601l231 601c7 18 13 21 32 21c11 0 31 -3 61 -3c31 0 57 6 76 6c13 0 20 -6 20 -14c0 -7 -9 -13 -28 -13c-8 0 -21 2 -42 2c-56 0 -57 -19 -57 -101v-415z" />
    <glyph glyph-name="N" unicode="N" horiz-adv-x="767" 
d="M186 126v-17c0 -70 6 -84 56 -84c18 0 35 2 49 2c13 0 21 -7 21 -13c0 -8 -6 -14 -19 -14c-21 0 -63 9 -124 9s-102 -9 -123 -9c-13 0 -20 6 -20 14c0 7 9 13 28 13c8 0 22 -2 43 -2c55 0 57 18 57 101v415c0 83 -2 101 -57 101c-18 0 -35 -2 -49 -2c-13 0 -22 7 -22 13
c0 8 7 14 20 14c5 0 33 -4 90 -4c25 0 39 1 42 1c24 0 31 -7 45 -31l358 -599v507c0 83 -2 101 -57 101c-18 0 -34 -2 -48 -2c-13 0 -22 7 -22 13c0 8 7 14 20 14c21 0 62 -10 123 -10s102 10 123 10c13 0 20 -6 20 -14c0 -7 -9 -13 -28 -13c-8 0 -21 2 -42 2
c-56 0 -57 -19 -57 -101v-507c0 -21 -12 -36 -28 -36c-12 0 -23 8 -32 24l-367 615v-511z" />
    <glyph glyph-name="O" unicode="O" horiz-adv-x="683" 
d="M633 333c0 -213 -110 -347 -292 -347c-180 0 -291 133 -291 347c0 218 112 348 292 348c178 0 291 -132 291 -348zM341 7c155 0 257 125 257 326s-102 327 -257 327s-256 -126 -256 -327s101 -326 256 -326z" />
    <glyph glyph-name="P" unicode="P" horiz-adv-x="629" 
d="M186 126v-17c0 -70 6 -84 56 -84c18 0 35 2 49 2c13 0 21 -7 21 -13c0 -8 -6 -14 -19 -14c-21 0 -63 9 -124 9s-102 -9 -123 -9c-13 0 -20 6 -20 14c0 7 9 13 28 13c8 0 22 -2 43 -2c55 0 56 18 56 101v415c0 83 -1 101 -56 101c-18 0 -35 -2 -49 -2c-13 0 -22 7 -22 13
c0 8 7 14 20 14c9 0 53 -7 132 -7c51 0 112 5 182 5c155 0 232 -62 232 -190c0 -124 -80 -182 -243 -182c-65 0 -113 4 -140 4c-17 0 -23 -5 -23 -20v-151zM186 595v-248c0 -33 4 -33 142 -33c157 0 230 36 230 168c0 113 -70 162 -208 162c-154 0 -164 -1 -164 -49z" />
    <glyph glyph-name="Q" unicode="Q" horiz-adv-x="683" 
d="M413 17c2 17 4 35 4 52c0 79 -35 118 -107 118c-54 0 -89 -33 -89 -80c0 -58 44 -101 121 -101c23 0 47 4 71 11zM411 -7c-23 -5 -45 -8 -68 -8c-179 0 -293 132 -293 348c0 218 112 348 292 348c178 0 291 -132 291 -348c0 -171 -69 -285 -195 -333
c-1 -22 -1 -42 -1 -60c0 -74 26 -111 78 -111s80 30 80 87c0 7 -1 15 -1 22c0 16 6 24 12 24c10 0 15 -8 15 -25c0 -87 -32 -129 -107 -129c-68 0 -104 44 -104 132v16c0 3 1 16 1 37zM229 33c-21 25 -31 48 -31 76c0 58 45 99 118 99c77 0 125 -50 125 -137
c0 -9 -1 -25 -3 -46c99 43 160 153 160 308c0 201 -102 327 -257 327s-256 -126 -256 -327c0 -145 51 -247 144 -300z" />
    <glyph glyph-name="R" unicode="R" horiz-adv-x="720" 
d="M186 600v-224c0 -30 9 -30 70 -30h26c168 0 261 17 261 146c0 101 -61 151 -182 151h-50c-114 0 -125 -2 -125 -43zM153 126v415c0 83 -1 101 -56 101c-18 0 -35 -2 -49 -2c-13 0 -22 7 -22 13c0 8 7 14 20 14c10 0 53 -7 132 -7c59 0 122 5 190 5
c139 0 210 -60 210 -173c0 -83 -46 -136 -138 -157c82 -22 94 -76 94 -178v-62c0 -59 10 -85 48 -85c61 0 65 59 65 188c0 12 -2 24 -2 37c0 12 8 22 14 22c10 0 16 -11 16 -30v-58c0 -131 -16 -187 -95 -187c-61 0 -76 41 -76 124c0 8 1 22 1 44c0 131 -20 175 -145 175
h-151c-16 0 -23 -1 -23 -18v-181v-17c0 -70 6 -84 56 -84c18 0 35 2 49 2c13 0 21 -7 21 -13c0 -8 -6 -14 -19 -14c-21 0 -63 9 -124 9s-102 -9 -123 -9c-13 0 -20 6 -20 14c0 7 9 13 28 13c8 0 22 -2 43 -2c55 0 56 18 56 101z" />
    <glyph glyph-name="S" unicode="S" horiz-adv-x="547" 
d="M69 89c4 -42 6 -66 6 -71c0 -14 -7 -21 -15 -21s-16 9 -16 26c0 8 4 35 4 82c0 91 -5 140 -5 151c0 14 6 22 13 22c8 0 15 -8 15 -23c0 -12 -3 -31 -3 -57c0 -122 77 -192 199 -192c128 0 207 70 207 177c0 117 -65 134 -188 147c-73 8 -130 9 -178 45
c-35 26 -53 69 -53 124c0 106 83 182 210 182c87 0 145 -33 179 -103v27c0 24 -3 40 -3 47c0 8 8 15 14 15c10 0 15 -7 15 -22c0 -6 -4 -41 -4 -109c0 -59 6 -89 6 -95c0 -13 -6 -23 -12 -23c-7 0 -15 8 -15 26c0 5 1 13 1 21c0 124 -66 195 -180 195
c-107 0 -179 -66 -179 -159c0 -96 54 -126 163 -139c84 -10 153 -10 203 -49c35 -27 55 -70 55 -123c0 -120 -89 -204 -237 -204c-94 0 -159 32 -202 103z" />
    <glyph glyph-name="T" unicode="T" horiz-adv-x="609" 
d="M322 126v-17c0 -70 6 -84 56 -84c18 0 35 2 49 2c13 0 22 -7 22 -13c0 -8 -7 -14 -20 -14c-21 0 -62 9 -123 9s-103 -9 -124 -9c-13 0 -20 6 -20 14c0 7 9 13 28 13c8 0 22 -2 43 -2c55 0 56 18 56 101v483c0 30 -13 33 -63 33h-37h-22c-85 0 -97 -3 -97 -94
c0 -51 4 -90 4 -116c0 -15 -6 -22 -15 -22c-10 0 -15 8 -15 25c0 13 4 48 4 103c0 47 -4 80 -4 100c0 21 5 27 36 27c10 0 84 -5 226 -5s215 5 225 5c31 0 36 -6 36 -27c0 -20 -4 -53 -4 -100c0 -55 4 -90 4 -103c0 -17 -5 -25 -15 -25c-9 0 -15 7 -15 22c0 26 4 65 4 116
c0 89 -12 94 -94 94h-32h-34c-46 0 -59 -3 -59 -33v-483z" />
    <glyph glyph-name="U" unicode="U" horiz-adv-x="731" 
d="M128 200v341c0 83 0 101 -56 101c-18 0 -34 -2 -48 -2c-13 0 -22 7 -22 13c0 8 6 14 19 14c21 0 63 -10 124 -10s102 10 123 10c13 0 20 -6 20 -14c0 -7 -9 -13 -28 -13c-8 0 -22 2 -43 2c-55 0 -56 -18 -56 -101v-342c0 -129 63 -192 202 -192c134 0 208 66 208 192v342
c0 83 -2 101 -57 101c-18 0 -34 -2 -48 -2c-13 0 -22 7 -22 13c0 8 6 14 19 14c21 0 63 -10 124 -10s102 10 123 10c13 0 20 -6 20 -14c0 -7 -9 -13 -28 -13c-8 0 -22 2 -43 2c-56 0 -56 -19 -56 -101v-341c0 -141 -82 -214 -233 -214c-175 0 -242 68 -242 214z" />
    <glyph glyph-name="V" unicode="V" horiz-adv-x="633" 
d="M86 589c-13 37 -32 46 -65 46c-13 0 -22 -1 -27 -1c-17 0 -26 7 -26 15s7 15 19 15c7 0 38 -7 95 -7c80 0 122 9 130 9c10 0 17 -7 17 -14c0 -10 -7 -15 -22 -15c-12 0 -27 2 -47 2c-30 0 -44 -8 -44 -26c0 -7 0 -14 2 -19l202 -565l201 566c4 10 5 16 5 19
c0 19 -14 26 -46 26c-20 0 -37 -2 -49 -2c-15 0 -22 5 -22 15c0 7 7 14 17 14c8 0 51 -9 132 -9c58 0 89 6 96 6c11 0 17 -6 17 -14c0 -9 -8 -15 -24 -15c-6 0 -14 1 -24 1c-37 0 -57 -7 -71 -46l-209 -587c-5 -14 -10 -17 -24 -17c-15 0 -20 5 -25 19z" />
    <glyph glyph-name="W" unicode="W" horiz-adv-x="840" 
d="M224 12l-130 581c-8 35 -25 45 -62 45c-7 0 -14 -1 -21 -1c-14 0 -21 5 -21 15c0 7 6 13 18 13c7 0 38 -5 94 -5c70 0 111 8 125 8c9 0 17 -7 17 -13c0 -10 -7 -15 -22 -15c-11 0 -28 2 -51 2c-32 0 -47 -10 -47 -35c0 -5 1 -10 2 -16l124 -554l144 606c3 13 13 22 26 22
c15 0 25 -8 28 -22l142 -606l122 563v9c0 26 -15 33 -54 33c-23 0 -38 -2 -45 -2c-13 0 -20 5 -20 14c0 8 9 15 23 15c10 0 46 -9 109 -9c61 0 93 6 100 6c10 0 19 -8 19 -14c0 -9 -8 -15 -23 -15h-30c-26 0 -39 -6 -46 -36l-131 -589c-4 -18 -9 -26 -25 -26s-20 8 -24 26
l-145 618l-146 -618c-4 -18 -9 -26 -25 -26c-14 0 -21 8 -25 26z" />
    <glyph glyph-name="X" unicode="X" horiz-adv-x="713" 
d="M584 78c24 -32 39 -53 75 -53c19 0 33 2 42 2c17 0 26 -7 26 -13c0 -8 -7 -14 -20 -14c-22 0 -63 9 -123 9c-41 0 -79 -9 -108 -9c-13 0 -20 6 -20 14c0 6 9 13 26 13c21 0 46 -5 71 -5c13 0 19 5 19 13c0 5 -6 19 -18 35l-199 258l-202 -261c-9 -11 -16 -19 -16 -29
c0 -13 11 -15 32 -15c1 0 6 1 13 1c17 0 35 3 52 3s26 -7 26 -13c0 -8 -7 -14 -20 -14c-25 0 -64 9 -117 9c-51 0 -90 -9 -115 -9c-13 0 -20 6 -20 14c0 7 10 13 28 13c17 0 30 -3 39 -3c33 0 45 21 72 57l212 276l-179 231c-26 34 -44 54 -74 54c-18 0 -32 -2 -42 -2
c-17 0 -26 7 -26 13c0 8 6 14 19 14c22 0 64 -10 124 -10c41 0 79 10 108 10c13 0 19 -6 19 -14c0 -6 -9 -13 -26 -13c-21 0 -44 5 -70 5c-13 0 -20 -6 -20 -14c0 -5 6 -18 18 -34l166 -217l166 220c8 11 15 19 15 29c0 13 -11 14 -32 14h-13c-17 0 -35 -3 -52 -3
s-26 7 -26 13c0 8 7 14 20 14c25 0 64 -10 117 -10c51 0 90 10 115 10c13 0 20 -6 20 -14c0 -7 -9 -13 -27 -13c-17 0 -31 3 -40 3c-34 0 -45 -22 -72 -57l-177 -228z" />
    <glyph glyph-name="Y" unicode="Y" horiz-adv-x="603" 
d="M94 588c-20 31 -31 53 -61 53c-11 0 -23 -1 -35 -1c-13 0 -22 7 -22 13c0 8 7 14 19 14c11 0 48 -8 108 -8c46 0 85 8 109 8c13 0 19 -6 19 -14c0 -7 -9 -13 -27 -13c-21 0 -44 4 -70 4c-15 0 -23 -7 -23 -16c0 -8 6 -18 14 -31l181 -292l180 291c9 14 13 25 13 31
c0 13 -10 17 -29 17c-25 0 -48 -4 -66 -4c-16 0 -25 7 -25 13c0 8 6 14 19 14c15 0 49 -7 102 -7c75 0 111 7 118 7c12 0 19 -6 19 -14c0 -6 -9 -13 -24 -13c-9 0 -19 2 -32 2c-29 0 -42 -17 -66 -56l-193 -310v-150v-17c0 -70 6 -84 56 -84c18 0 35 2 49 2
c13 0 22 -7 22 -13c0 -8 -7 -14 -20 -14c-21 0 -62 9 -123 9s-103 -9 -124 -9c-13 0 -19 6 -19 14c0 7 9 13 28 13c8 0 21 -2 42 -2c55 0 56 18 56 101v150z" />
    <glyph glyph-name="Z" unicode="Z" horiz-adv-x="547" 
d="M50 21h378h15c35 0 35 26 35 93c0 71 -5 108 -5 114c0 15 10 28 16 28c7 0 17 -12 17 -26c0 -7 -8 -54 -8 -149c0 -5 1 -20 1 -46c0 -27 -3 -35 -38 -35h-396c-33 0 -51 0 -51 14s8 25 17 37l444 595h-360c-46 0 -46 -8 -46 -95c0 -51 3 -79 3 -84c0 -10 -9 -20 -15 -20
c-7 0 -15 10 -15 19c0 7 6 46 6 122v54c0 20 7 25 41 25h372c32 0 49 -2 49 -16c0 -10 -5 -21 -16 -35z" />
    <glyph glyph-name="bracketleft" unicode="[" horiz-adv-x="382" 
d="M106 -85c0 -81 0 -92 78 -92c61 0 98 6 112 6c17 0 26 -7 26 -14s-8 -14 -25 -14c-6 0 -38 2 -95 2c-37 0 -69 -1 -98 -1c-24 0 -30 9 -30 33v798c0 25 6 33 31 33c27 0 59 -2 97 -2c57 0 89 2 95 2c17 0 25 -7 25 -14s-9 -14 -26 -14c-14 0 -51 7 -112 7
c-78 0 -78 -11 -78 -92v-638z" />
    <glyph glyph-name="backslash" unicode="\" horiz-adv-x="273" 
d="M319 -72c2 -5 4 -8 4 -11c0 -6 -5 -9 -15 -9c-12 0 -16 5 -22 18l-308 735c-2 5 -3 7 -3 10c0 6 5 10 15 10c12 0 15 -5 21 -19z" />
    <glyph glyph-name="bracketright" unicode="]" horiz-adv-x="382" 
d="M266 553c0 81 0 92 -78 92c-61 0 -98 -7 -112 -7c-17 0 -26 7 -26 14s9 14 26 14c6 0 37 -2 94 -2c37 0 70 2 99 2c24 0 29 -9 29 -33v-798c0 -25 -6 -33 -31 -33c-27 0 -59 1 -97 1c-57 0 -88 -2 -94 -2c-17 0 -26 7 -26 14s9 14 26 14c14 0 51 -6 112 -6
c78 0 78 11 78 92v638z" />
    <glyph glyph-name="asciicircum" unicode="^" horiz-adv-x="1000" 
d="M475 711h48l268 -270h-53l-238 236l-239 -236h-53z" />
    <glyph glyph-name="underscore" unicode="_" 
d="M0 -206h500v-30h-500v30z" />
    <glyph glyph-name="quoteleft" unicode="&#x2018;" horiz-adv-x="312" 
d="M150 512c5 0 14 3 25 3c23 0 37 -19 37 -40c0 -32 -20 -51 -52 -51c-40 0 -63 29 -63 84c0 94 63 193 87 193c6 0 10 -5 10 -12c0 -13 -65 -69 -65 -155c0 -15 7 -22 21 -22z" />
    <glyph glyph-name="a" unicode="a" horiz-adv-x="536" 
d="M375 95c-36 -69 -107 -109 -192 -109c-97 0 -161 57 -161 133c0 84 57 137 158 143c71 4 120 2 149 16c30 15 45 42 45 80c0 72 -49 109 -145 109c-84 0 -147 -40 -147 -91c0 -12 7 -18 12 -18c4 0 9 24 33 24c23 0 34 -11 34 -33c0 -24 -19 -39 -52 -39
c-32 0 -53 24 -53 60c0 63 70 117 174 117c126 0 175 -48 175 -150v-244v-28c0 -37 17 -57 46 -57c49 0 55 40 55 108c0 4 -1 8 -1 12c0 14 4 20 11 20c9 0 13 -6 13 -20c0 -90 -9 -142 -79 -142c-51 0 -75 32 -75 97v12zM375 206v85c-36 -42 -79 -45 -142 -49
c-116 -7 -179 -32 -179 -122c0 -65 54 -112 137 -112c106 0 184 68 184 198z" />
    <glyph glyph-name="b" unicode="b" horiz-adv-x="539" 
d="M120 187c0 -116 65 -180 162 -180c107 0 176 83 176 226c0 152 -66 233 -178 233c-96 0 -160 -64 -160 -186v-93zM90 37v506v15c0 62 -2 87 -49 87c-20 0 -36 -3 -46 -3c-14 0 -22 7 -22 14s7 13 19 13c8 0 22 -3 45 -3c22 0 41 4 56 4c23 0 25 -12 25 -42v-236
c38 63 94 95 167 95c124 0 206 -93 206 -254c0 -155 -85 -248 -208 -248c-76 0 -136 38 -165 106v-56c0 -20 -2 -33 -15 -33c-12 0 -13 11 -13 27v8z" />
    <glyph glyph-name="c" unicode="c" horiz-adv-x="472" 
d="M434 167c7 0 14 -8 14 -21c0 -80 -71 -160 -195 -160c-133 0 -219 92 -219 239c0 164 93 264 231 264c105 0 178 -64 178 -144c0 -43 -27 -69 -61 -69c-27 0 -42 12 -42 33c0 17 13 29 31 29c21 0 29 -13 34 -13c4 0 10 12 10 28c0 59 -62 115 -151 115
c-118 0 -197 -90 -197 -237c0 -145 69 -224 193 -224c78 0 137 43 153 99c7 26 5 61 21 61z" />
    <glyph glyph-name="d" unicode="d" horiz-adv-x="530" 
d="M406 540v15c0 62 -2 87 -49 87c-21 0 -36 -3 -45 -3c-14 0 -22 7 -22 14s7 14 19 14c9 0 22 -4 43 -4c22 0 41 5 56 5c25 0 27 -10 27 -42v-500v-14c0 -67 2 -88 54 -88c26 0 46 3 57 3c14 0 22 -7 22 -14s-7 -13 -19 -13c-9 0 -27 4 -54 4s-48 -5 -62 -5
c-25 0 -27 10 -27 42v50c-34 -72 -88 -106 -171 -106c-120 0 -202 91 -202 250c0 160 83 252 206 252c73 0 127 -31 167 -95v148zM406 169v111c0 117 -66 186 -162 186c-112 0 -178 -81 -178 -233c0 -143 69 -226 176 -226c98 0 164 75 164 162z" />
    <glyph glyph-name="e" unicode="e" horiz-adv-x="492" 
d="M66 252c0 -12 -1 -19 -1 -21c0 -143 73 -224 180 -224c79 0 137 43 153 99c7 26 5 61 21 61c7 0 13 -8 13 -21c0 -79 -73 -160 -188 -160c-127 0 -211 92 -211 251c0 151 89 251 207 251c121 0 201 -88 201 -202c0 -32 -10 -34 -44 -34h-331zM66 275h346
c-2 117 -69 190 -169 190c-98 0 -162 -67 -177 -190z" />
    <glyph glyph-name="f" unicode="f" horiz-adv-x="359" 
d="M170 475h70c33 0 51 2 55 2c11 0 17 -4 17 -13c0 -7 -7 -12 -20 -12c-8 0 -25 1 -52 1h-70v-327v-14c0 -65 1 -88 50 -88c23 0 40 3 49 3c14 0 21 -7 21 -14s-6 -13 -18 -13c-15 0 -53 8 -116 8c-65 0 -103 -8 -118 -8c-12 0 -19 6 -19 13s8 14 22 14c9 0 25 -3 48 -3
c50 0 51 26 51 94v8v328h-28c-33 0 -51 -2 -55 -2c-11 0 -17 4 -17 13c0 7 7 12 20 12c8 0 25 -2 52 -2h28c-1 9 -1 17 -1 26c0 108 54 166 145 166c74 0 118 -31 118 -75c0 -25 -14 -39 -39 -39c-23 0 -35 12 -35 32c0 30 34 24 34 30c0 17 -31 31 -75 31
c-80 0 -119 -46 -119 -137c0 -11 1 -22 2 -34z" />
    <glyph glyph-name="g" unicode="g" horiz-adv-x="558" 
d="M114 97c-54 9 -82 37 -82 79c0 41 28 72 69 77c-12 25 -17 50 -17 76c0 90 72 157 169 157c46 0 83 -10 114 -32c-1 7 -1 13 -1 19c0 52 33 84 83 84s84 -30 84 -71c0 -28 -16 -45 -46 -45c-19 0 -31 10 -31 34c0 9 14 23 28 23c5 0 9 -1 13 -1c1 0 2 2 2 3
c0 21 -19 35 -47 35c-36 0 -61 -28 -61 -64s41 -82 41 -152c0 -81 -70 -148 -174 -148c-101 0 -122 57 -155 57c-24 0 -44 -20 -44 -50c0 -21 17 -45 44 -56c36 -14 101 -8 193 -13c138 -7 207 -54 207 -138c0 -97 -90 -152 -255 -152c-160 0 -245 59 -245 148
c0 60 37 103 111 130zM117 326c0 -77 57 -134 142 -134c84 0 140 54 140 134c0 84 -56 139 -140 139c-85 0 -142 -58 -142 -139zM35 -35c0 -74 76 -126 212 -126c144 0 223 52 223 130c0 81 -80 121 -239 121c-128 0 -196 -47 -196 -125z" />
    <glyph glyph-name="h" unicode="h" horiz-adv-x="660" 
d="M140 126v414v15c0 62 -2 87 -49 87c-21 0 -37 -3 -46 -3c-14 0 -22 7 -22 14s7 14 19 14c11 0 25 -4 44 -4c23 0 41 5 55 5c25 0 27 -10 27 -42v-237c41 69 99 100 184 100c68 0 121 -22 154 -61c31 -36 32 -82 32 -147v-155v-14c0 -65 1 -88 50 -88c23 0 39 3 48 3
c14 0 22 -7 22 -14s-6 -13 -18 -13c-15 0 -53 8 -118 8c-63 0 -101 -8 -116 -8c-12 0 -19 6 -19 13s8 14 22 14c9 0 25 -3 48 -3c50 0 51 26 51 94v8v202c0 89 -59 140 -161 140c-131 0 -177 -76 -177 -220v-122v-14c0 -65 1 -88 50 -88c23 0 40 3 49 3c14 0 21 -7 21 -14
s-6 -13 -18 -13c-15 0 -53 8 -116 8c-65 0 -103 -8 -118 -8c-12 0 -19 6 -19 13s8 14 22 14c9 0 25 -3 48 -3c50 0 51 26 51 94v8z" />
    <glyph glyph-name="i" unicode="i" horiz-adv-x="301" 
d="M144 126v225v15c0 62 -2 87 -49 87c-20 0 -35 -3 -45 -3c-14 0 -22 7 -22 14s7 13 19 13c11 0 25 -3 42 -3c23 0 42 4 58 4c27 0 28 -13 28 -41v-311v-14c0 -65 1 -88 50 -88c23 0 39 3 48 3c14 0 22 -7 22 -14s-7 -13 -19 -13c-15 0 -53 8 -116 8c-65 0 -102 -8 -117 -8
c-12 0 -19 6 -19 13s8 14 22 14c9 0 25 -3 48 -3c48 0 50 24 50 87v15zM101 569c0 20 17 37 37 37s35 -16 35 -37c0 -20 -15 -35 -35 -35s-37 16 -37 35z" />
    <glyph glyph-name="j" unicode="j" horiz-adv-x="288" 
d="M96 569c0 20 17 37 37 37s35 -16 35 -37c0 -20 -15 -35 -35 -35s-37 16 -37 35zM140 -25v376v15c0 62 -2 87 -49 87c-20 0 -36 -3 -46 -3c-14 0 -22 7 -22 14s7 13 19 13c11 0 24 -3 42 -3c22 0 41 4 58 4c26 0 28 -9 28 -41v-447c0 -117 -39 -177 -159 -177
c-81 0 -129 35 -129 85c0 28 17 48 46 48c19 0 35 -14 35 -32c0 -38 -41 -26 -41 -36c0 -23 32 -45 85 -45c95 0 133 47 133 142z" />
    <glyph glyph-name="k" unicode="k" horiz-adv-x="645" 
d="M170 126v-14c0 -65 1 -88 50 -88c23 0 40 3 49 3c14 0 21 -7 21 -14s-6 -13 -18 -13c-15 0 -53 8 -116 8c-65 0 -103 -8 -118 -8c-12 0 -19 6 -19 13s8 14 22 14c9 0 25 -3 48 -3c50 0 51 26 51 94v8v414v15c0 62 -2 87 -49 87c-20 0 -36 -3 -46 -3c-14 0 -22 7 -22 14
s7 14 19 14c11 0 24 -4 42 -4c22 0 41 5 58 5c26 0 28 -10 28 -42v-411l221 195c17 15 26 23 26 29c0 8 -7 14 -23 14c-19 0 -34 -3 -44 -3c-14 0 -22 7 -22 14s6 13 18 13c15 0 51 -8 111 -8c63 0 98 8 110 8c11 0 18 -6 18 -13s-7 -14 -21 -14c-7 0 -26 3 -56 3
c-19 0 -37 -8 -56 -25l-144 -128l176 -235c24 -32 40 -41 66 -41c20 0 34 3 43 3c14 0 22 -7 22 -14s-7 -13 -18 -13c-12 0 -48 8 -111 8c-60 0 -95 -8 -110 -8c-12 0 -19 6 -19 13s8 14 22 14c10 0 23 -3 39 -3c25 0 39 8 39 19c0 6 -3 17 -10 26l-160 213l-117 -101v-55z
" />
    <glyph glyph-name="l" unicode="l" horiz-adv-x="301" 
d="M144 126v417v15c0 62 -2 87 -49 87c-20 0 -35 -3 -45 -3c-14 0 -22 7 -22 14s7 13 19 13c11 0 25 -4 42 -4c23 0 42 5 58 5c27 0 28 -14 28 -42v-502v-14c0 -65 1 -88 50 -88c23 0 39 3 48 3c14 0 22 -7 22 -14s-7 -13 -19 -13c-15 0 -53 8 -116 8c-65 0 -102 -8 -117 -8
c-12 0 -19 6 -19 13s8 14 22 14c9 0 25 -3 48 -3c48 0 50 24 50 87v15z" />
    <glyph glyph-name="m" unicode="m" horiz-adv-x="934" 
d="M484 387c31 66 87 101 161 101c140 0 171 -73 171 -207v-155v-14c0 -63 2 -88 50 -88c18 0 32 3 42 3c14 0 21 -7 21 -14s-6 -13 -18 -13c-15 0 -51 8 -111 8c-56 0 -89 -8 -105 -8c-12 0 -19 6 -19 13s8 14 22 14c11 0 23 -3 39 -3c47 0 49 27 49 87v15v202
c0 91 -51 140 -136 140c-126 0 -156 -80 -156 -220v-122v-14c0 -63 1 -88 49 -88c19 0 33 3 43 3c14 0 22 -7 22 -14s-7 -13 -19 -13c-15 0 -50 8 -111 8c-56 0 -91 -8 -107 -8c-12 0 -18 6 -18 13s7 14 21 14c10 0 23 -3 40 -3c47 0 49 26 49 87v15v202
c0 92 -49 140 -139 140c-117 0 -154 -76 -154 -220v-122v-14c0 -63 1 -88 49 -88c18 0 33 3 43 3c14 0 21 -7 21 -14s-6 -13 -18 -13c-16 0 -51 8 -109 8c-65 0 -103 -8 -118 -8c-12 0 -19 6 -19 13s8 14 22 14c9 0 25 -3 48 -3c50 0 51 26 51 94v8v225v15
c0 62 -2 87 -49 87c-20 0 -36 -3 -46 -3c-14 0 -22 7 -22 14s7 13 19 13c11 0 25 -3 42 -3c22 0 41 4 57 4c24 0 28 -8 28 -41v-48c30 64 86 99 153 99c87 0 141 -34 162 -101z" />
    <glyph glyph-name="n" unicode="n" horiz-adv-x="660" 
d="M140 126v225v15c0 62 -2 87 -49 87c-20 0 -36 -3 -46 -3c-14 0 -22 7 -22 14s7 13 19 13c11 0 25 -3 42 -3c22 0 41 4 57 4c25 0 27 -9 27 -41v-48c41 69 99 100 184 100c68 0 121 -22 154 -61c31 -36 32 -82 32 -147v-155v-14c0 -65 1 -88 50 -88c23 0 39 3 48 3
c14 0 22 -7 22 -14s-6 -13 -18 -13c-15 0 -53 8 -118 8c-63 0 -101 -8 -116 -8c-12 0 -19 6 -19 13s8 14 22 14c9 0 25 -3 48 -3c50 0 51 26 51 94v8v202c0 89 -59 140 -161 140c-131 0 -177 -76 -177 -220v-122v-14c0 -65 1 -88 50 -88c23 0 40 3 49 3c14 0 21 -7 21 -14
s-6 -13 -18 -13c-15 0 -53 8 -116 8c-65 0 -103 -8 -118 -8c-12 0 -19 6 -19 13s8 14 22 14c9 0 25 -3 48 -3c50 0 51 26 51 94v8z" />
    <glyph glyph-name="o" unicode="o" horiz-adv-x="539" 
d="M35 237c0 152 89 251 234 251c146 0 235 -97 235 -251s-88 -251 -236 -251c-143 0 -233 98 -233 251zM68 237c0 -146 73 -228 202 -228c128 0 201 84 201 228s-76 228 -201 228c-128 0 -202 -84 -202 -228z" />
    <glyph glyph-name="p" unicode="p" horiz-adv-x="552" 
d="M145 -59v-14c0 -65 2 -88 51 -88c23 0 39 3 48 3c14 0 22 -7 22 -14s-7 -14 -19 -14c-15 0 -53 9 -116 9c-65 0 -103 -9 -118 -9c-12 0 -18 7 -18 14s8 14 22 14c9 0 25 -3 48 -3c48 0 50 24 50 87v15v410v15c0 62 -2 87 -49 87c-20 0 -35 -3 -45 -3c-14 0 -22 7 -22 14
s6 13 18 13c11 0 26 -3 43 -3c22 0 40 4 56 4c25 0 28 -9 28 -41v-55c31 69 89 106 167 106c127 0 206 -92 206 -250c0 -160 -82 -252 -206 -252c-73 0 -131 33 -166 95v-140zM145 279v-86c0 -121 66 -186 161 -186c112 0 178 81 178 233c0 143 -69 226 -176 226
c-99 0 -163 -63 -163 -187z" />
    <glyph glyph-name="q" unicode="q" horiz-adv-x="556" 
d="M429 287c0 116 -65 179 -162 179c-107 0 -176 -82 -176 -225c0 -152 66 -234 178 -234c95 0 160 65 160 187v93zM431 460c0 20 2 32 15 32c12 0 13 -11 13 -27v-8v-519v-13c0 -65 1 -89 50 -89c23 0 40 3 49 3c14 0 21 -7 21 -14s-6 -13 -18 -13c-15 0 -53 9 -116 9
c-65 0 -103 -9 -118 -9c-12 0 -18 6 -18 13s7 14 21 14c9 0 25 -3 48 -3c50 0 51 26 51 94v8v143c-32 -60 -91 -95 -165 -95c-124 0 -206 93 -206 255c0 155 85 247 208 247c76 0 136 -38 165 -106v78z" />
    <glyph glyph-name="r" unicode="r" horiz-adv-x="475" 
d="M168 411c34 52 78 78 136 78c76 0 125 -45 125 -117c0 -47 -23 -74 -62 -74c-19 0 -32 11 -32 31c0 19 11 31 30 31c12 0 18 -7 26 -7c7 0 11 8 11 26c0 50 -37 88 -104 88c-70 0 -128 -53 -128 -142v-199v-14c0 -65 1 -88 50 -88c23 0 40 3 49 3c14 0 21 -7 21 -14
s-6 -13 -18 -13c-15 0 -53 8 -116 8c-65 0 -103 -8 -118 -8c-12 0 -19 6 -19 13s8 14 22 14c9 0 25 -3 48 -3c50 0 51 26 51 94v8v225v15c0 62 -2 87 -49 87c-20 0 -36 -3 -46 -3c-14 0 -22 7 -22 14s7 13 19 13c11 0 25 -3 42 -3c22 0 41 4 57 4c25 0 27 -9 27 -41v-26z
" />
    <glyph glyph-name="s" unicode="s" horiz-adv-x="447" 
d="M68 64c2 -22 3 -36 3 -43c0 -19 -8 -30 -15 -30c-6 0 -13 9 -13 19c0 11 5 31 5 64c0 55 -7 97 -7 122c0 17 6 24 12 24c8 0 15 -8 15 -22c0 -54 0 -93 26 -129c29 -40 76 -62 139 -62c90 0 149 52 149 117c0 74 -54 97 -158 106c-111 10 -170 34 -170 118
c0 77 64 141 168 141c63 0 105 -22 142 -73c-1 25 -3 40 -3 45c0 15 6 23 13 23c6 0 13 -9 13 -25c0 -17 -6 -40 -6 -71c0 -43 7 -71 7 -83c0 -9 -6 -16 -12 -16c-7 0 -14 8 -14 15s2 13 2 21c0 89 -63 146 -145 146c-80 0 -137 -54 -137 -119c0 -73 53 -85 153 -94
c117 -11 177 -39 177 -126c0 -82 -70 -146 -188 -146c-65 0 -119 27 -156 78z" />
    <glyph glyph-name="t" unicode="t" horiz-adv-x="402" 
d="M145 131c0 -85 22 -125 82 -125c74 0 89 47 89 145c0 11 -1 22 -1 31c0 18 7 28 13 28c9 0 14 -8 14 -25s1 -30 1 -37v-36c0 -84 -41 -127 -115 -127c-84 0 -113 48 -113 146v286c0 27 -2 31 -28 31h-24c-28 0 -43 0 -43 11c0 10 10 11 31 11h12h24c31 0 32 1 32 91
c0 18 6 27 14 27c9 0 12 -9 12 -27v-16v-45v-3c0 -26 3 -27 23 -27h5h65c28 0 43 0 43 -11c0 -10 -10 -11 -31 -11h-12h-65c-26 0 -28 -4 -28 -31v-286z" />
    <glyph glyph-name="u" unicode="u" horiz-adv-x="641" 
d="M129 193v157v15c0 62 -2 87 -49 87c-20 0 -36 -2 -46 -2c-14 0 -21 6 -21 13s6 14 18 14c11 0 25 -4 43 -4c22 0 41 5 59 5c26 0 26 -13 26 -42v-289c0 -87 56 -141 151 -141c123 0 164 76 164 221v123v15c0 62 -2 87 -49 87c-20 0 -35 -2 -45 -2c-14 0 -22 6 -22 13
s6 14 18 14c11 0 25 -4 43 -4c22 0 40 5 57 5c24 0 28 -9 28 -42v-310c0 -77 4 -102 51 -102c21 0 37 3 46 3c14 0 22 -7 22 -14s-7 -13 -19 -13c-11 0 -25 4 -42 4c-22 0 -41 -5 -57 -5c-25 0 -27 10 -27 42v44c-37 -68 -92 -99 -171 -99c-65 0 -116 21 -145 57
c-32 39 -33 85 -33 150z" />
    <glyph glyph-name="v" unicode="v" horiz-adv-x="506" 
d="M253 21l157 404c2 4 2 7 2 10c0 13 -10 19 -31 19c-28 0 -46 -2 -56 -2c-13 0 -19 6 -19 13c0 6 9 12 22 12c27 0 61 -8 95 -8c38 0 65 7 82 7c15 0 23 -6 23 -12c0 -7 -9 -13 -22 -13c-12 0 -19 1 -21 1c-30 0 -38 -6 -48 -32l-161 -416c-5 -13 -11 -19 -23 -19
c-10 0 -19 7 -23 19l-161 416c-8 21 -13 29 -37 31c-28 3 -54 -2 -54 13c0 7 7 13 19 13c15 0 43 -8 87 -8c39 0 73 9 98 9c10 0 20 -8 20 -13c0 -6 -10 -13 -20 -13c-5 0 -23 2 -57 2c-21 0 -31 -5 -31 -19c0 -3 0 -6 2 -10z" />
    <glyph glyph-name="w" unicode="w" horiz-adv-x="727" 
d="M363 431l-128 -420c-5 -17 -14 -25 -25 -25c-14 0 -21 8 -26 25l-108 413c-5 21 -19 28 -54 28c-5 0 -10 -1 -16 -1c-13 0 -19 4 -19 12c0 6 7 12 20 12c15 0 45 -6 88 -6c55 0 92 7 110 7c9 0 18 -7 18 -12c0 -8 -7 -14 -20 -14c-6 0 -19 2 -41 2c-40 0 -55 0 -55 -26
c0 -10 3 -19 5 -29l97 -373l131 426c5 15 11 22 22 22c12 0 18 -7 23 -22l131 -426l98 373c2 10 4 19 4 29c0 26 -15 26 -55 26c-22 0 -35 -2 -41 -2c-13 0 -19 6 -19 14c0 5 8 12 17 12c18 0 55 -7 110 -7c43 0 74 6 89 6c13 0 19 -6 19 -12c0 -8 -6 -12 -19 -12
c-6 0 -11 1 -16 1c-35 0 -49 -7 -54 -28l-108 -413c-5 -17 -12 -25 -26 -25c-11 0 -19 8 -24 25z" />
    <glyph glyph-name="x" unicode="x" horiz-adv-x="541" 
d="M273 277l116 140c5 6 8 12 8 19c0 12 -10 17 -29 17c-26 0 -42 -1 -46 -1c-16 0 -24 6 -24 14c0 6 10 12 20 12c22 0 57 -8 103 -8c48 0 78 8 90 8c9 0 17 -6 17 -13c0 -6 -8 -13 -24 -13c-5 0 -13 1 -26 1c-14 0 -34 -11 -44 -23l-142 -176l164 -197
c17 -20 29 -31 52 -31c9 0 20 3 33 3c9 0 19 -8 19 -15s-9 -15 -18 -15c-13 0 -45 6 -94 6c-68 0 -103 -7 -109 -7c-10 0 -19 7 -19 14s9 15 27 15c15 0 36 -2 62 -2c15 0 22 3 22 13c0 4 -2 7 -6 11l-151 183l-151 -181c-4 -4 -6 -8 -6 -12c0 -11 8 -14 24 -14
c27 0 47 3 60 3c17 0 27 -8 27 -15s-9 -14 -19 -14c-6 0 -41 7 -110 7c-47 0 -79 -6 -92 -6c-9 0 -19 8 -19 15s10 15 19 15c12 0 23 -3 33 -3c22 0 37 9 54 30l162 198l-144 175c-14 17 -26 23 -46 23c-9 0 -17 -1 -22 -1c-16 0 -24 7 -24 13s9 14 19 14c7 0 39 -8 97 -8
c39 0 74 8 97 8c9 0 17 -6 17 -11c0 -10 -8 -15 -24 -15c-3 0 -18 1 -46 1c-20 0 -30 -5 -30 -15c0 -5 3 -13 8 -20z" />
    <glyph glyph-name="y" unicode="y" horiz-adv-x="522" 
d="M269 26l152 399c2 4 3 7 3 10c0 14 -12 19 -33 19c-36 0 -54 -3 -59 -3c-9 0 -18 8 -18 14s9 13 17 13c16 0 55 -8 117 -8c48 0 75 7 81 7c11 0 21 -7 21 -13s-11 -13 -31 -13c-10 0 -16 1 -19 1c-27 0 -35 -10 -44 -32l-172 -437c-46 -115 -104 -171 -188 -171
c-74 0 -123 47 -123 100c0 35 18 57 46 57c22 0 35 -12 35 -32c0 -18 -14 -32 -32 -32c-4 0 -9 2 -13 2c-3 0 -3 -3 -3 -7c0 -31 36 -67 90 -67c46 0 80 19 110 58s44 79 44 96c0 5 -1 9 -3 14l-166 419c-10 24 -18 32 -47 32c-2 0 -9 -1 -23 -1c-15 0 -23 7 -23 13
c0 7 7 13 17 13c5 0 35 -7 93 -7c51 0 87 8 107 8c10 0 21 -8 21 -13c0 -6 -10 -13 -21 -13c-15 0 -24 1 -26 1c-11 0 -22 1 -33 1c-21 0 -32 -5 -32 -19c0 -3 0 -6 2 -10z" />
    <glyph glyph-name="z" unicode="z" horiz-adv-x="497" 
d="M61 28h305c45 0 59 3 59 59c0 47 -5 80 -5 96c0 8 8 17 13 17c8 0 14 -8 14 -21c0 -6 -3 -27 -3 -62c0 -29 4 -54 4 -76c0 -38 -15 -41 -69 -41h-298c-34 0 -55 0 -55 22c0 14 13 27 32 47l354 382h-287c-34 0 -54 -4 -54 -38c0 -58 4 -90 4 -97c0 -8 -8 -16 -13 -16
c-8 0 -13 7 -13 19c0 7 2 18 2 35c0 33 -4 64 -4 91c0 30 13 32 46 32h19h279c38 0 55 -3 55 -20c0 -13 -11 -26 -30 -47z" />
    <glyph glyph-name="braceleft" unicode="{" 
d="M412 721v-34h-18c-98 0 -116 -34 -116 -134v-118c0 -100 -14 -151 -94 -176c80 -25 94 -76 94 -176v-118c0 -100 18 -134 116 -134h18v-33h-16c-132 0 -158 49 -158 186v116c0 103 -32 142 -128 142c-7 0 -14 -1 -22 -1v36c9 -1 17 -1 25 -1c93 0 125 40 125 142v116
c0 138 26 187 158 187h16z" />
    <glyph glyph-name="bar" unicode="|" 
d="M232 764h36v-1000h-36v1000z" />
    <glyph glyph-name="braceright" unicode="}" 
d="M89 721h16c131 0 157 -49 157 -187v-116c0 -102 32 -142 126 -142c8 0 16 0 25 1v-36c-8 0 -15 1 -22 1c-96 0 -129 -39 -129 -142v-116c0 -137 -26 -186 -157 -186h-16v34h19c97 0 114 32 114 133v118c0 100 15 151 95 176c-80 25 -95 76 -95 176v118
c0 101 -17 134 -115 134h-18v34z" />
    <glyph glyph-name="asciitilde" unicode="~" horiz-adv-x="833" 
d="M747 356v-35c-68 -48 -131 -73 -189 -73c-54 0 -98 17 -141 33c-49 18 -93 37 -141 37c-59 0 -117 -29 -189 -79v36c66 48 129 73 189 73c29 0 60 -7 94 -19c67 -23 125 -51 188 -51c58 0 117 28 189 78z" />
    <glyph glyph-name="exclamdown" unicode="&#xa1;" horiz-adv-x="312" 
d="M170 496l2 -487c0 -18 -4 -23 -16 -23c-13 0 -16 3 -16 23l2 487v5c0 17 3 25 13 25s15 -6 15 -17v-13zM203 622c0 -27 -20 -47 -47 -47c-26 0 -47 20 -47 47c0 25 21 46 47 46s47 -21 47 -46z" />
    <glyph glyph-name="cent" unicode="&#xa2;" horiz-adv-x="625" 
d="M348 539v-411c49 2 87 19 112 50c33 40 19 91 39 91c8 0 13 -5 13 -16c0 -29 -16 -71 -45 -98c-28 -27 -69 -43 -119 -46v-84c0 -15 -4 -22 -14 -22c-11 0 -11 9 -11 22v84c-123 8 -193 88 -193 220c0 130 76 220 193 229v84c0 14 0 22 12 22s13 -5 13 -14v-8v-83
c98 -4 159 -60 159 -126c0 -38 -22 -65 -56 -65c-26 0 -39 11 -39 30c0 15 11 26 28 26c19 0 27 -12 31 -12s10 10 10 25c0 51 -50 98 -133 102zM323 128v411c-99 -7 -162 -87 -162 -211c0 -125 55 -193 162 -200z" />
    <glyph glyph-name="sterling" unicode="&#xa3;" horiz-adv-x="625" 
d="M276 121c7 21 10 42 10 66c0 53 -18 104 -53 161h-141c-17 0 -27 1 -27 14c0 9 9 13 27 13h125c-21 45 -33 85 -33 125c0 106 74 179 193 179c99 0 171 -62 171 -136c0 -38 -20 -60 -44 -60c-23 0 -35 11 -35 29c0 36 41 16 41 52c0 43 -56 95 -137 95
c-90 0 -157 -63 -157 -159c0 -33 13 -75 38 -125h221h6c13 0 22 -1 22 -13c0 -9 -9 -14 -28 -14h-203c32 -56 48 -107 48 -153c0 -31 -4 -60 -17 -89c85 -55 145 -89 198 -89c64 0 107 54 107 129c0 71 -40 113 -89 113c-32 0 -31 -15 -32 -31c-2 -21 -8 -32 -28 -32
c-18 0 -29 15 -29 32c0 33 26 52 74 52c76 0 137 -52 137 -140c0 -82 -56 -150 -140 -150c-58 0 -122 35 -212 87c-46 -58 -104 -88 -174 -88c-82 0 -135 42 -135 102c0 55 43 96 111 96c62 0 118 -24 185 -66zM264 93c-64 47 -115 73 -167 73c-55 0 -86 -29 -86 -78
c0 -47 41 -79 100 -79c61 0 112 28 153 84z" />
    <glyph glyph-name="fraction" unicode="&#x2044;" horiz-adv-x="167" 
d="M279 656c10 14 15 20 33 20c9 0 14 -2 14 -7c0 -4 -4 -9 -8 -15l-432 -643c-10 -14 -14 -20 -32 -20c-9 0 -14 1 -14 6c0 4 3 9 7 15z" />
    <glyph glyph-name="yen" unicode="&#xa5;" horiz-adv-x="625" 
d="M295 276h-234h-4c-21 0 -32 3 -32 11s12 10 36 10h221l-69 110h-152h-4c-21 0 -32 3 -32 11s12 10 36 10h139l-101 160c-20 31 -31 53 -61 53c-11 0 -22 -1 -34 -1c-13 0 -22 7 -22 13c0 8 7 14 19 14c11 0 48 -8 108 -8c46 0 84 8 108 8c13 0 20 -6 20 -14
s-11 -13 -32 -13c-17 0 -39 4 -65 4c-15 0 -24 -7 -24 -16c0 -8 6 -18 14 -31l182 -292l180 291c9 14 12 25 12 31c0 13 -9 17 -28 17c-25 0 -48 -4 -66 -4c-16 0 -26 7 -26 13c0 8 7 14 20 14c15 0 49 -7 102 -7c75 0 110 7 117 7c12 0 20 -6 20 -14c0 -6 -9 -13 -24 -13
c-9 0 -20 2 -33 2c-29 0 -42 -17 -66 -56l-97 -158h141c24 0 35 -1 35 -10c0 -8 -12 -11 -36 -11h-154l-68 -110h223c24 0 35 -2 35 -11c0 -8 -12 -10 -36 -10h-235v-150v-17c0 -70 6 -84 56 -84c18 0 34 2 48 2c13 0 22 -7 22 -13c0 -8 -6 -14 -19 -14c-21 0 -63 9 -124 9
s-102 -9 -123 -9c-13 0 -20 6 -20 14c0 7 9 13 28 13c8 0 22 -2 43 -2c55 0 56 18 56 101v150z" />
    <glyph glyph-name="florin" unicode="&#x192;" horiz-adv-x="625" 
d="M310 406c43 182 77 271 167 271c51 0 85 -28 85 -64c0 -28 -15 -46 -39 -46c-23 0 -36 12 -36 33c0 33 24 25 24 36c0 8 -13 18 -35 18c-70 0 -94 -80 -130 -248c14 -1 28 -1 41 -1c19 0 32 2 38 2c15 0 23 -7 23 -15s-8 -15 -25 -15c-7 0 -33 4 -82 4l-87 -410
c-22 -105 -65 -154 -137 -154c-51 0 -84 30 -84 72c0 29 19 45 40 45c20 0 35 -13 35 -33c0 -32 -27 -33 -27 -39c0 -9 13 -18 40 -18c47 0 84 47 102 137l81 400c-6 0 -15 -1 -26 -1c-43 0 -63 -3 -67 -3c-9 0 -17 8 -17 14c0 8 7 16 20 16c6 0 20 -3 40 -3c12 0 31 1 56 2
z" />
    <glyph glyph-name="section" unicode="&#xa7;" 
d="M106 -87c1 -27 3 -45 3 -55c0 -8 -7 -17 -15 -17c-7 0 -16 9 -16 18c0 6 6 31 6 78c0 64 -6 97 -6 103c0 18 8 30 13 30c8 0 17 -11 17 -31c0 -14 -2 -25 -2 -34c0 -91 52 -157 136 -157c80 0 130 41 130 107c0 75 -64 111 -167 177c-103 67 -166 104 -166 181
c0 58 37 98 113 133c-37 33 -55 65 -55 105c0 72 57 130 151 130c73 0 117 -25 143 -84c-1 25 -4 42 -4 52c0 8 7 16 14 16s14 -8 14 -17c0 -5 -4 -28 -4 -73c0 -57 5 -82 5 -86c0 -11 -7 -19 -12 -19c-9 0 -14 8 -14 24c0 9 1 15 1 20c0 73 -52 147 -140 147
c-79 0 -123 -43 -123 -109c0 -55 37 -86 111 -130c135 -81 223 -117 223 -201c0 -57 -39 -106 -118 -149c41 -34 62 -73 62 -119c0 -71 -59 -125 -160 -125c-65 0 -105 25 -140 85zM172 434c-55 -23 -98 -61 -98 -118c0 -45 25 -77 76 -111l180 -120c65 37 97 77 97 124
c0 48 -33 80 -96 121z" />
    <glyph glyph-name="currency" unicode="&#xa4;" horiz-adv-x="606" 
d="M74 689l101 -101c39 31 81 46 128 46s90 -15 129 -46l100 101l29 -29l-101 -100c30 -38 45 -82 45 -128c0 -47 -15 -90 -45 -128l101 -100l-29 -29l-100 101c-38 -30 -82 -45 -129 -45c-48 0 -90 15 -128 45l-101 -101l-28 29l101 100c-30 38 -45 82 -45 128
s15 90 45 128l-101 100zM304 594c-90 0 -162 -73 -162 -161c0 -89 72 -162 162 -162s162 73 162 162s-72 161 -162 161z" />
    <glyph glyph-name="quotesingle" unicode="'" horiz-adv-x="134" 
d="M50 700h34v-270h-34v270z" />
    <glyph glyph-name="quotedblleft" unicode="&#x201c;" horiz-adv-x="387" 
d="M91 511c5 0 14 3 25 3c23 0 37 -19 37 -40c0 -32 -20 -52 -52 -52c-40 0 -63 30 -63 85c0 94 63 193 87 193c6 0 10 -5 10 -12c0 -13 -65 -69 -65 -155c0 -15 7 -22 21 -22zM286 511c5 0 13 3 24 3c23 0 37 -19 37 -40c0 -32 -20 -52 -52 -52c-40 0 -62 30 -62 85
c0 94 62 193 86 193c6 0 10 -5 10 -12c0 -13 -64 -69 -64 -155c0 -15 7 -22 21 -22z" />
    <glyph glyph-name="guillemotleft" unicode="&#xab;" horiz-adv-x="385" 
d="M188 394h3c6 0 10 -3 10 -8c0 -2 -2 -5 -5 -9l-93 -123c-6 -8 -9 -13 -9 -16s3 -8 9 -16l93 -123c3 -4 5 -7 5 -9c0 -5 -4 -8 -10 -8h-3c-18 1 -22 5 -29 15l-97 125c-5 7 -7 12 -7 16s2 9 7 16l97 125c8 10 13 15 29 15zM314 394h3c6 0 10 -3 10 -8c0 -2 -3 -5 -6 -9
l-93 -123c-6 -8 -8 -13 -8 -16s2 -8 8 -16l93 -123c3 -4 6 -7 6 -9c0 -5 -4 -8 -10 -8h-3c-18 1 -22 5 -29 15l-97 125c-5 7 -8 12 -8 16s3 9 8 16l97 125c8 10 13 15 29 15z" />
    <glyph glyph-name="guilsinglleft" unicode="&#x2039;" horiz-adv-x="276" 
d="M195 394h3c6 0 10 -3 10 -8c0 -2 -2 -5 -5 -9l-93 -123c-6 -8 -9 -13 -9 -16s3 -8 9 -16l93 -123c3 -4 5 -7 5 -9c0 -5 -4 -8 -10 -8h-3c-18 1 -22 5 -29 15l-97 125c-5 7 -8 12 -8 16s3 9 8 16l97 125c8 10 13 15 29 15z" />
    <glyph glyph-name="guilsinglright" unicode="&#x203a;" horiz-adv-x="277" 
d="M82 82h-3c-6 0 -10 3 -10 8c0 2 2 5 5 9l93 123c6 8 9 13 9 16s-3 8 -9 16l-93 123c-3 4 -5 7 -5 9c0 5 4 8 10 8h3c18 -1 22 -5 29 -15l97 -125c5 -7 8 -12 8 -16s-3 -9 -8 -16l-97 -125c-8 -10 -13 -15 -29 -15z" />
    <glyph glyph-name="fi" unicode="&#xfb01;" horiz-adv-x="597" 
d="M170 475h70c33 0 51 2 55 2c11 0 17 -4 17 -13c0 -7 -7 -12 -20 -12c-8 0 -25 1 -52 1h-70v-327v-14c0 -65 1 -88 50 -88c23 0 40 3 49 3c14 0 21 -7 21 -14s-6 -13 -18 -13c-15 0 -53 8 -116 8c-65 0 -103 -8 -118 -8c-12 0 -19 6 -19 13s8 14 22 14c9 0 25 -3 48 -3
c50 0 51 26 51 94v8v328h-28c-33 0 -51 -2 -55 -2c-11 0 -17 4 -17 13c0 7 7 12 20 12c8 0 25 -2 52 -2h28c-1 9 -1 17 -1 26c0 108 54 166 145 166c74 0 118 -31 118 -75c0 -25 -14 -39 -39 -39c-23 0 -35 12 -35 32c0 30 34 24 34 30c0 17 -31 31 -75 31
c-80 0 -119 -46 -119 -137c0 -11 1 -22 2 -34zM421 569c0 20 17 37 37 37s35 -16 35 -37c0 -20 -15 -35 -35 -35s-37 16 -37 35zM441 126v225v15c0 62 -2 87 -49 87c-20 0 -36 -3 -46 -3c-14 0 -22 7 -22 14s7 13 19 13c11 0 25 -3 42 -3c23 0 42 4 58 4c27 0 28 -13 28 -41
v-311v-14c0 -65 1 -88 50 -88c23 0 39 3 48 3c14 0 22 -7 22 -14s-6 -13 -18 -13c-15 0 -53 8 -116 8c-65 0 -103 -8 -118 -8c-12 0 -19 6 -19 13s8 14 22 14c9 0 25 -3 48 -3c50 0 51 26 51 94v8z" />
    <glyph glyph-name="fl" unicode="&#xfb02;" horiz-adv-x="602" 
d="M140 126v328h-28c-33 0 -51 -2 -55 -2c-11 0 -17 4 -17 13c0 7 7 12 20 12c8 0 25 -2 52 -2h28c-1 9 -1 18 -1 27c0 110 53 167 150 167c40 0 64 -17 103 -17c20 0 39 4 56 4c27 0 27 -13 27 -41v-489v-14c0 -65 2 -88 51 -88c23 0 39 3 48 3c14 0 22 -7 22 -14
s-7 -13 -19 -13c-15 0 -53 8 -116 8c-65 0 -102 -8 -117 -8c-12 0 -19 6 -19 13s8 14 22 14c9 0 25 -3 48 -3c48 0 50 24 50 87v15v403v16c0 57 -2 86 -44 86c-1 0 -5 0 -11 -1c8 -9 11 -21 11 -34c0 -28 -11 -43 -38 -43c-23 0 -35 12 -35 32c0 30 34 24 34 31
c0 18 -30 32 -75 32c-80 0 -119 -46 -119 -138c0 -11 1 -23 2 -35h70c33 0 51 2 55 2c11 0 17 -4 17 -13c0 -7 -7 -12 -20 -12c-8 0 -25 1 -52 1h-70v-327v-14c0 -65 1 -88 50 -88c23 0 40 3 49 3c14 0 21 -7 21 -14s-6 -13 -18 -13c-15 0 -53 8 -116 8
c-65 0 -103 -8 -118 -8c-12 0 -19 6 -19 13s8 14 22 14c9 0 25 -3 48 -3c50 0 51 26 51 94v8z" />
    <glyph glyph-name="endash" unicode="&#x2013;" 
d="M0 227v29h500v-29h-500z" />
    <glyph glyph-name="dagger" unicode="&#x2020;" 
d="M266 412v-569c0 -15 -3 -23 -15 -23s-17 8 -17 23v569h-91c-75 0 -85 0 -85 -40c0 -12 2 -24 2 -36c0 -8 -6 -15 -11 -15c-6 0 -13 8 -13 17c0 15 10 46 10 91c0 42 -9 68 -9 77c0 7 6 14 12 14s12 -7 12 -13c0 -10 -2 -20 -2 -29c0 -36 11 -38 66 -38h18h91v219
c0 14 5 22 16 22c10 0 16 -7 16 -16v-6v-219h91h18c55 0 66 2 66 38c0 9 -2 19 -2 29c0 6 6 13 12 13s11 -7 11 -14c0 -9 -8 -35 -8 -77c0 -45 10 -76 10 -91c0 -9 -7 -17 -13 -17c-5 0 -11 7 -11 15c0 12 2 24 2 36c0 40 -10 40 -85 40h-91z" />
    <glyph glyph-name="daggerdbl" unicode="&#x2021;" 
d="M235 440v219c0 14 5 22 15 22c12 0 16 -8 16 -22v-219h91h18c55 0 66 2 66 38c0 9 -2 19 -2 29c0 6 6 13 12 13s11 -7 11 -14c0 -9 -8 -35 -8 -77c0 -45 10 -76 10 -91c0 -9 -7 -17 -13 -17c-5 0 -11 7 -11 15c0 12 2 24 2 36c0 40 -10 40 -85 40h-91v-320h91h18
c55 0 66 2 66 38c0 9 -2 19 -2 29c0 6 6 13 12 13s11 -7 11 -14c0 -9 -8 -35 -8 -77c0 -45 10 -76 10 -91c0 -9 -7 -17 -13 -17c-5 0 -11 7 -11 15c0 12 2 25 2 37c0 40 -10 40 -85 40h-91v-222v-10c0 -6 -6 -13 -15 -13c-11 0 -16 8 -16 23v222h-92c-75 0 -85 0 -85 -40
c0 -12 2 -25 2 -37c0 -8 -6 -15 -11 -15c-6 0 -13 8 -13 17c0 15 10 46 10 91c0 42 -9 68 -9 77c0 7 6 14 12 14s12 -7 12 -13c0 -10 -2 -20 -2 -29c0 -36 11 -38 66 -38h18h92v320h-92c-75 0 -85 0 -85 -40c0 -12 2 -24 2 -36c0 -8 -6 -15 -11 -15c-6 0 -13 8 -13 17
c0 15 10 46 10 91c0 42 -9 68 -9 77c0 7 6 14 12 14s12 -7 12 -13c0 -10 -2 -20 -2 -29c0 -36 11 -38 66 -38h18h92z" />
    <glyph glyph-name="periodcentered" unicode="&#xb7;" horiz-adv-x="312" 
d="M111 330c0 26 20 46 46 46c25 0 44 -19 44 -46c0 -25 -19 -44 -44 -44c-26 0 -46 21 -46 44z" />
    <glyph glyph-name="paragraph" unicode="&#xb6;" 
d="M241 722h211v-28h-65v-694h-28v694h-97v-694h-28v382c-117 5 -186 73 -186 170c0 100 74 170 193 170z" />
    <glyph glyph-name="bullet" unicode="&#x2022;" horiz-adv-x="590" 
d="M150 372c0 80 65 144 145 144c79 0 144 -64 144 -144c0 -79 -65 -145 -145 -145s-144 65 -144 145z" />
    <glyph glyph-name="quotesinglbase" unicode="&#x201a;" horiz-adv-x="312" 
d="M153 -12c-5 0 -13 -2 -24 -2c-23 0 -37 19 -37 40c0 32 20 51 52 51c40 0 62 -29 62 -84c0 -94 -63 -193 -87 -193c-6 0 -10 5 -10 12c0 13 65 68 65 154c0 15 -7 22 -21 22z" />
    <glyph glyph-name="quotedblbase" unicode="&#x201e;" horiz-adv-x="387" 
d="M100 -12c-5 0 -13 -2 -24 -2c-23 0 -37 19 -37 40c0 32 20 51 52 51c40 0 62 -29 62 -84c0 -94 -62 -193 -86 -193c-6 0 -10 5 -10 12c0 13 64 68 64 154c0 15 -7 22 -21 22zM295 -12c-5 0 -13 -2 -24 -2c-23 0 -37 19 -37 40c0 32 19 51 51 51c40 0 63 -29 63 -84
c0 -94 -63 -193 -87 -193c-6 0 -10 5 -10 12c0 13 65 68 65 154c0 15 -7 22 -21 22z" />
    <glyph glyph-name="quotedblright" unicode="&#x201d;" horiz-adv-x="387" 
d="M105 592c-5 0 -13 -3 -24 -3c-23 0 -37 19 -37 40c0 32 19 52 51 52c40 0 63 -30 63 -85c0 -94 -63 -193 -87 -193c-6 0 -10 5 -10 12c0 13 65 69 65 155c0 15 -7 22 -21 22zM299 592c-5 0 -13 -3 -24 -3c-23 0 -37 19 -37 40c0 32 20 52 52 52c40 0 62 -30 62 -85
c0 -94 -62 -193 -86 -193c-6 0 -10 5 -10 12c0 13 64 69 64 155c0 15 -7 22 -21 22z" />
    <glyph glyph-name="guillemotright" unicode="&#xbb;" horiz-adv-x="385" 
d="M72 82h-3c-6 0 -10 3 -10 8c0 2 2 5 5 9l93 123c6 8 8 13 8 16s-2 8 -8 16l-93 123c-3 4 -5 7 -5 9c0 5 4 8 10 8h3c18 -1 21 -5 28 -15l97 -125c5 -7 8 -12 8 -16s-3 -9 -8 -16l-97 -125c-8 -10 -12 -15 -28 -15zM198 82h-3c-6 0 -10 3 -10 8c0 2 3 5 6 9l93 123
c6 8 8 13 8 16s-2 8 -8 16l-93 123c-3 4 -6 7 -6 9c0 5 4 8 10 8h3c18 -1 22 -5 29 -15l97 -125c5 -7 8 -12 8 -16s-3 -9 -8 -16l-97 -125c-8 -10 -13 -15 -29 -15z" />
    <glyph glyph-name="ellipsis" unicode="&#x2026;" horiz-adv-x="1000" 
d="M120 32c0 27 21 47 48 47c26 0 46 -20 46 -47c0 -25 -20 -46 -46 -46s-48 21 -48 46zM453 32c0 27 21 47 48 47c26 0 46 -20 46 -47c0 -25 -20 -46 -46 -46s-48 21 -48 46zM787 32c0 27 21 47 48 47c26 0 46 -20 46 -47c0 -25 -20 -46 -46 -46s-48 21 -48 46z" />
    <glyph glyph-name="perthousand" unicode="&#x2030;" horiz-adv-x="1274" 
d="M246 6l316 596c-34 -28 -67 -42 -104 -42c-26 0 -51 9 -78 23c10 -36 16 -70 16 -103c0 -116 -64 -193 -156 -193c-99 0 -156 71 -156 198c0 125 61 198 156 198c38 0 66 -13 97 -35c39 -28 68 -61 123 -61c41 0 79 20 117 59c24 25 31 47 49 47c6 0 10 -5 10 -14
c0 -11 -9 -22 -17 -38l-345 -651c-5 -10 -11 -14 -20 -14c-7 0 -13 6 -13 15c0 4 2 9 5 15zM117 486c0 -114 47 -177 124 -177c72 0 123 64 123 177c0 112 -48 176 -123 176s-124 -64 -124 -176zM485 184c0 125 60 199 156 199c95 0 154 -73 154 -199s-62 -198 -154 -198
c-99 0 -156 71 -156 198zM516 185c0 -114 48 -177 125 -177c72 0 122 64 122 177c0 112 -47 176 -122 176c-76 0 -125 -65 -125 -176zM876 184c0 125 61 199 157 199c95 0 154 -73 154 -199s-62 -198 -154 -198c-99 0 -157 71 -157 198zM908 185c0 -114 47 -177 124 -177
c72 0 123 64 123 177c0 112 -48 176 -123 176c-76 0 -124 -65 -124 -176z" />
    <glyph glyph-name="questiondown" unicode="&#xbf;" horiz-adv-x="549" 
d="M60 154c0 121 86 144 201 200c55 26 61 65 61 133c0 5 -1 9 -1 14c0 14 4 22 14 22c11 0 15 -8 15 -26v-31c0 -80 -14 -103 -91 -144c-94 -50 -167 -68 -167 -163c0 -94 74 -151 191 -151c132 0 208 66 208 147c0 41 -20 65 -53 65c-7 0 -10 -1 -10 -6s3 -11 3 -19
c0 -18 -15 -32 -33 -32c-22 0 -34 12 -34 32c0 34 26 53 70 53c51 0 87 -37 87 -93c0 -97 -89 -168 -236 -168c-136 0 -225 65 -225 167zM383 622c0 -26 -20 -46 -46 -46c-25 0 -44 19 -44 46c0 25 19 44 44 44c26 0 46 -21 46 -44z" />
    <glyph glyph-name="grave" unicode="`" 
d="M344 543l-195 110c-9 5 -14 12 -14 20s6 13 13 13c3 0 7 -1 11 -4l196 -125c7 -4 11 -6 11 -12c0 -4 -3 -6 -9 -6c-4 0 -8 1 -13 4z" />
    <glyph glyph-name="acute" unicode="&#xb4;" 
d="M341 682c4 3 8 4 11 4c7 0 13 -5 13 -13s-5 -15 -14 -20l-195 -110c-5 -3 -9 -4 -13 -4c-6 0 -9 2 -9 6c0 6 3 8 10 12z" />
    <glyph glyph-name="circumflex" unicode="&#x2c6;" 
d="M117 553l99 123c10 13 18 15 34 15c14 0 23 -2 33 -15l99 -123c2 -3 3 -5 3 -6c0 -5 -3 -9 -9 -9c-5 0 -12 2 -16 7l-92 109c-6 7 -9 11 -18 11s-13 -4 -19 -11l-92 -109c-3 -4 -10 -7 -16 -7s-9 3 -9 9c0 2 1 4 3 6z" />
    <glyph glyph-name="tilde" unicode="&#x2dc;" 
d="M120 569c-3 0 -8 7 -8 15c0 23 24 59 67 59c61 0 95 -41 132 -41c51 0 52 58 67 58c4 0 10 -8 10 -16c0 -29 -29 -66 -72 -66c-54 0 -91 41 -139 41c-43 0 -42 -50 -57 -50z" />
    <glyph glyph-name="macron" unicode="&#xaf;" 
d="M360 627c19 0 29 -3 29 -12c0 -11 -9 -13 -29 -13h-220h-1c-19 0 -28 2 -28 13c0 9 10 12 29 12h220z" />
    <glyph glyph-name="breve" unicode="&#x2d8;" 
d="M250 556c-94 0 -140 44 -140 96c0 8 6 16 11 16c12 0 14 -29 23 -44c16 -27 53 -43 106 -43c49 0 83 14 102 38c13 17 14 49 26 49c4 0 11 -7 11 -17c0 -49 -48 -95 -139 -95z" />
    <glyph glyph-name="dotaccent" unicode="&#x2d9;" 
d="M219 611c0 17 14 32 31 32c16 0 31 -16 31 -32c0 -18 -14 -31 -31 -31c-18 0 -31 13 -31 31z" />
    <glyph glyph-name="dieresis" unicode="&#xa8;" 
d="M125 613c0 18 14 31 32 31s31 -13 31 -31c0 -17 -13 -31 -31 -31s-32 15 -32 31zM312 613c0 18 13 31 31 31s31 -13 31 -31c0 -17 -13 -31 -31 -31s-31 15 -31 31z" />
    <glyph glyph-name="ring" unicode="&#x2da;" 
d="M141 642c0 60 48 108 109 108s109 -48 109 -108s-48 -109 -109 -109s-109 49 -109 109zM165 642c0 -47 38 -85 85 -85c48 0 85 37 85 85s-37 86 -85 86c-47 0 -85 -39 -85 -86z" />
    <glyph glyph-name="cedilla" unicode="&#xb8;" 
d="M241 -45v45h19v-64c12 1 21 1 26 1c46 0 77 -26 77 -67c0 -44 -37 -76 -96 -76c-53 0 -110 22 -110 33c0 4 4 8 9 8c11 0 43 -25 97 -25c42 0 69 23 69 58c0 31 -23 52 -58 52c-11 0 -20 -2 -28 -2c-3 0 -7 3 -7 8s2 14 2 29z" />
    <glyph glyph-name="hungarumlaut" unicode="&#x2dd;" 
d="M248 694c3 8 5 12 11 12c9 0 16 -5 16 -12c0 -2 -1 -6 -3 -11l-68 -139l-3 -2l-13 2l-1 4zM355 694c3 8 4 12 10 12c9 0 16 -5 16 -12c0 -2 -1 -6 -3 -11l-68 -139l-3 -2l-13 2v4z" />
    <glyph glyph-name="ogonek" unicode="&#x2db;" 
d="M300 15c-66 -48 -100 -91 -100 -135c0 -42 22 -66 57 -66c50 0 57 44 73 44c3 0 5 -3 5 -8c0 -13 -33 -56 -82 -56c-47 0 -78 31 -78 76c0 52 35 99 106 145h19z" />
    <glyph glyph-name="caron" unicode="&#x2c7;" 
d="M284 553c-10 -13 -18 -15 -34 -15c-14 0 -24 2 -34 15l-99 124c-2 3 -3 5 -3 6c0 5 4 9 10 9c5 0 11 -3 15 -8l92 -109c6 -7 10 -10 19 -10s14 4 19 10l92 109c3 4 10 8 16 8s8 -3 8 -9c0 -2 0 -4 -2 -6z" />
    <glyph glyph-name="emdash" unicode="&#x2014;" horiz-adv-x="1000" 
d="M0 227v29h1000v-29h-1000z" />
    <glyph glyph-name="AE" unicode="&#xc6;" horiz-adv-x="987" 
d="M474 283v355h-7l-240 -355h247zM474 126v130h-266l-137 -197c-3 -4 -5 -11 -5 -17c0 -13 11 -18 33 -18c20 0 39 3 57 3c13 0 22 -6 22 -12c0 -8 -8 -15 -22 -15c-17 0 -52 6 -102 6c-61 0 -92 -4 -98 -4c-13 0 -21 7 -21 12c0 7 8 13 22 13c7 0 15 -1 24 -1
c30 0 39 12 57 37l390 560c3 5 5 8 5 12c0 9 -5 12 -17 12c-1 0 -3 -1 -8 -1c-4 0 -8 1 -12 1c-11 0 -20 -2 -28 -2c-17 0 -25 7 -25 14c0 6 7 13 20 13c8 0 65 -8 179 -8c135 0 221 2 259 2c63 0 79 -3 79 -48c0 -11 -2 -43 -2 -93c0 -57 6 -88 6 -95c0 -11 -9 -20 -15 -20
c-5 0 -12 10 -12 19c0 4 2 27 2 70v31c0 104 -3 107 -85 109l-203 4h-4c-57 0 -62 -20 -62 -81v-169c0 -26 4 -26 32 -26h81h34c60 0 64 18 64 64c0 36 -3 57 -3 64c0 14 5 21 14 21c8 0 14 -7 14 -20c0 -26 -9 -71 -9 -138c0 -84 10 -136 10 -156c0 -18 -7 -27 -15 -27
c-7 0 -14 8 -14 24c0 6 3 35 3 91c0 58 -20 58 -98 58h-82c-29 0 -31 -7 -31 -30v-192v-36c0 -62 14 -62 68 -62h206c84 0 88 6 88 110c0 55 -2 81 -2 86c0 14 6 23 12 23c10 0 14 -9 14 -27c0 -10 -4 -46 -4 -106c0 -37 2 -60 2 -67c0 -43 -22 -46 -65 -46h-22
c-123 0 -227 7 -313 7c-59 0 -100 -8 -119 -8c-12 0 -19 6 -19 14c0 7 9 13 27 13c10 0 21 -2 35 -2c61 0 61 14 61 101z" />
    <glyph glyph-name="ordfeminine" unicode="&#xaa;" horiz-adv-x="402" 
d="M281 398c-27 -48 -80 -76 -144 -76c-72 0 -120 40 -120 93c0 59 42 96 118 100c53 3 90 2 112 12s34 29 34 56c0 50 -37 76 -109 76c-63 0 -110 -28 -110 -64c0 -8 5 -12 9 -12c3 0 6 16 24 16s26 -7 26 -23c0 -17 -14 -27 -39 -27c-24 0 -40 17 -40 42
c0 44 53 82 131 82c94 0 131 -34 131 -105v-171v-20c0 -25 13 -39 34 -39c37 0 42 28 42 75c0 3 -1 6 -1 9c0 9 3 14 8 14c7 0 10 -5 10 -14c0 -63 -7 -100 -59 -100c-39 0 -57 23 -57 68v8zM281 476v60c-27 -30 -59 -32 -106 -35c-87 -5 -134 -22 -134 -85
c0 -46 40 -78 102 -78c80 0 138 47 138 138z" />
    <glyph glyph-name="Lslash" unicode="&#x141;" horiz-adv-x="614" 
d="M193 363l126 86c14 10 24 15 28 15c7 0 10 -2 10 -7c0 -10 -9 -15 -26 -27l-138 -95v-209v-36c0 -62 16 -62 70 -62h168c87 0 92 6 92 116c0 50 -3 74 -3 79c0 15 7 24 13 24c9 0 14 -8 14 -24c0 -15 -4 -52 -4 -110c0 -36 2 -58 2 -66c0 -46 -25 -46 -77 -46
c-103 0 -196 7 -277 7c-77 0 -123 -8 -138 -8c-13 0 -20 6 -20 14c0 7 9 13 28 13c8 0 22 -2 43 -2c55 0 56 18 56 101v189l-116 -80c-14 -10 -24 -15 -28 -15c-7 0 -10 4 -10 8c0 10 9 14 26 26l128 89v198c0 83 -1 101 -56 101c-18 0 -35 -2 -49 -2c-13 0 -22 7 -22 13
c0 8 7 14 20 14c21 0 62 -10 123 -10s103 10 124 10c13 0 19 -6 19 -14c0 -7 -8 -13 -27 -13c-8 0 -22 2 -43 2c-56 0 -56 -19 -56 -101v-178z" />
    <glyph glyph-name="Oslash" unicode="&#xd8;" horiz-adv-x="683" 
d="M486 611c-41 33 -94 50 -150 50c-145 0 -252 -130 -252 -324c0 -104 20 -183 69 -240zM173 75c49 -49 100 -69 168 -69c152 0 257 125 257 327c0 109 -28 193 -89 260zM135 69c-58 69 -87 156 -87 261c0 217 118 352 287 352c61 0 113 -14 167 -47l45 70c5 8 9 12 17 12
c7 0 12 -6 12 -13c0 -4 -2 -8 -4 -12l-46 -73c74 -73 107 -165 107 -286c0 -214 -115 -349 -292 -349c-71 0 -125 19 -185 65l-54 -84c-5 -8 -11 -11 -18 -11c-6 0 -10 4 -10 13c0 5 1 10 4 15z" />
    <glyph glyph-name="OE" unicode="&#x152;" horiz-adv-x="1039" 
d="M597 126v-30c0 -66 9 -68 65 -68h200c86 0 86 8 86 128c0 43 -3 64 -3 68c0 14 7 23 12 23c9 0 14 -9 14 -27c0 -10 -4 -47 -4 -110c0 -35 2 -56 2 -63c0 -44 -23 -46 -66 -46h-17c-136 0 -231 8 -286 8c-73 0 -157 -23 -251 -23c-188 0 -300 135 -300 347
c0 219 116 342 328 342c61 0 127 -13 197 -13c98 0 201 4 310 4c61 0 76 -3 76 -48c0 -10 -2 -42 -2 -93c0 -57 5 -88 5 -95c0 -10 -7 -20 -13 -20c-5 0 -13 10 -13 19c0 4 3 26 3 67v25c0 114 -3 116 -83 118l-197 4h-4c-56 0 -59 -20 -59 -81v-169c0 -26 4 -26 31 -26h78
h33c57 0 62 19 62 63c0 38 -3 60 -3 65c0 14 5 21 13 21c7 0 14 -7 14 -20c0 -27 -9 -72 -9 -138c0 -81 10 -134 10 -156c0 -18 -7 -27 -15 -27c-7 0 -13 8 -13 24c0 15 2 30 2 41c0 17 1 33 1 50c0 58 -20 58 -95 58h-79c-28 0 -30 -7 -30 -30v-192zM564 128v411
c0 44 0 71 -21 88c-13 11 -76 28 -175 28c-183 0 -285 -112 -285 -317c0 -214 101 -333 288 -333c79 0 144 19 165 31c27 15 28 39 28 83v9z" />
    <glyph glyph-name="ordmasculine" unicode="&#xba;" horiz-adv-x="404" 
d="M26 498c0 106 67 176 176 176s176 -68 176 -176s-66 -176 -177 -176c-107 0 -175 69 -175 176zM51 498c0 -102 55 -160 152 -160c96 0 150 59 150 160s-57 159 -150 159c-96 0 -152 -58 -152 -159z" />
    <glyph glyph-name="ae" unicode="&#xe6;" horiz-adv-x="829" 
d="M376 205v47h-179c-87 0 -144 -49 -144 -122c0 -74 51 -125 134 -125c111 0 189 70 189 200zM403 275h345c-2 117 -69 190 -169 190c-98 0 -161 -67 -176 -190zM393 116c-46 -87 -119 -132 -214 -132c-93 0 -156 56 -156 141c0 96 66 150 194 150h158v72
c0 82 -42 118 -145 118c-84 0 -146 -39 -146 -90c0 -12 6 -18 11 -18c4 0 10 24 34 24c23 0 33 -11 33 -33c0 -24 -18 -39 -51 -39c-32 0 -53 24 -53 60c0 63 70 117 171 117c102 0 157 -33 173 -104c41 70 103 106 175 106c121 0 201 -88 201 -202c0 -32 -11 -34 -45 -34
h-330c0 -12 -1 -19 -1 -21c0 -143 73 -224 180 -224c79 0 137 43 153 99c7 26 5 61 21 61c7 0 13 -8 13 -21c0 -79 -73 -160 -188 -160c-91 0 -160 47 -188 130z" />
    <glyph glyph-name="dotlessi" unicode="&#x131;" horiz-adv-x="301" 
d="M144 126v225v15c0 62 -2 87 -49 87c-20 0 -35 -3 -45 -3c-14 0 -22 7 -22 14s7 13 19 13c11 0 25 -3 42 -3c23 0 42 4 58 4c27 0 28 -13 28 -41v-311v-14c0 -65 1 -88 50 -88c23 0 39 3 48 3c14 0 22 -7 22 -14s-7 -13 -19 -13c-15 0 -53 8 -116 8c-65 0 -102 -8 -117 -8
c-12 0 -19 6 -19 13s8 14 22 14c9 0 25 -3 48 -3c48 0 50 24 50 87v15z" />
    <glyph glyph-name="lslash" unicode="&#x142;" horiz-adv-x="319" 
d="M154 126v189l-121 -85c-7 -5 -12 -7 -16 -7c-5 0 -7 3 -7 9s5 11 15 18l129 90v203v15c0 62 -2 87 -49 87c-20 0 -36 -3 -46 -3c-14 0 -22 7 -22 14s7 13 19 13c11 0 25 -4 42 -4c23 0 42 5 58 5c27 0 28 -14 28 -42v-269l121 84c7 5 11 8 15 8c5 0 7 -4 7 -10
s-5 -11 -15 -18l-128 -90v-207v-14c0 -65 1 -88 50 -88c23 0 39 3 48 3c14 0 22 -7 22 -14s-6 -13 -18 -13c-15 0 -53 8 -116 8c-65 0 -103 -8 -118 -8c-12 0 -19 6 -19 13s8 14 22 14c9 0 25 -3 48 -3c50 0 51 26 51 94v8z" />
    <glyph glyph-name="oslash" unicode="&#xf8;" horiz-adv-x="539" 
d="M103 48c-46 48 -69 109 -69 182c0 160 92 259 232 259c37 0 74 -6 110 -21l42 64c5 8 9 11 16 11c5 0 9 -4 9 -11c0 -3 -2 -7 -6 -13l-41 -62c74 -47 109 -119 109 -220c0 -152 -93 -252 -235 -252c-58 0 -108 15 -149 47l-51 -78c-5 -7 -7 -11 -14 -11c-6 0 -9 4 -9 12
c0 3 1 8 4 13zM119 72l243 374c-30 14 -60 20 -92 20c-123 0 -205 -90 -205 -231c0 -69 19 -124 54 -163zM136 54c35 -30 80 -46 132 -46c122 0 205 90 205 228c0 91 -31 159 -91 199z" />
    <glyph glyph-name="oe" unicode="&#x153;" horiz-adv-x="884" 
d="M67 237c0 -146 67 -228 181 -228c108 0 178 84 178 228s-68 228 -178 228s-181 -84 -181 -228zM457 275h346c-2 117 -69 190 -169 190c-98 0 -162 -67 -177 -190zM437 125c-38 -92 -101 -139 -188 -139c-134 0 -214 97 -214 251s81 252 214 252c90 0 154 -46 191 -138
c44 91 109 137 191 137c121 0 202 -88 202 -202c0 -32 -11 -34 -45 -34h-331v-21c0 -143 73 -224 180 -224c79 0 137 43 153 99c7 26 5 61 21 61c7 0 13 -8 13 -21c0 -79 -73 -160 -188 -160c-92 0 -157 45 -199 139z" />
    <glyph glyph-name="germandbls" unicode="&#xdf;" horiz-adv-x="623" 
d="M168 53v-6c0 -29 -1 -45 -32 -45c-16 0 -30 1 -41 1c-31 0 -52 -6 -66 -6s-21 7 -21 12c0 7 7 13 13 13c3 0 20 -1 53 -1c49 0 66 1 66 44v357c0 26 -6 33 -35 33c-22 0 -39 -2 -52 -2c-12 0 -18 4 -18 11c0 6 7 12 18 12s23 -4 38 -4c68 0 44 17 68 77
c28 69 105 117 199 117c96 0 152 -46 152 -122c0 -54 -29 -84 -90 -106c-47 -17 -87 -22 -87 -55c0 -31 36 -36 98 -48c96 -18 143 -69 143 -159c0 -113 -91 -191 -202 -191c-55 0 -97 19 -132 58c-1 -6 -2 -12 -2 -17c0 -4 1 -8 1 -12c0 -10 -4 -14 -12 -14s-12 6 -12 18
c0 9 3 33 3 73c0 59 -5 93 -5 101c0 16 5 24 13 24c7 0 11 -5 11 -16c0 -6 -3 -30 -3 -72c0 -71 53 -123 135 -123c98 0 173 72 173 175c0 73 -38 113 -120 134c-64 16 -117 19 -117 69c0 33 25 48 72 64c66 23 100 39 100 99s-45 100 -122 100c-108 0 -187 -76 -187 -181
v-412z" />
    <glyph glyph-name="Aacute" unicode="&#xc1;" horiz-adv-x="658" 
d="M478 255c-50 1 -99 1 -148 1s-97 0 -145 -1l-71 -186c-3 -9 -5 -15 -5 -19c0 -19 14 -26 47 -26c24 0 42 2 54 2c16 0 24 -6 24 -15c0 -6 -7 -14 -16 -14c-10 0 -57 10 -142 10c-60 0 -94 -7 -104 -7c-9 0 -17 8 -17 15c0 9 9 15 27 15c8 0 17 -2 26 -2c41 0 59 7 74 46
l229 588c5 14 8 16 24 16c14 0 21 -5 26 -19l212 -584c14 -40 35 -46 75 -46c9 0 17 1 25 1c18 0 27 -6 27 -14c0 -6 -10 -15 -20 -15c-7 0 -40 7 -105 7c-84 0 -127 -10 -135 -10c-11 0 -19 8 -19 14c0 9 8 15 24 15c10 0 28 -2 54 -2c32 0 47 7 47 26c0 7 0 13 -2 19z
M194 279c59 -1 104 -2 134 -2c33 0 80 1 140 2l-134 365zM420 874c4 3 8 4 11 4c7 0 13 -5 13 -13s-5 -15 -14 -20l-195 -110c-5 -3 -9 -4 -13 -4c-6 0 -9 2 -9 6c0 6 3 8 10 12z" />
    <glyph glyph-name="Acircumflex" unicode="&#xc2;" horiz-adv-x="658" 
d="M478 255c-50 1 -99 1 -148 1s-97 0 -145 -1l-71 -186c-3 -9 -5 -15 -5 -19c0 -19 14 -26 47 -26c24 0 42 2 54 2c16 0 24 -6 24 -15c0 -6 -7 -14 -16 -14c-10 0 -57 10 -142 10c-60 0 -94 -7 -104 -7c-9 0 -17 8 -17 15c0 9 9 15 27 15c8 0 17 -2 26 -2c41 0 59 7 74 46
l229 588c5 14 8 16 24 16c14 0 21 -5 26 -19l212 -584c14 -40 35 -46 75 -46c9 0 17 1 25 1c18 0 27 -6 27 -14c0 -6 -10 -15 -20 -15c-7 0 -40 7 -105 7c-84 0 -127 -10 -135 -10c-11 0 -19 8 -19 14c0 9 8 15 24 15c10 0 28 -2 54 -2c32 0 47 7 47 26c0 7 0 13 -2 19z
M194 279c59 -1 104 -2 134 -2c33 0 80 1 140 2l-134 365zM196 745l99 123c10 13 18 15 34 15c14 0 23 -2 33 -15l99 -123c2 -3 3 -5 3 -6c0 -5 -3 -9 -9 -9c-5 0 -12 2 -16 7l-92 109c-6 7 -9 11 -18 11s-13 -4 -19 -11l-92 -109c-3 -4 -10 -7 -16 -7s-9 3 -9 9c0 2 1 4 3 6
z" />
    <glyph glyph-name="Adieresis" unicode="&#xc4;" horiz-adv-x="658" 
d="M478 255c-50 1 -99 1 -148 1s-97 0 -145 -1l-71 -186c-3 -9 -5 -15 -5 -19c0 -19 14 -26 47 -26c24 0 42 2 54 2c16 0 24 -6 24 -15c0 -6 -7 -14 -16 -14c-10 0 -57 10 -142 10c-60 0 -94 -7 -104 -7c-9 0 -17 8 -17 15c0 9 9 15 27 15c8 0 17 -2 26 -2c41 0 59 7 74 46
l229 588c5 14 8 16 24 16c14 0 21 -5 26 -19l212 -584c14 -40 35 -46 75 -46c9 0 17 1 25 1c18 0 27 -6 27 -14c0 -6 -10 -15 -20 -15c-7 0 -40 7 -105 7c-84 0 -127 -10 -135 -10c-11 0 -19 8 -19 14c0 9 8 15 24 15c10 0 28 -2 54 -2c32 0 47 7 47 26c0 7 0 13 -2 19z
M194 279c59 -1 104 -2 134 -2c33 0 80 1 140 2l-134 365zM204 805c0 18 14 31 32 31s31 -13 31 -31c0 -17 -13 -31 -31 -31s-32 15 -32 31zM391 805c0 18 13 31 31 31s31 -13 31 -31c0 -17 -13 -31 -31 -31s-31 15 -31 31z" />
    <glyph glyph-name="Agrave" unicode="&#xc0;" horiz-adv-x="658" 
d="M478 255c-50 1 -99 1 -148 1s-97 0 -145 -1l-71 -186c-3 -9 -5 -15 -5 -19c0 -19 14 -26 47 -26c24 0 42 2 54 2c16 0 24 -6 24 -15c0 -6 -7 -14 -16 -14c-10 0 -57 10 -142 10c-60 0 -94 -7 -104 -7c-9 0 -17 8 -17 15c0 9 9 15 27 15c8 0 17 -2 26 -2c41 0 59 7 74 46
l229 588c5 14 8 16 24 16c14 0 21 -5 26 -19l212 -584c14 -40 35 -46 75 -46c9 0 17 1 25 1c18 0 27 -6 27 -14c0 -6 -10 -15 -20 -15c-7 0 -40 7 -105 7c-84 0 -127 -10 -135 -10c-11 0 -19 8 -19 14c0 9 8 15 24 15c10 0 28 -2 54 -2c32 0 47 7 47 26c0 7 0 13 -2 19z
M194 279c59 -1 104 -2 134 -2c33 0 80 1 140 2l-134 365zM423 735l-195 110c-9 5 -14 12 -14 20s6 13 13 13c3 0 7 -1 11 -4l196 -125c7 -4 11 -6 11 -12c0 -4 -3 -6 -9 -6c-4 0 -8 1 -13 4z" />
    <glyph glyph-name="Aring" unicode="&#xc5;" horiz-adv-x="658" 
d="M478 255c-50 1 -99 1 -148 1s-97 0 -145 -1l-71 -186c-3 -9 -5 -15 -5 -19c0 -19 14 -26 47 -26c24 0 42 2 54 2c16 0 24 -6 24 -15c0 -6 -7 -14 -16 -14c-10 0 -57 10 -142 10c-60 0 -94 -7 -104 -7c-9 0 -17 8 -17 15c0 9 9 15 27 15c8 0 17 -2 26 -2c41 0 59 7 74 46
l229 588c5 14 8 16 24 16c14 0 21 -5 26 -19l212 -584c14 -40 35 -46 75 -46c9 0 17 1 25 1c18 0 27 -6 27 -14c0 -6 -10 -15 -20 -15c-7 0 -40 7 -105 7c-84 0 -127 -10 -135 -10c-11 0 -19 8 -19 14c0 9 8 15 24 15c10 0 28 -2 54 -2c32 0 47 7 47 26c0 7 0 13 -2 19z
M194 279c59 -1 104 -2 134 -2c33 0 80 1 140 2l-134 365zM252 819c0 -47 39 -85 86 -85c48 0 85 37 85 85s-37 86 -85 86c-47 0 -86 -39 -86 -86zM229 819c0 60 48 109 109 109s108 -49 108 -109s-47 -108 -108 -108s-109 48 -109 108z" />
    <glyph glyph-name="Atilde" unicode="&#xc3;" horiz-adv-x="658" 
d="M478 255c-50 1 -99 1 -148 1s-97 0 -145 -1l-71 -186c-3 -9 -5 -15 -5 -19c0 -19 14 -26 47 -26c24 0 42 2 54 2c16 0 24 -6 24 -15c0 -6 -7 -14 -16 -14c-10 0 -57 10 -142 10c-60 0 -94 -7 -104 -7c-9 0 -17 8 -17 15c0 9 9 15 27 15c8 0 17 -2 26 -2c41 0 59 7 74 46
l229 588c5 14 8 16 24 16c14 0 21 -5 26 -19l212 -584c14 -40 35 -46 75 -46c9 0 17 1 25 1c18 0 27 -6 27 -14c0 -6 -10 -15 -20 -15c-7 0 -40 7 -105 7c-84 0 -127 -10 -135 -10c-11 0 -19 8 -19 14c0 9 8 15 24 15c10 0 28 -2 54 -2c32 0 47 7 47 26c0 7 0 13 -2 19z
M194 279c59 -1 104 -2 134 -2c33 0 80 1 140 2l-134 365zM199 761c-3 0 -8 7 -8 15c0 23 24 59 67 59c61 0 95 -41 132 -41c51 0 52 58 67 58c4 0 10 -8 10 -16c0 -29 -29 -66 -72 -66c-54 0 -91 41 -139 41c-43 0 -42 -50 -57 -50z" />
    <glyph glyph-name="Ccedilla" unicode="&#xc7;" horiz-adv-x="601" 
d="M519 564v18c0 34 -4 54 -4 62c0 14 7 23 13 23c8 0 15 -7 15 -21c0 -4 -3 -31 -3 -87c0 -99 4 -147 4 -154c0 -11 -6 -20 -13 -20s-15 7 -15 21c0 6 2 19 2 37c0 144 -78 217 -193 217c-146 0 -242 -120 -242 -330c0 -204 98 -323 247 -323c138 0 206 73 206 218
c0 14 4 21 11 21c10 0 14 -10 14 -30c0 -145 -87 -230 -232 -230c-179 0 -280 121 -280 346c0 223 108 349 274 349c92 0 156 -37 196 -117zM307 -45v45h19v-64c12 1 21 1 26 1c46 0 77 -26 77 -67c0 -44 -37 -76 -96 -76c-53 0 -110 22 -110 33c0 4 4 8 9 8
c11 0 43 -25 97 -25c42 0 69 23 69 58c0 31 -23 52 -58 52c-11 0 -20 -2 -28 -2c-3 0 -7 3 -7 8s2 14 2 29z" />
    <glyph glyph-name="Eacute" unicode="&#xc9;" horiz-adv-x="680" 
d="M153 126v415c0 83 -1 101 -56 101c-18 0 -35 -2 -49 -2c-13 0 -22 7 -22 13c0 8 7 14 20 14c8 0 47 -5 121 -5c119 0 228 4 325 4c64 0 81 -3 81 -48c0 -7 -3 -41 -3 -100c0 -48 6 -77 6 -88c0 -10 -9 -20 -15 -20c-5 0 -12 9 -12 24c0 5 2 33 2 91c0 112 -4 113 -88 114
l-210 4h-5c-58 0 -62 -19 -62 -81v-169c0 -26 4 -26 33 -26h83h36c62 0 65 18 65 65c0 35 -3 57 -3 63c0 14 5 21 14 21s15 -8 15 -24c0 -20 -10 -65 -10 -134c0 -84 11 -137 11 -156c0 -18 -8 -27 -16 -27s-14 8 -14 24c0 6 3 35 3 91c0 57 -20 58 -93 58h-8h-84
c-30 0 -32 -6 -32 -30v-192v-35c0 -62 14 -63 70 -63h212c87 0 91 6 91 116c0 50 -2 74 -2 79c0 15 7 24 13 24c9 0 14 -8 14 -24c0 -15 -4 -52 -4 -110c0 -36 2 -58 2 -66c0 -44 -23 -46 -70 -46h-19c-128 0 -236 7 -324 7c-62 0 -103 -8 -123 -8c-13 0 -20 6 -20 14
c0 7 9 13 28 13c8 0 22 -2 43 -2c55 0 56 18 56 101zM431 874c4 3 8 4 11 4c7 0 13 -5 13 -13s-5 -15 -14 -20l-195 -110c-5 -3 -9 -4 -13 -4c-6 0 -9 2 -9 6c0 6 3 8 10 12z" />
    <glyph glyph-name="Ecircumflex" unicode="&#xca;" horiz-adv-x="680" 
d="M153 126v415c0 83 -1 101 -56 101c-18 0 -35 -2 -49 -2c-13 0 -22 7 -22 13c0 8 7 14 20 14c8 0 47 -5 121 -5c119 0 228 4 325 4c64 0 81 -3 81 -48c0 -7 -3 -41 -3 -100c0 -48 6 -77 6 -88c0 -10 -9 -20 -15 -20c-5 0 -12 9 -12 24c0 5 2 33 2 91c0 112 -4 113 -88 114
l-210 4h-5c-58 0 -62 -19 -62 -81v-169c0 -26 4 -26 33 -26h83h36c62 0 65 18 65 65c0 35 -3 57 -3 63c0 14 5 21 14 21s15 -8 15 -24c0 -20 -10 -65 -10 -134c0 -84 11 -137 11 -156c0 -18 -8 -27 -16 -27s-14 8 -14 24c0 6 3 35 3 91c0 57 -20 58 -93 58h-8h-84
c-30 0 -32 -6 -32 -30v-192v-35c0 -62 14 -63 70 -63h212c87 0 91 6 91 116c0 50 -2 74 -2 79c0 15 7 24 13 24c9 0 14 -8 14 -24c0 -15 -4 -52 -4 -110c0 -36 2 -58 2 -66c0 -44 -23 -46 -70 -46h-19c-128 0 -236 7 -324 7c-62 0 -103 -8 -123 -8c-13 0 -20 6 -20 14
c0 7 9 13 28 13c8 0 22 -2 43 -2c55 0 56 18 56 101zM207 745l99 123c10 13 18 15 34 15c14 0 23 -2 33 -15l99 -123c2 -3 3 -5 3 -6c0 -5 -3 -9 -9 -9c-5 0 -12 2 -16 7l-92 109c-6 7 -9 11 -18 11s-13 -4 -19 -11l-92 -109c-3 -4 -10 -7 -16 -7s-9 3 -9 9c0 2 1 4 3 6z
" />
    <glyph glyph-name="Edieresis" unicode="&#xcb;" horiz-adv-x="680" 
d="M153 126v415c0 83 -1 101 -56 101c-18 0 -35 -2 -49 -2c-13 0 -22 7 -22 13c0 8 7 14 20 14c8 0 47 -5 121 -5c119 0 228 4 325 4c64 0 81 -3 81 -48c0 -7 -3 -41 -3 -100c0 -48 6 -77 6 -88c0 -10 -9 -20 -15 -20c-5 0 -12 9 -12 24c0 5 2 33 2 91c0 112 -4 113 -88 114
l-210 4h-5c-58 0 -62 -19 -62 -81v-169c0 -26 4 -26 33 -26h83h36c62 0 65 18 65 65c0 35 -3 57 -3 63c0 14 5 21 14 21s15 -8 15 -24c0 -20 -10 -65 -10 -134c0 -84 11 -137 11 -156c0 -18 -8 -27 -16 -27s-14 8 -14 24c0 6 3 35 3 91c0 57 -20 58 -93 58h-8h-84
c-30 0 -32 -6 -32 -30v-192v-35c0 -62 14 -63 70 -63h212c87 0 91 6 91 116c0 50 -2 74 -2 79c0 15 7 24 13 24c9 0 14 -8 14 -24c0 -15 -4 -52 -4 -110c0 -36 2 -58 2 -66c0 -44 -23 -46 -70 -46h-19c-128 0 -236 7 -324 7c-62 0 -103 -8 -123 -8c-13 0 -20 6 -20 14
c0 7 9 13 28 13c8 0 22 -2 43 -2c55 0 56 18 56 101zM215 805c0 18 14 31 32 31s31 -13 31 -31c0 -17 -13 -31 -31 -31s-32 15 -32 31zM402 805c0 18 13 31 31 31s31 -13 31 -31c0 -17 -13 -31 -31 -31s-31 15 -31 31z" />
    <glyph glyph-name="Egrave" unicode="&#xc8;" horiz-adv-x="680" 
d="M153 126v415c0 83 -1 101 -56 101c-18 0 -35 -2 -49 -2c-13 0 -22 7 -22 13c0 8 7 14 20 14c8 0 47 -5 121 -5c119 0 228 4 325 4c64 0 81 -3 81 -48c0 -7 -3 -41 -3 -100c0 -48 6 -77 6 -88c0 -10 -9 -20 -15 -20c-5 0 -12 9 -12 24c0 5 2 33 2 91c0 112 -4 113 -88 114
l-210 4h-5c-58 0 -62 -19 -62 -81v-169c0 -26 4 -26 33 -26h83h36c62 0 65 18 65 65c0 35 -3 57 -3 63c0 14 5 21 14 21s15 -8 15 -24c0 -20 -10 -65 -10 -134c0 -84 11 -137 11 -156c0 -18 -8 -27 -16 -27s-14 8 -14 24c0 6 3 35 3 91c0 57 -20 58 -93 58h-8h-84
c-30 0 -32 -6 -32 -30v-192v-35c0 -62 14 -63 70 -63h212c87 0 91 6 91 116c0 50 -2 74 -2 79c0 15 7 24 13 24c9 0 14 -8 14 -24c0 -15 -4 -52 -4 -110c0 -36 2 -58 2 -66c0 -44 -23 -46 -70 -46h-19c-128 0 -236 7 -324 7c-62 0 -103 -8 -123 -8c-13 0 -20 6 -20 14
c0 7 9 13 28 13c8 0 22 -2 43 -2c55 0 56 18 56 101zM434 735l-195 110c-9 5 -14 12 -14 20s6 13 13 13c3 0 7 -1 11 -4l196 -125c7 -4 11 -6 11 -12c0 -4 -3 -6 -9 -6c-4 0 -8 1 -13 4z" />
    <glyph glyph-name="Iacute" unicode="&#xcd;" horiz-adv-x="337" 
d="M185 126v-17c0 -70 6 -84 56 -84c18 0 35 2 49 2c13 0 22 -7 22 -13c0 -8 -7 -14 -20 -14c-21 0 -62 9 -123 9s-103 -9 -124 -9c-13 0 -20 6 -20 14c0 7 9 13 28 13c8 0 22 -2 43 -2c55 0 56 18 56 101v415c0 83 -1 101 -56 101c-18 0 -35 -2 -49 -2c-13 0 -22 7 -22 13
c0 8 7 14 20 14c21 0 63 -10 124 -10s102 10 123 10c13 0 20 -6 20 -14c0 -7 -9 -13 -28 -13c-8 0 -22 2 -43 2c-56 0 -56 -19 -56 -101v-415zM260 874c4 3 8 4 11 4c7 0 13 -5 13 -13s-5 -15 -14 -20l-195 -110c-5 -3 -9 -4 -13 -4c-6 0 -9 2 -9 6c0 6 3 8 10 12z" />
    <glyph glyph-name="Icircumflex" unicode="&#xce;" horiz-adv-x="337" 
d="M185 126v-17c0 -70 6 -84 56 -84c18 0 35 2 49 2c13 0 22 -7 22 -13c0 -8 -7 -14 -20 -14c-21 0 -62 9 -123 9s-103 -9 -124 -9c-13 0 -20 6 -20 14c0 7 9 13 28 13c8 0 22 -2 43 -2c55 0 56 18 56 101v415c0 83 -1 101 -56 101c-18 0 -35 -2 -49 -2c-13 0 -22 7 -22 13
c0 8 7 14 20 14c21 0 63 -10 124 -10s102 10 123 10c13 0 20 -6 20 -14c0 -7 -9 -13 -28 -13c-8 0 -22 2 -43 2c-56 0 -56 -19 -56 -101v-415zM36 745l99 123c10 13 18 15 34 15c14 0 23 -2 33 -15l99 -123c2 -3 3 -5 3 -6c0 -5 -3 -9 -9 -9c-5 0 -12 2 -16 7l-92 109
c-6 7 -9 11 -18 11s-13 -4 -19 -11l-92 -109c-3 -4 -10 -7 -16 -7s-9 3 -9 9c0 2 1 4 3 6z" />
    <glyph glyph-name="Idieresis" unicode="&#xcf;" horiz-adv-x="337" 
d="M185 126v-17c0 -70 6 -84 56 -84c18 0 35 2 49 2c13 0 22 -7 22 -13c0 -8 -7 -14 -20 -14c-21 0 -62 9 -123 9s-103 -9 -124 -9c-13 0 -20 6 -20 14c0 7 9 13 28 13c8 0 22 -2 43 -2c55 0 56 18 56 101v415c0 83 -1 101 -56 101c-18 0 -35 -2 -49 -2c-13 0 -22 7 -22 13
c0 8 7 14 20 14c21 0 63 -10 124 -10s102 10 123 10c13 0 20 -6 20 -14c0 -7 -9 -13 -28 -13c-8 0 -22 2 -43 2c-56 0 -56 -19 -56 -101v-415zM44 805c0 18 14 31 32 31s31 -13 31 -31c0 -17 -13 -31 -31 -31s-32 15 -32 31zM231 805c0 18 13 31 31 31s31 -13 31 -31
c0 -17 -13 -31 -31 -31s-31 15 -31 31z" />
    <glyph glyph-name="Igrave" unicode="&#xcc;" horiz-adv-x="337" 
d="M185 126v-17c0 -70 6 -84 56 -84c18 0 35 2 49 2c13 0 22 -7 22 -13c0 -8 -7 -14 -20 -14c-21 0 -62 9 -123 9s-103 -9 -124 -9c-13 0 -20 6 -20 14c0 7 9 13 28 13c8 0 22 -2 43 -2c55 0 56 18 56 101v415c0 83 -1 101 -56 101c-18 0 -35 -2 -49 -2c-13 0 -22 7 -22 13
c0 8 7 14 20 14c21 0 63 -10 124 -10s102 10 123 10c13 0 20 -6 20 -14c0 -7 -9 -13 -28 -13c-8 0 -22 2 -43 2c-56 0 -56 -19 -56 -101v-415zM263 735l-195 110c-9 5 -14 12 -14 20s6 13 13 13c3 0 7 -1 11 -4l196 -125c7 -4 11 -6 11 -12c0 -4 -3 -6 -9 -6
c-4 0 -8 1 -13 4z" />
    <glyph glyph-name="Ntilde" unicode="&#xd1;" horiz-adv-x="767" 
d="M186 126v-17c0 -70 6 -84 56 -84c18 0 35 2 49 2c13 0 21 -7 21 -13c0 -8 -6 -14 -19 -14c-21 0 -63 9 -124 9s-102 -9 -123 -9c-13 0 -20 6 -20 14c0 7 9 13 28 13c8 0 22 -2 43 -2c55 0 57 18 57 101v415c0 83 -2 101 -57 101c-18 0 -35 -2 -49 -2c-13 0 -22 7 -22 13
c0 8 7 14 20 14c5 0 33 -4 90 -4c25 0 39 1 42 1c24 0 31 -7 45 -31l358 -599v507c0 83 -2 101 -57 101c-18 0 -34 -2 -48 -2c-13 0 -22 7 -22 13c0 8 7 14 20 14c21 0 62 -10 123 -10s102 10 123 10c13 0 20 -6 20 -14c0 -7 -9 -13 -28 -13c-8 0 -21 2 -42 2
c-56 0 -57 -19 -57 -101v-507c0 -21 -12 -36 -28 -36c-12 0 -23 8 -32 24l-367 615v-511zM254 761c-3 0 -8 7 -8 15c0 23 24 59 67 59c61 0 95 -41 132 -41c51 0 52 58 67 58c4 0 10 -8 10 -16c0 -29 -29 -66 -72 -66c-54 0 -91 41 -139 41c-43 0 -42 -50 -57 -50z" />
    <glyph glyph-name="Oacute" unicode="&#xd3;" horiz-adv-x="683" 
d="M633 333c0 -213 -110 -347 -292 -347c-180 0 -291 133 -291 347c0 218 112 348 292 348c178 0 291 -132 291 -348zM341 7c155 0 257 125 257 326s-102 327 -257 327s-256 -126 -256 -327s101 -326 256 -326zM433 874c4 3 8 4 11 4c7 0 13 -5 13 -13s-5 -15 -14 -20
l-195 -110c-5 -3 -9 -4 -13 -4c-6 0 -9 2 -9 6c0 6 3 8 10 12z" />
    <glyph glyph-name="Ocircumflex" unicode="&#xd4;" horiz-adv-x="683" 
d="M633 333c0 -213 -110 -347 -292 -347c-180 0 -291 133 -291 347c0 218 112 348 292 348c178 0 291 -132 291 -348zM341 7c155 0 257 125 257 326s-102 327 -257 327s-256 -126 -256 -327s101 -326 256 -326zM209 745l99 123c10 13 18 15 34 15c14 0 23 -2 33 -15l99 -123
c2 -3 3 -5 3 -6c0 -5 -3 -9 -9 -9c-5 0 -12 2 -16 7l-92 109c-6 7 -9 11 -18 11s-13 -4 -19 -11l-92 -109c-3 -4 -10 -7 -16 -7s-9 3 -9 9c0 2 1 4 3 6z" />
    <glyph glyph-name="Odieresis" unicode="&#xd6;" horiz-adv-x="683" 
d="M633 333c0 -213 -110 -347 -292 -347c-180 0 -291 133 -291 347c0 218 112 348 292 348c178 0 291 -132 291 -348zM341 7c155 0 257 125 257 326s-102 327 -257 327s-256 -126 -256 -327s101 -326 256 -326zM217 805c0 18 14 31 32 31s31 -13 31 -31
c0 -17 -13 -31 -31 -31s-32 15 -32 31zM404 805c0 18 13 31 31 31s31 -13 31 -31c0 -17 -13 -31 -31 -31s-31 15 -31 31z" />
    <glyph glyph-name="Ograve" unicode="&#xd2;" horiz-adv-x="683" 
d="M633 333c0 -213 -110 -347 -292 -347c-180 0 -291 133 -291 347c0 218 112 348 292 348c178 0 291 -132 291 -348zM341 7c155 0 257 125 257 326s-102 327 -257 327s-256 -126 -256 -327s101 -326 256 -326zM436 735l-195 110c-9 5 -14 12 -14 20s6 13 13 13
c3 0 7 -1 11 -4l196 -125c7 -4 11 -6 11 -12c0 -4 -3 -6 -9 -6c-4 0 -8 1 -13 4z" />
    <glyph glyph-name="Otilde" unicode="&#xd5;" horiz-adv-x="683" 
d="M633 333c0 -213 -110 -347 -292 -347c-180 0 -291 133 -291 347c0 218 112 348 292 348c178 0 291 -132 291 -348zM341 7c155 0 257 125 257 326s-102 327 -257 327s-256 -126 -256 -327s101 -326 256 -326zM212 761c-3 0 -8 7 -8 15c0 23 24 59 67 59
c61 0 95 -41 132 -41c51 0 52 58 67 58c4 0 10 -8 10 -16c0 -29 -29 -66 -72 -66c-54 0 -91 41 -139 41c-43 0 -42 -50 -57 -50z" />
    <glyph glyph-name="Scaron" unicode="&#x160;" horiz-adv-x="547" 
d="M69 89c4 -42 6 -66 6 -71c0 -14 -7 -21 -15 -21s-16 9 -16 26c0 8 4 35 4 82c0 91 -5 140 -5 151c0 14 6 22 13 22c8 0 15 -8 15 -23c0 -12 -3 -31 -3 -57c0 -122 77 -192 199 -192c128 0 207 70 207 177c0 117 -65 134 -188 147c-73 8 -130 9 -178 45
c-35 26 -53 69 -53 124c0 106 83 182 210 182c87 0 145 -33 179 -103v27c0 24 -3 40 -3 47c0 8 8 15 14 15c10 0 15 -7 15 -22c0 -6 -4 -41 -4 -109c0 -59 6 -89 6 -95c0 -13 -6 -23 -12 -23c-7 0 -15 8 -15 26c0 5 1 13 1 21c0 124 -66 195 -180 195
c-107 0 -179 -66 -179 -159c0 -96 54 -126 163 -139c84 -10 153 -10 203 -49c35 -27 55 -70 55 -123c0 -120 -89 -204 -237 -204c-94 0 -159 32 -202 103zM308 745c-10 -13 -18 -15 -34 -15c-14 0 -24 2 -34 15l-99 124c-2 3 -3 5 -3 6c0 5 4 9 10 9c5 0 11 -3 15 -8
l92 -109c6 -7 10 -10 19 -10s14 4 19 10l92 109c3 4 10 8 16 8s8 -3 8 -9c0 -2 0 -4 -2 -6z" />
    <glyph glyph-name="Uacute" unicode="&#xda;" horiz-adv-x="731" 
d="M128 200v341c0 83 0 101 -56 101c-18 0 -34 -2 -48 -2c-13 0 -22 7 -22 13c0 8 6 14 19 14c21 0 63 -10 124 -10s102 10 123 10c13 0 20 -6 20 -14c0 -7 -9 -13 -28 -13c-8 0 -22 2 -43 2c-55 0 -56 -18 -56 -101v-342c0 -129 63 -192 202 -192c134 0 208 66 208 192v342
c0 83 -2 101 -57 101c-18 0 -34 -2 -48 -2c-13 0 -22 7 -22 13c0 8 6 14 19 14c21 0 63 -10 124 -10s102 10 123 10c13 0 20 -6 20 -14c0 -7 -9 -13 -28 -13c-8 0 -22 2 -43 2c-56 0 -56 -19 -56 -101v-341c0 -141 -82 -214 -233 -214c-175 0 -242 68 -242 214zM457 874
c4 3 8 4 11 4c7 0 13 -5 13 -13s-5 -15 -14 -20l-195 -110c-5 -3 -9 -4 -13 -4c-6 0 -9 2 -9 6c0 6 3 8 10 12z" />
    <glyph glyph-name="Ucircumflex" unicode="&#xdb;" horiz-adv-x="731" 
d="M128 200v341c0 83 0 101 -56 101c-18 0 -34 -2 -48 -2c-13 0 -22 7 -22 13c0 8 6 14 19 14c21 0 63 -10 124 -10s102 10 123 10c13 0 20 -6 20 -14c0 -7 -9 -13 -28 -13c-8 0 -22 2 -43 2c-55 0 -56 -18 -56 -101v-342c0 -129 63 -192 202 -192c134 0 208 66 208 192v342
c0 83 -2 101 -57 101c-18 0 -34 -2 -48 -2c-13 0 -22 7 -22 13c0 8 6 14 19 14c21 0 63 -10 124 -10s102 10 123 10c13 0 20 -6 20 -14c0 -7 -9 -13 -28 -13c-8 0 -22 2 -43 2c-56 0 -56 -19 -56 -101v-341c0 -141 -82 -214 -233 -214c-175 0 -242 68 -242 214zM233 745
l99 123c10 13 18 15 34 15c14 0 23 -2 33 -15l99 -123c2 -3 3 -5 3 -6c0 -5 -3 -9 -9 -9c-5 0 -12 2 -16 7l-92 109c-6 7 -9 11 -18 11s-13 -4 -19 -11l-92 -109c-3 -4 -10 -7 -16 -7s-9 3 -9 9c0 2 1 4 3 6z" />
    <glyph glyph-name="Udieresis" unicode="&#xdc;" horiz-adv-x="731" 
d="M128 200v341c0 83 0 101 -56 101c-18 0 -34 -2 -48 -2c-13 0 -22 7 -22 13c0 8 6 14 19 14c21 0 63 -10 124 -10s102 10 123 10c13 0 20 -6 20 -14c0 -7 -9 -13 -28 -13c-8 0 -22 2 -43 2c-55 0 -56 -18 -56 -101v-342c0 -129 63 -192 202 -192c134 0 208 66 208 192v342
c0 83 -2 101 -57 101c-18 0 -34 -2 -48 -2c-13 0 -22 7 -22 13c0 8 6 14 19 14c21 0 63 -10 124 -10s102 10 123 10c13 0 20 -6 20 -14c0 -7 -9 -13 -28 -13c-8 0 -22 2 -43 2c-56 0 -56 -19 -56 -101v-341c0 -141 -82 -214 -233 -214c-175 0 -242 68 -242 214zM241 805
c0 18 14 31 32 31s31 -13 31 -31c0 -17 -13 -31 -31 -31s-32 15 -32 31zM428 805c0 18 13 31 31 31s31 -13 31 -31c0 -17 -13 -31 -31 -31s-31 15 -31 31z" />
    <glyph glyph-name="Ugrave" unicode="&#xd9;" horiz-adv-x="731" 
d="M128 200v341c0 83 0 101 -56 101c-18 0 -34 -2 -48 -2c-13 0 -22 7 -22 13c0 8 6 14 19 14c21 0 63 -10 124 -10s102 10 123 10c13 0 20 -6 20 -14c0 -7 -9 -13 -28 -13c-8 0 -22 2 -43 2c-55 0 -56 -18 -56 -101v-342c0 -129 63 -192 202 -192c134 0 208 66 208 192v342
c0 83 -2 101 -57 101c-18 0 -34 -2 -48 -2c-13 0 -22 7 -22 13c0 8 6 14 19 14c21 0 63 -10 124 -10s102 10 123 10c13 0 20 -6 20 -14c0 -7 -9 -13 -28 -13c-8 0 -22 2 -43 2c-56 0 -56 -19 -56 -101v-341c0 -141 -82 -214 -233 -214c-175 0 -242 68 -242 214zM460 735
l-195 110c-9 5 -14 12 -14 20s6 13 13 13c3 0 7 -1 11 -4l196 -125c7 -4 11 -6 11 -12c0 -4 -3 -6 -9 -6c-4 0 -8 1 -13 4z" />
    <glyph glyph-name="Ydieresis" unicode="&#x178;" horiz-adv-x="603" 
d="M94 588c-20 31 -31 53 -61 53c-11 0 -23 -1 -35 -1c-13 0 -22 7 -22 13c0 8 7 14 19 14c11 0 48 -8 108 -8c46 0 85 8 109 8c13 0 19 -6 19 -14c0 -7 -9 -13 -27 -13c-21 0 -44 4 -70 4c-15 0 -23 -7 -23 -16c0 -8 6 -18 14 -31l181 -292l180 291c9 14 13 25 13 31
c0 13 -10 17 -29 17c-25 0 -48 -4 -66 -4c-16 0 -25 7 -25 13c0 8 6 14 19 14c15 0 49 -7 102 -7c75 0 111 7 118 7c12 0 19 -6 19 -14c0 -6 -9 -13 -24 -13c-9 0 -19 2 -32 2c-29 0 -42 -17 -66 -56l-193 -310v-150v-17c0 -70 6 -84 56 -84c18 0 35 2 49 2
c13 0 22 -7 22 -13c0 -8 -7 -14 -20 -14c-21 0 -62 9 -123 9s-103 -9 -124 -9c-13 0 -19 6 -19 14c0 7 9 13 28 13c8 0 21 -2 42 -2c55 0 56 18 56 101v150zM177 805c0 18 14 31 32 31s31 -13 31 -31c0 -17 -13 -31 -31 -31s-32 15 -32 31zM364 805c0 18 13 31 31 31
s31 -13 31 -31c0 -17 -13 -31 -31 -31s-31 15 -31 31z" />
    <glyph glyph-name="Zcaron" unicode="&#x17d;" horiz-adv-x="547" 
d="M50 21h378h15c35 0 35 26 35 93c0 71 -5 108 -5 114c0 15 10 28 16 28c7 0 17 -12 17 -26c0 -7 -8 -54 -8 -149c0 -5 1 -20 1 -46c0 -27 -3 -35 -38 -35h-396c-33 0 -51 0 -51 14s8 25 17 37l444 595h-360c-46 0 -46 -8 -46 -95c0 -51 3 -79 3 -84c0 -10 -9 -20 -15 -20
c-7 0 -15 10 -15 19c0 7 6 46 6 122v54c0 20 7 25 41 25h372c32 0 49 -2 49 -16c0 -10 -5 -21 -16 -35zM308 745c-10 -13 -18 -15 -34 -15c-14 0 -24 2 -34 15l-99 124c-2 3 -3 5 -3 6c0 5 4 9 10 9c5 0 11 -3 15 -8l92 -109c6 -7 10 -10 19 -10s14 4 19 10l92 109
c3 4 10 8 16 8s8 -3 8 -9c0 -2 0 -4 -2 -6z" />
    <glyph glyph-name="aacute" unicode="&#xe1;" horiz-adv-x="536" 
d="M375 95c-36 -69 -107 -109 -192 -109c-97 0 -161 57 -161 133c0 84 57 137 158 143c71 4 120 2 149 16c30 15 45 42 45 80c0 72 -49 109 -145 109c-84 0 -147 -40 -147 -91c0 -12 7 -18 12 -18c4 0 9 24 33 24c23 0 34 -11 34 -33c0 -24 -19 -39 -52 -39
c-32 0 -53 24 -53 60c0 63 70 117 174 117c126 0 175 -48 175 -150v-244v-28c0 -37 17 -57 46 -57c49 0 55 40 55 108c0 4 -1 8 -1 12c0 14 4 20 11 20c9 0 13 -6 13 -20c0 -90 -9 -142 -79 -142c-51 0 -75 32 -75 97v12zM375 206v85c-36 -42 -79 -45 -142 -49
c-116 -7 -179 -32 -179 -122c0 -65 54 -112 137 -112c106 0 184 68 184 198zM336 682c4 3 8 4 11 4c7 0 13 -5 13 -13s-5 -15 -14 -20l-195 -110c-5 -3 -9 -4 -13 -4c-6 0 -9 2 -9 6c0 6 3 8 10 12z" />
    <glyph glyph-name="acircumflex" unicode="&#xe2;" horiz-adv-x="536" 
d="M375 95c-36 -69 -107 -109 -192 -109c-97 0 -161 57 -161 133c0 84 57 137 158 143c71 4 120 2 149 16c30 15 45 42 45 80c0 72 -49 109 -145 109c-84 0 -147 -40 -147 -91c0 -12 7 -18 12 -18c4 0 9 24 33 24c23 0 34 -11 34 -33c0 -24 -19 -39 -52 -39
c-32 0 -53 24 -53 60c0 63 70 117 174 117c126 0 175 -48 175 -150v-244v-28c0 -37 17 -57 46 -57c49 0 55 40 55 108c0 4 -1 8 -1 12c0 14 4 20 11 20c9 0 13 -6 13 -20c0 -90 -9 -142 -79 -142c-51 0 -75 32 -75 97v12zM375 206v85c-36 -42 -79 -45 -142 -49
c-116 -7 -179 -32 -179 -122c0 -65 54 -112 137 -112c106 0 184 68 184 198zM112 553l99 123c10 13 18 15 34 15c14 0 23 -2 33 -15l99 -123c2 -3 3 -5 3 -6c0 -5 -3 -9 -9 -9c-5 0 -12 2 -16 7l-92 109c-6 7 -9 11 -18 11s-13 -4 -19 -11l-92 -109c-3 -4 -10 -7 -16 -7
s-9 3 -9 9c0 2 1 4 3 6z" />
    <glyph glyph-name="adieresis" unicode="&#xe4;" horiz-adv-x="536" 
d="M375 95c-36 -69 -107 -109 -192 -109c-97 0 -161 57 -161 133c0 84 57 137 158 143c71 4 120 2 149 16c30 15 45 42 45 80c0 72 -49 109 -145 109c-84 0 -147 -40 -147 -91c0 -12 7 -18 12 -18c4 0 9 24 33 24c23 0 34 -11 34 -33c0 -24 -19 -39 -52 -39
c-32 0 -53 24 -53 60c0 63 70 117 174 117c126 0 175 -48 175 -150v-244v-28c0 -37 17 -57 46 -57c49 0 55 40 55 108c0 4 -1 8 -1 12c0 14 4 20 11 20c9 0 13 -6 13 -20c0 -90 -9 -142 -79 -142c-51 0 -75 32 -75 97v12zM375 206v85c-36 -42 -79 -45 -142 -49
c-116 -7 -179 -32 -179 -122c0 -65 54 -112 137 -112c106 0 184 68 184 198zM120 613c0 18 14 31 32 31s31 -13 31 -31c0 -17 -13 -31 -31 -31s-32 15 -32 31zM307 613c0 18 13 31 31 31s31 -13 31 -31c0 -17 -13 -31 -31 -31s-31 15 -31 31z" />
    <glyph glyph-name="agrave" unicode="&#xe0;" horiz-adv-x="536" 
d="M375 95c-36 -69 -107 -109 -192 -109c-97 0 -161 57 -161 133c0 84 57 137 158 143c71 4 120 2 149 16c30 15 45 42 45 80c0 72 -49 109 -145 109c-84 0 -147 -40 -147 -91c0 -12 7 -18 12 -18c4 0 9 24 33 24c23 0 34 -11 34 -33c0 -24 -19 -39 -52 -39
c-32 0 -53 24 -53 60c0 63 70 117 174 117c126 0 175 -48 175 -150v-244v-28c0 -37 17 -57 46 -57c49 0 55 40 55 108c0 4 -1 8 -1 12c0 14 4 20 11 20c9 0 13 -6 13 -20c0 -90 -9 -142 -79 -142c-51 0 -75 32 -75 97v12zM375 206v85c-36 -42 -79 -45 -142 -49
c-116 -7 -179 -32 -179 -122c0 -65 54 -112 137 -112c106 0 184 68 184 198zM339 543l-195 110c-9 5 -14 12 -14 20s6 13 13 13c3 0 7 -1 11 -4l196 -125c7 -4 11 -6 11 -12c0 -4 -3 -6 -9 -6c-4 0 -8 1 -13 4z" />
    <glyph glyph-name="aring" unicode="&#xe5;" horiz-adv-x="536" 
d="M375 95c-36 -69 -107 -109 -192 -109c-97 0 -161 57 -161 133c0 84 57 137 158 143c71 4 120 2 149 16c30 15 45 42 45 80c0 72 -49 109 -145 109c-84 0 -147 -40 -147 -91c0 -12 7 -18 12 -18c4 0 9 24 33 24c23 0 34 -11 34 -33c0 -24 -19 -39 -52 -39
c-32 0 -53 24 -53 60c0 63 70 117 174 117c126 0 175 -48 175 -150v-244v-28c0 -37 17 -57 46 -57c49 0 55 40 55 108c0 4 -1 8 -1 12c0 14 4 20 11 20c9 0 13 -6 13 -20c0 -90 -9 -142 -79 -142c-51 0 -75 32 -75 97v12zM375 206v85c-36 -42 -79 -45 -142 -49
c-116 -7 -179 -32 -179 -122c0 -65 54 -112 137 -112c106 0 184 68 184 198zM130 630c0 60 48 108 109 108s108 -48 108 -108s-47 -109 -108 -109s-109 49 -109 109zM153 630c0 -47 39 -86 86 -86c48 0 85 38 85 86s-37 85 -85 85c-47 0 -86 -38 -86 -85z" />
    <glyph glyph-name="atilde" unicode="&#xe3;" horiz-adv-x="536" 
d="M375 95c-36 -69 -107 -109 -192 -109c-97 0 -161 57 -161 133c0 84 57 137 158 143c71 4 120 2 149 16c30 15 45 42 45 80c0 72 -49 109 -145 109c-84 0 -147 -40 -147 -91c0 -12 7 -18 12 -18c4 0 9 24 33 24c23 0 34 -11 34 -33c0 -24 -19 -39 -52 -39
c-32 0 -53 24 -53 60c0 63 70 117 174 117c126 0 175 -48 175 -150v-244v-28c0 -37 17 -57 46 -57c49 0 55 40 55 108c0 4 -1 8 -1 12c0 14 4 20 11 20c9 0 13 -6 13 -20c0 -90 -9 -142 -79 -142c-51 0 -75 32 -75 97v12zM375 206v85c-36 -42 -79 -45 -142 -49
c-116 -7 -179 -32 -179 -122c0 -65 54 -112 137 -112c106 0 184 68 184 198zM115 569c-3 0 -8 7 -8 15c0 23 24 59 67 59c61 0 95 -41 132 -41c51 0 52 58 67 58c4 0 10 -8 10 -16c0 -29 -29 -66 -72 -66c-54 0 -91 41 -139 41c-43 0 -42 -50 -57 -50z" />
    <glyph glyph-name="ccedilla" unicode="&#xe7;" horiz-adv-x="472" 
d="M434 167c7 0 14 -8 14 -21c0 -80 -71 -160 -195 -160c-133 0 -219 92 -219 239c0 164 93 264 231 264c105 0 178 -64 178 -144c0 -43 -27 -69 -61 -69c-27 0 -42 12 -42 33c0 17 13 29 31 29c21 0 29 -13 34 -13c4 0 10 12 10 28c0 59 -62 115 -151 115
c-118 0 -197 -90 -197 -237c0 -145 69 -224 193 -224c78 0 137 43 153 99c7 26 5 61 21 61zM246 -45v45h19v-64c12 1 21 1 26 1c46 0 77 -26 77 -67c0 -44 -37 -76 -96 -76c-53 0 -110 22 -110 33c0 4 4 8 9 8c11 0 43 -25 97 -25c42 0 69 23 69 58c0 31 -23 52 -58 52
c-11 0 -20 -2 -28 -2c-3 0 -7 3 -7 8s2 14 2 29z" />
    <glyph glyph-name="eacute" unicode="&#xe9;" horiz-adv-x="492" 
d="M66 252c0 -12 -1 -19 -1 -21c0 -143 73 -224 180 -224c79 0 137 43 153 99c7 26 5 61 21 61c7 0 13 -8 13 -21c0 -79 -73 -160 -188 -160c-127 0 -211 92 -211 251c0 151 89 251 207 251c121 0 201 -88 201 -202c0 -32 -10 -34 -44 -34h-331zM66 275h346
c-2 117 -69 190 -169 190c-98 0 -162 -67 -177 -190zM337 682c4 3 8 4 11 4c7 0 13 -5 13 -13s-5 -15 -14 -20l-195 -110c-5 -3 -9 -4 -13 -4c-6 0 -9 2 -9 6c0 6 3 8 10 12z" />
    <glyph glyph-name="ecircumflex" unicode="&#xea;" horiz-adv-x="492" 
d="M66 252c0 -12 -1 -19 -1 -21c0 -143 73 -224 180 -224c79 0 137 43 153 99c7 26 5 61 21 61c7 0 13 -8 13 -21c0 -79 -73 -160 -188 -160c-127 0 -211 92 -211 251c0 151 89 251 207 251c121 0 201 -88 201 -202c0 -32 -10 -34 -44 -34h-331zM66 275h346
c-2 117 -69 190 -169 190c-98 0 -162 -67 -177 -190zM113 553l99 123c10 13 18 15 34 15c14 0 23 -2 33 -15l99 -123c2 -3 3 -5 3 -6c0 -5 -3 -9 -9 -9c-5 0 -12 2 -16 7l-92 109c-6 7 -9 11 -18 11s-13 -4 -19 -11l-92 -109c-3 -4 -10 -7 -16 -7s-9 3 -9 9c0 2 1 4 3 6z
" />
    <glyph glyph-name="edieresis" unicode="&#xeb;" horiz-adv-x="492" 
d="M66 252c0 -12 -1 -19 -1 -21c0 -143 73 -224 180 -224c79 0 137 43 153 99c7 26 5 61 21 61c7 0 13 -8 13 -21c0 -79 -73 -160 -188 -160c-127 0 -211 92 -211 251c0 151 89 251 207 251c121 0 201 -88 201 -202c0 -32 -10 -34 -44 -34h-331zM66 275h346
c-2 117 -69 190 -169 190c-98 0 -162 -67 -177 -190zM121 613c0 18 14 31 32 31s31 -13 31 -31c0 -17 -13 -31 -31 -31s-32 15 -32 31zM308 613c0 18 13 31 31 31s31 -13 31 -31c0 -17 -13 -31 -31 -31s-31 15 -31 31z" />
    <glyph glyph-name="egrave" unicode="&#xe8;" horiz-adv-x="492" 
d="M66 252c0 -12 -1 -19 -1 -21c0 -143 73 -224 180 -224c79 0 137 43 153 99c7 26 5 61 21 61c7 0 13 -8 13 -21c0 -79 -73 -160 -188 -160c-127 0 -211 92 -211 251c0 151 89 251 207 251c121 0 201 -88 201 -202c0 -32 -10 -34 -44 -34h-331zM66 275h346
c-2 117 -69 190 -169 190c-98 0 -162 -67 -177 -190zM340 543l-195 110c-9 5 -14 12 -14 20s6 13 13 13c3 0 7 -1 11 -4l196 -125c7 -4 11 -6 11 -12c0 -4 -3 -6 -9 -6c-4 0 -8 1 -13 4z" />
    <glyph glyph-name="iacute" unicode="&#xed;" horiz-adv-x="301" 
d="M144 126v225v15c0 62 -2 87 -49 87c-20 0 -35 -3 -45 -3c-14 0 -22 7 -22 14s7 13 19 13c11 0 25 -3 42 -3c23 0 42 4 58 4c27 0 28 -13 28 -41v-311v-14c0 -65 1 -88 50 -88c23 0 39 3 48 3c14 0 22 -7 22 -14s-7 -13 -19 -13c-15 0 -53 8 -116 8c-65 0 -102 -8 -117 -8
c-12 0 -19 6 -19 13s8 14 22 14c9 0 25 -3 48 -3c48 0 50 24 50 87v15zM229 682c4 3 8 4 11 4c7 0 13 -5 13 -13s-5 -15 -14 -20l-195 -110c-5 -3 -9 -4 -13 -4c-6 0 -9 2 -9 6c0 6 3 8 10 12z" />
    <glyph glyph-name="icircumflex" unicode="&#xee;" horiz-adv-x="301" 
d="M144 126v225v15c0 62 -2 87 -49 87c-20 0 -35 -3 -45 -3c-14 0 -22 7 -22 14s7 13 19 13c11 0 25 -3 42 -3c23 0 42 4 58 4c27 0 28 -13 28 -41v-311v-14c0 -65 1 -88 50 -88c23 0 39 3 48 3c14 0 22 -7 22 -14s-7 -13 -19 -13c-15 0 -53 8 -116 8c-65 0 -102 -8 -117 -8
c-12 0 -19 6 -19 13s8 14 22 14c9 0 25 -3 48 -3c48 0 50 24 50 87v15zM5 553l99 123c10 13 18 15 34 15c14 0 23 -2 33 -15l99 -123c2 -3 3 -5 3 -6c0 -5 -3 -9 -9 -9c-5 0 -12 2 -16 7l-92 109c-6 7 -9 11 -18 11s-13 -4 -19 -11l-92 -109c-3 -4 -10 -7 -16 -7s-9 3 -9 9
c0 2 1 4 3 6z" />
    <glyph glyph-name="idieresis" unicode="&#xef;" horiz-adv-x="301" 
d="M144 126v225v15c0 62 -2 87 -49 87c-20 0 -35 -3 -45 -3c-14 0 -22 7 -22 14s7 13 19 13c11 0 25 -3 42 -3c23 0 42 4 58 4c27 0 28 -13 28 -41v-311v-14c0 -65 1 -88 50 -88c23 0 39 3 48 3c14 0 22 -7 22 -14s-7 -13 -19 -13c-15 0 -53 8 -116 8c-65 0 -102 -8 -117 -8
c-12 0 -19 6 -19 13s8 14 22 14c9 0 25 -3 48 -3c48 0 50 24 50 87v15zM13 613c0 18 14 31 32 31s31 -13 31 -31c0 -17 -13 -31 -31 -31s-32 15 -32 31zM200 613c0 18 13 31 31 31s31 -13 31 -31c0 -17 -13 -31 -31 -31s-31 15 -31 31z" />
    <glyph glyph-name="igrave" unicode="&#xec;" horiz-adv-x="301" 
d="M144 126v225v15c0 62 -2 87 -49 87c-20 0 -35 -3 -45 -3c-14 0 -22 7 -22 14s7 13 19 13c11 0 25 -3 42 -3c23 0 42 4 58 4c27 0 28 -13 28 -41v-311v-14c0 -65 1 -88 50 -88c23 0 39 3 48 3c14 0 22 -7 22 -14s-7 -13 -19 -13c-15 0 -53 8 -116 8c-65 0 -102 -8 -117 -8
c-12 0 -19 6 -19 13s8 14 22 14c9 0 25 -3 48 -3c48 0 50 24 50 87v15zM232 543l-195 110c-9 5 -14 12 -14 20s6 13 13 13c3 0 7 -1 11 -4l196 -125c7 -4 11 -6 11 -12c0 -4 -3 -6 -9 -6c-4 0 -8 1 -13 4z" />
    <glyph glyph-name="ntilde" unicode="&#xf1;" horiz-adv-x="660" 
d="M140 126v225v15c0 62 -2 87 -49 87c-20 0 -36 -3 -46 -3c-14 0 -22 7 -22 14s7 13 19 13c11 0 25 -3 42 -3c22 0 41 4 57 4c25 0 27 -9 27 -41v-48c41 69 99 100 184 100c68 0 121 -22 154 -61c31 -36 32 -82 32 -147v-155v-14c0 -65 1 -88 50 -88c23 0 39 3 48 3
c14 0 22 -7 22 -14s-6 -13 -18 -13c-15 0 -53 8 -118 8c-63 0 -101 -8 -116 -8c-12 0 -19 6 -19 13s8 14 22 14c9 0 25 -3 48 -3c50 0 51 26 51 94v8v202c0 89 -59 140 -161 140c-131 0 -177 -76 -177 -220v-122v-14c0 -65 1 -88 50 -88c23 0 40 3 49 3c14 0 21 -7 21 -14
s-6 -13 -18 -13c-15 0 -53 8 -116 8c-65 0 -103 -8 -118 -8c-12 0 -19 6 -19 13s8 14 22 14c9 0 25 -3 48 -3c50 0 51 26 51 94v8zM210 569c-3 0 -8 7 -8 15c0 23 24 59 67 59c61 0 95 -41 132 -41c51 0 52 58 67 58c4 0 10 -8 10 -16c0 -29 -29 -66 -72 -66
c-54 0 -91 41 -139 41c-43 0 -42 -50 -57 -50z" />
    <glyph glyph-name="oacute" unicode="&#xf3;" horiz-adv-x="539" 
d="M35 237c0 152 89 251 234 251c146 0 235 -97 235 -251s-88 -251 -236 -251c-143 0 -233 98 -233 251zM68 237c0 -146 73 -228 202 -228c128 0 201 84 201 228s-76 228 -201 228c-128 0 -202 -84 -202 -228zM361 682c4 3 8 4 11 4c7 0 13 -5 13 -13s-5 -15 -14 -20
l-195 -110c-5 -3 -9 -4 -13 -4c-6 0 -9 2 -9 6c0 6 3 8 10 12z" />
    <glyph glyph-name="ocircumflex" unicode="&#xf4;" horiz-adv-x="539" 
d="M35 237c0 152 89 251 234 251c146 0 235 -97 235 -251s-88 -251 -236 -251c-143 0 -233 98 -233 251zM68 237c0 -146 73 -228 202 -228c128 0 201 84 201 228s-76 228 -201 228c-128 0 -202 -84 -202 -228zM137 553l99 123c10 13 18 15 34 15c14 0 23 -2 33 -15l99 -123
c2 -3 3 -5 3 -6c0 -5 -3 -9 -9 -9c-5 0 -12 2 -16 7l-92 109c-6 7 -9 11 -18 11s-13 -4 -19 -11l-92 -109c-3 -4 -10 -7 -16 -7s-9 3 -9 9c0 2 1 4 3 6z" />
    <glyph glyph-name="odieresis" unicode="&#xf6;" horiz-adv-x="539" 
d="M35 237c0 152 89 251 234 251c146 0 235 -97 235 -251s-88 -251 -236 -251c-143 0 -233 98 -233 251zM68 237c0 -146 73 -228 202 -228c128 0 201 84 201 228s-76 228 -201 228c-128 0 -202 -84 -202 -228zM145 613c0 18 14 31 32 31s31 -13 31 -31
c0 -17 -13 -31 -31 -31s-32 15 -32 31zM332 613c0 18 13 31 31 31s31 -13 31 -31c0 -17 -13 -31 -31 -31s-31 15 -31 31z" />
    <glyph glyph-name="ograve" unicode="&#xf2;" horiz-adv-x="539" 
d="M35 237c0 152 89 251 234 251c146 0 235 -97 235 -251s-88 -251 -236 -251c-143 0 -233 98 -233 251zM68 237c0 -146 73 -228 202 -228c128 0 201 84 201 228s-76 228 -201 228c-128 0 -202 -84 -202 -228zM364 543l-195 110c-9 5 -14 12 -14 20s6 13 13 13
c3 0 7 -1 11 -4l196 -125c7 -4 11 -6 11 -12c0 -4 -3 -6 -9 -6c-4 0 -8 1 -13 4z" />
    <glyph glyph-name="otilde" unicode="&#xf5;" horiz-adv-x="539" 
d="M35 237c0 152 89 251 234 251c146 0 235 -97 235 -251s-88 -251 -236 -251c-143 0 -233 98 -233 251zM68 237c0 -146 73 -228 202 -228c128 0 201 84 201 228s-76 228 -201 228c-128 0 -202 -84 -202 -228zM140 569c-3 0 -8 7 -8 15c0 23 24 59 67 59
c61 0 95 -41 132 -41c51 0 52 58 67 58c4 0 10 -8 10 -16c0 -29 -29 -66 -72 -66c-54 0 -91 41 -139 41c-43 0 -42 -50 -57 -50z" />
    <glyph glyph-name="scaron" unicode="&#x161;" horiz-adv-x="447" 
d="M68 64c2 -22 3 -36 3 -43c0 -19 -8 -30 -15 -30c-6 0 -13 9 -13 19c0 11 5 31 5 64c0 55 -7 97 -7 122c0 17 6 24 12 24c8 0 15 -8 15 -22c0 -54 0 -93 26 -129c29 -40 76 -62 139 -62c90 0 149 52 149 117c0 74 -54 97 -158 106c-111 10 -170 34 -170 118
c0 77 64 141 168 141c63 0 105 -22 142 -73c-1 25 -3 40 -3 45c0 15 6 23 13 23c6 0 13 -9 13 -25c0 -17 -6 -40 -6 -71c0 -43 7 -71 7 -83c0 -9 -6 -16 -12 -16c-7 0 -14 8 -14 15s2 13 2 21c0 89 -63 146 -145 146c-80 0 -137 -54 -137 -119c0 -73 53 -85 153 -94
c117 -11 177 -39 177 -126c0 -82 -70 -146 -188 -146c-65 0 -119 27 -156 78zM258 553c-10 -13 -18 -15 -34 -15c-14 0 -24 2 -34 15l-99 124c-2 3 -3 5 -3 6c0 5 4 9 10 9c5 0 11 -3 15 -8l92 -109c6 -7 10 -10 19 -10s14 4 19 10l92 109c3 4 10 8 16 8s8 -3 8 -9
c0 -2 0 -4 -2 -6z" />
    <glyph glyph-name="uacute" unicode="&#xfa;" horiz-adv-x="641" 
d="M129 193v157v15c0 62 -2 87 -49 87c-20 0 -36 -2 -46 -2c-14 0 -21 6 -21 13s6 14 18 14c11 0 25 -4 43 -4c22 0 41 5 59 5c26 0 26 -13 26 -42v-289c0 -87 56 -141 151 -141c123 0 164 76 164 221v123v15c0 62 -2 87 -49 87c-20 0 -35 -2 -45 -2c-14 0 -22 6 -22 13
s6 14 18 14c11 0 25 -4 43 -4c22 0 40 5 57 5c24 0 28 -9 28 -42v-310c0 -77 4 -102 51 -102c21 0 37 3 46 3c14 0 22 -7 22 -14s-7 -13 -19 -13c-11 0 -25 4 -42 4c-22 0 -41 -5 -57 -5c-25 0 -27 10 -27 42v44c-37 -68 -92 -99 -171 -99c-65 0 -116 21 -145 57
c-32 39 -33 85 -33 150zM412 682c4 3 8 4 11 4c7 0 13 -5 13 -13s-5 -15 -14 -20l-195 -110c-5 -3 -9 -4 -13 -4c-6 0 -9 2 -9 6c0 6 3 8 10 12z" />
    <glyph glyph-name="ucircumflex" unicode="&#xfb;" horiz-adv-x="641" 
d="M129 193v157v15c0 62 -2 87 -49 87c-20 0 -36 -2 -46 -2c-14 0 -21 6 -21 13s6 14 18 14c11 0 25 -4 43 -4c22 0 41 5 59 5c26 0 26 -13 26 -42v-289c0 -87 56 -141 151 -141c123 0 164 76 164 221v123v15c0 62 -2 87 -49 87c-20 0 -35 -2 -45 -2c-14 0 -22 6 -22 13
s6 14 18 14c11 0 25 -4 43 -4c22 0 40 5 57 5c24 0 28 -9 28 -42v-310c0 -77 4 -102 51 -102c21 0 37 3 46 3c14 0 22 -7 22 -14s-7 -13 -19 -13c-11 0 -25 4 -42 4c-22 0 -41 -5 -57 -5c-25 0 -27 10 -27 42v44c-37 -68 -92 -99 -171 -99c-65 0 -116 21 -145 57
c-32 39 -33 85 -33 150zM188 553l99 123c10 13 18 15 34 15c14 0 23 -2 33 -15l99 -123c2 -3 3 -5 3 -6c0 -5 -3 -9 -9 -9c-5 0 -12 2 -16 7l-92 109c-6 7 -9 11 -18 11s-13 -4 -19 -11l-92 -109c-3 -4 -10 -7 -16 -7s-9 3 -9 9c0 2 1 4 3 6z" />
    <glyph glyph-name="udieresis" unicode="&#xfc;" horiz-adv-x="641" 
d="M129 193v157v15c0 62 -2 87 -49 87c-20 0 -36 -2 -46 -2c-14 0 -21 6 -21 13s6 14 18 14c11 0 25 -4 43 -4c22 0 41 5 59 5c26 0 26 -13 26 -42v-289c0 -87 56 -141 151 -141c123 0 164 76 164 221v123v15c0 62 -2 87 -49 87c-20 0 -35 -2 -45 -2c-14 0 -22 6 -22 13
s6 14 18 14c11 0 25 -4 43 -4c22 0 40 5 57 5c24 0 28 -9 28 -42v-310c0 -77 4 -102 51 -102c21 0 37 3 46 3c14 0 22 -7 22 -14s-7 -13 -19 -13c-11 0 -25 4 -42 4c-22 0 -41 -5 -57 -5c-25 0 -27 10 -27 42v44c-37 -68 -92 -99 -171 -99c-65 0 -116 21 -145 57
c-32 39 -33 85 -33 150zM196 613c0 18 14 31 32 31s31 -13 31 -31c0 -17 -13 -31 -31 -31s-32 15 -32 31zM383 613c0 18 13 31 31 31s31 -13 31 -31c0 -17 -13 -31 -31 -31s-31 15 -31 31z" />
    <glyph glyph-name="ugrave" unicode="&#xf9;" horiz-adv-x="641" 
d="M129 193v157v15c0 62 -2 87 -49 87c-20 0 -36 -2 -46 -2c-14 0 -21 6 -21 13s6 14 18 14c11 0 25 -4 43 -4c22 0 41 5 59 5c26 0 26 -13 26 -42v-289c0 -87 56 -141 151 -141c123 0 164 76 164 221v123v15c0 62 -2 87 -49 87c-20 0 -35 -2 -45 -2c-14 0 -22 6 -22 13
s6 14 18 14c11 0 25 -4 43 -4c22 0 40 5 57 5c24 0 28 -9 28 -42v-310c0 -77 4 -102 51 -102c21 0 37 3 46 3c14 0 22 -7 22 -14s-7 -13 -19 -13c-11 0 -25 4 -42 4c-22 0 -41 -5 -57 -5c-25 0 -27 10 -27 42v44c-37 -68 -92 -99 -171 -99c-65 0 -116 21 -145 57
c-32 39 -33 85 -33 150zM415 543l-195 110c-9 5 -14 12 -14 20s6 13 13 13c3 0 7 -1 11 -4l196 -125c7 -4 11 -6 11 -12c0 -4 -3 -6 -9 -6c-4 0 -8 1 -13 4z" />
    <glyph glyph-name="ydieresis" unicode="&#xff;" horiz-adv-x="522" 
d="M269 26l152 399c2 4 3 7 3 10c0 14 -12 19 -33 19c-36 0 -54 -3 -59 -3c-9 0 -18 8 -18 14s9 13 17 13c16 0 55 -8 117 -8c48 0 75 7 81 7c11 0 21 -7 21 -13s-11 -13 -31 -13c-10 0 -16 1 -19 1c-27 0 -35 -10 -44 -32l-172 -437c-46 -115 -104 -171 -188 -171
c-74 0 -123 47 -123 100c0 35 18 57 46 57c22 0 35 -12 35 -32c0 -18 -14 -32 -32 -32c-4 0 -9 2 -13 2c-3 0 -3 -3 -3 -7c0 -31 36 -67 90 -67c46 0 80 19 110 58s44 79 44 96c0 5 -1 9 -3 14l-166 419c-10 24 -18 32 -47 32c-2 0 -9 -1 -23 -1c-15 0 -23 7 -23 13
c0 7 7 13 17 13c5 0 35 -7 93 -7c51 0 87 8 107 8c10 0 21 -8 21 -13c0 -6 -10 -13 -21 -13c-15 0 -24 1 -26 1c-11 0 -22 1 -33 1c-21 0 -32 -5 -32 -19c0 -3 0 -6 2 -10zM136 613c0 18 14 31 32 31s31 -13 31 -31c0 -17 -13 -31 -31 -31s-32 15 -32 31zM323 613
c0 18 13 31 31 31s31 -13 31 -31c0 -17 -13 -31 -31 -31s-31 15 -31 31z" />
    <glyph glyph-name="zcaron" unicode="&#x17e;" horiz-adv-x="497" 
d="M61 28h305c45 0 59 3 59 59c0 47 -5 80 -5 96c0 8 8 17 13 17c8 0 14 -8 14 -21c0 -6 -3 -27 -3 -62c0 -29 4 -54 4 -76c0 -38 -15 -41 -69 -41h-298c-34 0 -55 0 -55 22c0 14 13 27 32 47l354 382h-287c-34 0 -54 -4 -54 -38c0 -58 4 -90 4 -97c0 -8 -8 -16 -13 -16
c-8 0 -13 7 -13 19c0 7 2 18 2 35c0 33 -4 64 -4 91c0 30 13 32 46 32h19h279c38 0 55 -3 55 -20c0 -13 -11 -26 -30 -47zM283 553c-10 -13 -18 -15 -34 -15c-14 0 -24 2 -34 15l-99 124c-2 3 -3 5 -3 6c0 5 4 9 10 9c5 0 11 -3 15 -8l92 -109c6 -7 10 -10 19 -10
s14 4 19 10l92 109c3 4 10 8 16 8s8 -3 8 -9c0 -2 0 -4 -2 -6z" />
    <glyph glyph-name="trademark" unicode="&#x2122;" horiz-adv-x="833" 
d="M139 709h200v-20h-85v-237h-28v237h-87v20zM404 709h43l88 -222l82 222h42v-257h-23v239l-90 -239h-22l-96 239v-239h-24v257z" />
    <glyph glyph-name="copyright" unicode="&#xa9;" horiz-adv-x="833" 
d="M416 706c97 0 184 -35 253 -104c67 -67 103 -155 103 -251c0 -97 -35 -184 -102 -250c-69 -68 -160 -106 -254 -106s-182 37 -250 105s-105 157 -105 251s37 183 105 252c67 68 153 103 250 103zM416 675c-88 0 -166 -32 -227 -94c-62 -63 -97 -145 -97 -230
s34 -166 96 -228s143 -97 228 -97s167 35 231 98c61 59 94 138 94 227c0 88 -33 168 -94 229c-63 63 -143 95 -231 95zM577 450h-39c-14 57 -59 91 -121 91c-87 0 -142 -69 -142 -191c0 -117 58 -188 142 -188c66 0 117 41 128 102h36c-7 -78 -77 -135 -168 -135
c-108 0 -181 84 -181 221c0 140 76 223 188 223c83 0 148 -50 157 -123z" />
    <glyph glyph-name="logicalnot" unicode="&#xac;" horiz-adv-x="833" 
d="M124 417h585v-245h-30v215h-555v30z" />
    <glyph glyph-name="registered" unicode="&#xae;" horiz-adv-x="833" 
d="M416 706c96 0 184 -35 253 -103c67 -67 103 -156 103 -252c0 -97 -35 -183 -102 -249c-70 -69 -160 -107 -254 -107s-182 37 -250 105s-105 157 -105 251s37 183 105 252c67 68 153 103 250 103zM416 675c-88 0 -167 -32 -228 -94c-62 -63 -96 -145 -96 -230
s35 -166 97 -228s142 -97 227 -97s168 35 232 98c61 60 93 138 93 227c0 88 -34 168 -95 229c-63 62 -142 95 -230 95zM280 564h148c114 0 169 -33 169 -115c0 -56 -39 -99 -101 -106l94 -194h-51l-89 187h-127v-187h-43v415zM323 529v-158h93c91 0 131 15 131 81
c0 55 -43 77 -130 77h-94z" />
    <glyph glyph-name="minus" unicode="&#x2212;" horiz-adv-x="833" 
d="M124 313h585v-30h-585v30z" />
    <glyph glyph-name="Eth" unicode="&#xd0;" horiz-adv-x="725" 
d="M193 126v-17c0 -29 1 -51 10 -68c11 -18 51 -20 136 -20c205 0 302 102 302 324c0 221 -96 301 -296 301c-67 0 -111 -1 -133 -10c-19 -7 -19 -37 -19 -94v-175h178c25 0 37 -2 37 -12s-13 -11 -37 -11h-178v-218zM160 126v218h-116c-24 0 -37 1 -37 11s13 12 38 12h115
v174c0 83 -1 101 -56 101c-18 0 -35 -2 -49 -2c-13 0 -22 7 -22 13c0 8 7 14 20 14c25 0 66 -10 119 -10c48 0 113 9 193 9c208 0 309 -104 309 -328c0 -221 -109 -338 -321 -338c-77 0 -138 9 -181 9c-53 0 -94 -9 -119 -9c-13 0 -20 6 -20 14c0 7 9 13 28 13
c8 0 22 -2 43 -2c55 0 56 18 56 101z" />
    <glyph glyph-name="Thorn" unicode="&#xde;" horiz-adv-x="629" 
d="M153 126v415c0 83 -1 101 -56 101c-18 0 -35 -2 -49 -2c-13 0 -22 7 -22 14c0 8 7 13 22 13c13 0 54 -8 120 -8c69 0 110 8 123 8c15 0 22 -5 22 -14c0 -7 -9 -13 -28 -13c-8 0 -22 2 -43 2c-41 0 -56 -9 -56 -64v-10v-16c0 -16 6 -20 23 -20c40 0 91 2 154 2
c153 0 229 -63 229 -190c0 -124 -80 -182 -243 -182c-61 0 -109 4 -140 4c-18 0 -23 -4 -23 -21v-19v-18c0 -69 6 -83 56 -83c18 0 35 2 49 2c13 0 21 -8 21 -13c0 -8 -6 -14 -19 -14c-22 0 -64 9 -124 9s-101 -9 -123 -9c-13 0 -20 6 -20 13s9 14 22 14c14 0 31 -2 49 -2
c55 0 56 18 56 101zM186 216c0 -33 3 -33 142 -33c157 0 230 37 230 169c0 113 -70 161 -208 161c-155 0 -164 0 -164 -48v-249z" />
    <glyph glyph-name="Yacute" unicode="&#xdd;" horiz-adv-x="603" 
d="M94 588c-20 31 -31 53 -61 53c-11 0 -23 -1 -35 -1c-13 0 -22 7 -22 13c0 8 7 14 19 14c11 0 48 -8 108 -8c46 0 85 8 109 8c13 0 19 -6 19 -14c0 -7 -9 -13 -27 -13c-21 0 -44 4 -70 4c-15 0 -23 -7 -23 -16c0 -8 6 -18 14 -31l181 -292l180 291c9 14 13 25 13 31
c0 13 -10 17 -29 17c-25 0 -48 -4 -66 -4c-16 0 -25 7 -25 13c0 8 6 14 19 14c15 0 49 -7 102 -7c75 0 111 7 118 7c12 0 19 -6 19 -14c0 -6 -9 -13 -24 -13c-9 0 -19 2 -32 2c-29 0 -42 -17 -66 -56l-193 -310v-150v-17c0 -70 6 -84 56 -84c18 0 35 2 49 2
c13 0 22 -7 22 -13c0 -8 -7 -14 -20 -14c-21 0 -62 9 -123 9s-103 -9 -124 -9c-13 0 -19 6 -19 14c0 7 9 13 28 13c8 0 21 -2 42 -2c55 0 56 18 56 101v150zM393 874c4 3 8 4 11 4c7 0 13 -5 13 -13s-5 -15 -14 -20l-195 -110c-5 -3 -9 -4 -13 -4c-6 0 -9 2 -9 6
c0 6 3 8 10 12z" />
    <glyph glyph-name="brokenbar" unicode="&#xa6;" 
d="M232 699h36v-370h-36v370zM232 199h36v-370h-36v370z" />
    <glyph glyph-name="degree" unicode="&#xb0;" horiz-adv-x="329" 
d="M165 707c71 0 131 -59 131 -132c0 -71 -58 -131 -132 -131s-131 58 -131 131c0 74 60 132 132 132zM165 682c-59 0 -107 -47 -107 -107s48 -107 107 -107c60 0 106 48 106 107s-47 107 -106 107z" />
    <glyph glyph-name="divide" unicode="&#xf7;" horiz-adv-x="833" 
d="M417 508c24 0 44 -20 44 -45s-19 -44 -44 -44s-45 19 -45 44c0 24 21 45 45 45zM124 313h585v-30h-585v30zM417 177c25 0 44 -19 44 -44c0 -24 -19 -45 -44 -45s-45 20 -45 44c0 25 21 45 45 45z" />
    <glyph glyph-name="eth" unicode="&#xf0;" horiz-adv-x="539" 
d="M464 359c-25 75 -72 140 -141 200l-104 -36c-35 -12 -54 -23 -61 -23c-6 0 -11 5 -11 11c0 14 19 17 64 32l92 32c-79 58 -127 66 -127 82c0 5 6 10 13 10c14 0 67 -24 147 -82l99 32c31 10 50 24 60 24c6 0 11 -6 11 -12c0 -15 -20 -16 -64 -31l-89 -30
c103 -98 151 -200 151 -325c0 -168 -84 -258 -236 -258c-144 0 -233 94 -233 238s88 239 234 239c90 0 149 -29 195 -103zM270 438c-130 0 -203 -79 -203 -218c0 -133 74 -211 203 -211s201 79 201 215c0 134 -76 214 -201 214z" />
    <glyph glyph-name="mu" unicode="&#xb5;" horiz-adv-x="508" 
d="M98 516h33l-60 -285c-7 -33 -11 -60 -11 -81c0 -86 46 -134 125 -134c83 0 160 81 191 226l58 274h34l-94 -433c-2 -10 -3 -21 -3 -29c0 -24 12 -35 39 -35c6 0 11 0 18 1l-6 -30c-9 -2 -18 -2 -25 -2c-39 0 -59 18 -59 55c0 9 2 22 5 38c-41 -66 -98 -99 -169 -99
c-70 0 -120 37 -135 100l-61 -290h-34z" />
    <glyph glyph-name="multiply" unicode="&#xd7;" horiz-adv-x="833" 
d="M176 560l240 -240l240 240l22 -22l-240 -240l240 -240l-22 -22l-240 240l-240 -240l-22 22l240 240l-240 240z" />
    <glyph glyph-name="onehalf" unicode="&#xbd;" horiz-adv-x="955" 
d="M188 597v4c0 41 -1 53 -34 53c-19 0 -31 -1 -35 -1c-9 0 -14 3 -14 7s4 8 12 8c7 0 16 -2 30 -2c20 0 35 3 44 3c16 0 17 -5 17 -24v-280v-8c0 -37 2 -50 33 -50c22 0 35 2 40 2c9 0 14 -4 14 -8s-5 -7 -12 -7c-19 0 -46 4 -84 4c-39 0 -68 -4 -84 -4c-8 0 -12 3 -12 7
s5 8 14 8c6 0 18 -2 38 -2c32 0 33 14 33 53v5v232zM673 656c10 14 15 20 33 20c9 0 14 -2 14 -7c0 -4 -4 -9 -8 -15l-432 -643c-10 -14 -14 -20 -32 -20c-9 0 -14 1 -14 6c0 4 3 9 7 15zM630 41c19 27 41 39 71 39c27 0 50 -10 74 -30c24 -21 42 -41 77 -41
c28 0 53 25 53 56c0 20 -6 30 -11 30c-2 0 -6 -9 -16 -9c-9 0 -15 5 -15 14c0 10 8 16 23 16c20 0 35 -16 35 -49c0 -46 -30 -76 -70 -76c-34 0 -56 19 -85 43c-22 19 -41 29 -69 29c-29 0 -55 -17 -60 -37c2 0 4 1 7 1c6 0 14 -6 14 -14c0 -10 -7 -16 -20 -16
c-15 0 -25 16 -25 47c0 57 36 99 107 122c59 19 106 25 131 42c22 15 31 37 31 67c0 55 -43 92 -118 92c-80 0 -124 -42 -124 -84c0 -5 1 -8 4 -8s7 2 13 2c12 0 19 -6 19 -17c0 -12 -10 -20 -24 -20c-22 0 -33 13 -33 38c0 55 55 101 145 101c84 0 140 -42 140 -103
c0 -32 -14 -57 -37 -75c-29 -22 -77 -28 -130 -44c-70 -21 -105 -57 -107 -116z" />
    <glyph glyph-name="onequarter" unicode="&#xbc;" horiz-adv-x="955" 
d="M188 597v4c0 41 -1 53 -34 53c-19 0 -31 -1 -35 -1c-9 0 -14 3 -14 7s4 8 12 8c7 0 16 -2 30 -2c20 0 35 3 44 3c16 0 17 -5 17 -24v-280v-8c0 -37 2 -50 33 -50c22 0 35 2 40 2c9 0 14 -4 14 -8s-5 -7 -12 -7c-19 0 -46 4 -84 4c-39 0 -68 -4 -84 -4c-8 0 -12 3 -12 7
s5 8 14 8c6 0 18 -2 38 -2c32 0 33 14 33 53v5v232zM673 656c10 14 15 20 33 20c9 0 14 -2 14 -7c0 -4 -4 -9 -8 -15l-432 -643c-10 -14 -14 -20 -32 -20c-9 0 -14 1 -14 6c0 4 3 9 7 15zM815 132l2 224l-199 -224h197zM836 71v-8c0 -37 0 -50 31 -50c15 0 25 2 30 2
c9 0 14 -4 14 -8s-4 -7 -11 -7c-9 0 -33 4 -75 4c-40 0 -64 -4 -74 -4c-7 0 -12 3 -12 7s5 8 14 8c6 0 16 -2 30 -2c31 0 32 14 32 49v9v45h-183c-22 0 -34 2 -34 11c0 7 3 12 10 19l193 216c9 10 15 17 21 17c10 0 14 -5 14 -13v-13v-221h17c32 0 49 1 53 1
c13 0 19 -3 19 -9s-5 -9 -14 -9c-3 0 -17 1 -44 1h-31v-45z" />
    <glyph glyph-name="onesuperior" unicode="&#xb9;" horiz-adv-x="413" 
d="M197 593v4c0 44 -1 57 -36 57c-20 0 -33 -1 -37 -1c-9 0 -14 3 -14 7c0 5 5 9 12 9c8 0 18 -3 32 -3c21 0 36 3 46 3c17 0 18 -5 18 -25v-300v-9c0 -39 1 -53 34 -53c24 0 37 2 42 2c9 0 15 -4 15 -8s-5 -8 -13 -8c-19 0 -48 5 -87 5c-42 0 -71 -5 -89 -5
c-7 0 -12 4 -12 8s5 8 14 8c6 0 20 -2 41 -2c33 0 34 15 34 57v5v249z" />
    <glyph glyph-name="plusminus" unicode="&#xb1;" horiz-adv-x="833" 
d="M402 562h30v-174h277v-30h-277v-175h-30v175h-278v30h278v174zM124 65h585v-30h-585v30z" />
    <glyph glyph-name="thorn" unicode="&#xfe;" horiz-adv-x="552" 
d="M145 382c27 68 86 106 170 106c120 0 202 -91 202 -249c0 -160 -82 -253 -206 -253c-73 0 -131 33 -166 95v-140v-14c0 -64 2 -88 51 -88c24 0 40 3 48 3c14 0 22 -7 22 -14s-7 -14 -19 -14c-14 0 -52 9 -116 9c-66 0 -103 -9 -117 -9c-12 0 -19 7 -19 14s8 14 22 14
c9 0 25 -3 48 -3c45 0 50 20 50 76v26v602v37c0 53 -12 64 -53 64c-17 0 -31 -2 -41 -2c-14 0 -22 7 -22 14s6 13 18 13c11 0 26 -4 43 -4c22 0 40 5 57 5c27 0 28 -14 28 -42v-246zM145 193c0 -121 65 -186 161 -186c112 0 178 81 178 233c0 142 -68 226 -176 226
c-99 0 -163 -63 -163 -187v-86z" />
    <glyph glyph-name="threequarters" unicode="&#xbe;" horiz-adv-x="955" 
d="M165 518l155 135h-210c-26 0 -29 -3 -29 -23c0 -35 3 -58 3 -67c0 -6 -3 -10 -8 -10s-8 4 -8 10c0 7 3 17 3 29c0 32 -2 52 -2 61c0 14 3 15 37 15h16h185c19 0 29 -4 29 -12c0 -6 -3 -12 -9 -18l-129 -112c14 1 26 2 35 2c69 0 118 -40 118 -106
c0 -81 -62 -134 -161 -134c-89 0 -144 44 -144 99c0 27 19 46 41 46c15 0 23 -7 23 -20c0 -9 -7 -15 -17 -15c-7 0 -12 4 -16 4c-6 0 -14 -8 -14 -22c0 -42 49 -80 129 -80c85 0 139 48 139 121c0 59 -41 95 -103 95c-38 0 -56 -13 -65 -13c-5 0 -7 1 -7 4c0 4 4 7 9 11z
M673 656c10 14 15 20 33 20c9 0 14 -2 14 -7c0 -4 -4 -9 -8 -15l-432 -643c-10 -14 -14 -20 -32 -20c-9 0 -14 1 -14 6c0 4 3 9 7 15zM815 132l2 224l-199 -224h197zM836 71v-8c0 -37 0 -50 31 -50c15 0 25 2 30 2c9 0 14 -4 14 -8s-4 -7 -11 -7c-9 0 -33 4 -75 4
c-40 0 -64 -4 -74 -4c-7 0 -12 3 -12 7s5 8 14 8c6 0 16 -2 30 -2c31 0 32 14 32 49v9v45h-183c-22 0 -34 2 -34 11c0 7 3 12 10 19l193 216c9 10 15 17 21 17c10 0 14 -5 14 -13v-13v-221h17c32 0 49 1 53 1c13 0 19 -3 19 -9s-5 -9 -14 -9c-3 0 -17 1 -44 1h-31v-45z" />
    <glyph glyph-name="threesuperior" unicode="&#xb3;" horiz-adv-x="413" 
d="M173 508l162 145h-219c-28 0 -32 -3 -32 -25c0 -38 4 -62 4 -71c0 -8 -3 -11 -8 -11s-9 3 -9 11c0 7 3 18 3 31c0 33 -2 55 -2 65c0 15 3 16 40 16h16h193c21 0 31 -5 31 -13c0 -6 -3 -13 -9 -19l-135 -121c14 2 26 3 36 3c72 0 124 -43 124 -114
c0 -87 -66 -144 -169 -144c-93 0 -151 47 -151 107c0 29 20 49 43 49c16 0 25 -7 25 -21c0 -10 -8 -16 -19 -16c-7 0 -12 4 -16 4c-7 0 -15 -9 -15 -24c0 -45 51 -86 135 -86c89 0 146 52 146 130c0 63 -43 102 -108 102c-40 0 -59 -14 -68 -14c-5 0 -7 1 -7 5s4 7 9 11z
" />
    <glyph glyph-name="twosuperior" unicode="&#xb2;" horiz-adv-x="413" 
d="M72 312c20 29 44 42 75 42c28 0 52 -11 77 -33s45 -43 81 -43c30 0 55 27 55 60c0 21 -6 32 -11 32c-2 0 -6 -10 -17 -10c-9 0 -15 6 -15 15c0 11 8 18 24 18c21 0 36 -18 36 -53c0 -49 -31 -82 -73 -82c-36 0 -59 21 -89 47c-23 19 -43 31 -72 31c-31 0 -59 -19 -64 -40
h1c2 0 4 1 6 1c8 0 16 -7 16 -15c0 -10 -8 -17 -21 -17c-16 0 -27 17 -27 50c0 62 38 106 113 131c61 20 111 27 137 45c23 16 33 39 33 72c0 59 -45 99 -124 99c-84 0 -130 -46 -130 -90c0 -6 1 -9 3 -9c4 0 8 2 15 2c12 0 20 -7 20 -18c0 -13 -11 -22 -25 -22
c-23 0 -35 14 -35 41c0 58 57 108 152 108c88 0 146 -45 146 -111c0 -33 -14 -60 -38 -80c-31 -24 -81 -30 -137 -47c-73 -23 -109 -61 -112 -124z" />
    <glyph glyph-name="yacute" unicode="&#xfd;" horiz-adv-x="522" 
d="M269 26l152 399c2 4 3 7 3 10c0 14 -12 19 -33 19c-36 0 -54 -3 -59 -3c-9 0 -18 8 -18 14s9 13 17 13c16 0 55 -8 117 -8c48 0 75 7 81 7c11 0 21 -7 21 -13s-11 -13 -31 -13c-10 0 -16 1 -19 1c-27 0 -35 -10 -44 -32l-172 -437c-46 -115 -104 -171 -188 -171
c-74 0 -123 47 -123 100c0 35 18 57 46 57c22 0 35 -12 35 -32c0 -18 -14 -32 -32 -32c-4 0 -9 2 -13 2c-3 0 -3 -3 -3 -7c0 -31 36 -67 90 -67c46 0 80 19 110 58s44 79 44 96c0 5 -1 9 -3 14l-166 419c-10 24 -18 32 -47 32c-2 0 -9 -1 -23 -1c-15 0 -23 7 -23 13
c0 7 7 13 17 13c5 0 35 -7 93 -7c51 0 87 8 107 8c10 0 21 -8 21 -13c0 -6 -10 -13 -21 -13c-15 0 -24 1 -26 1c-11 0 -22 1 -33 1c-21 0 -32 -5 -32 -19c0 -3 0 -6 2 -10zM352 682c4 3 8 4 11 4c7 0 13 -5 13 -13s-5 -15 -14 -20l-195 -110c-5 -3 -9 -4 -13 -4
c-6 0 -9 2 -9 6c0 6 3 8 10 12z" />
    </font>
</defs>
</svg>
